<svg width="210" height="210" viewBox="0 0 210 210" fill="none" xmlns="http://www.w3.org/2000/svg">
<g clip-path="url(#clip0_770_616)">
<path fill-rule="evenodd" clip-rule="evenodd" d="M54.5184 111.219C54.5184 109.516 53.2566 108.337 50.6083 108.337H45.3021V114.145H50.7379C52.9544 114.145 54.5184 113.359 54.5184 111.219ZM53.5637 99.6929C53.5637 98.0333 52.4314 96.8979 50.7379 96.8979H45.3021V102.4H50.6083C52.5178 102.4 53.5637 101.003 53.5637 99.6929ZM62.4298 112.048C62.4298 117.026 57.824 120.301 53.1703 120.301H38V90.7406H51.9085C57.2579 90.7406 61.1248 93.4023 61.1248 98.8624C61.1248 103.535 57.042 104.932 57.042 104.932C57.042 104.976 62.4298 106.199 62.4298 112.048" fill="white"/>
<path fill-rule="evenodd" clip-rule="evenodd" d="M85.1375 105.5C85.1375 100.871 83.0073 97.1164 78.7949 97.1164C74.5778 97.1164 72.4908 100.871 72.4908 105.5C72.4908 110.172 74.5778 113.926 78.7949 113.926C83.0073 113.926 85.1375 110.172 85.1375 105.5ZM92.4395 105.5C92.4395 114.189 87.4403 121 78.7949 121C70.1879 121 65.1455 114.189 65.1455 105.5C65.1455 96.8545 70.1879 90 78.7901 90C87.4404 90 92.4395 96.8545 92.4395 105.5Z" fill="white"/>
<path fill-rule="evenodd" clip-rule="evenodd" d="M117.929 111.35C117.929 117.856 112.019 121 106.458 121C100.025 121 96.7189 118.555 94.1138 115.455L98.8491 110.826C100.85 113.359 103.46 114.625 106.372 114.625C108.761 114.625 110.368 113.446 110.368 111.699C110.368 109.822 108.948 109.237 105.062 108.425L104.021 108.207C99.3432 107.228 95.5003 104.583 95.5003 99.2997C95.5003 93.4932 100.24 90 106.501 90C111.803 90 115.238 92.2699 117.325 94.6257L112.714 99.1688C111.28 97.6401 109.107 96.4177 106.631 96.4177C104.937 96.4177 103.023 97.2038 103.023 99.1688C103.023 100.959 105.014 101.608 107.542 102.138L108.588 102.357C112.82 103.241 117.929 104.539 117.929 111.35" fill="white"/>
<path fill-rule="evenodd" clip-rule="evenodd" d="M146.159 114.581C143.117 118.948 140.291 121 134.424 121C126.081 121 120.688 114.101 120.688 105.325C120.688 96.9854 125.558 90.043 134.51 90.043C139.423 90.043 142.944 91.964 145.943 96.4617L139.946 100.435C138.727 98.3387 137.163 97.1163 134.553 97.1163C131.253 97.1163 128.076 100.058 128.076 105.325C128.076 111.228 131.512 113.926 134.774 113.926C137.595 113.926 138.9 112.529 140.119 110.52L146.159 114.581" fill="white"/>
<path fill-rule="evenodd" clip-rule="evenodd" d="M174 120.301H166.175V108.643H157.175V120.301H149.397V90.7406H157.175V101.613H166.175V90.7406H174V120.301" fill="white"/>
</g>
<defs>
<clipPath id="clip0_770_616">
<rect width="136" height="31" fill="white" transform="translate(38 90)"/>
</clipPath>
</defs>
</svg>
