<svg width="210" height="210" viewBox="0 0 210 210" fill="none" xmlns="http://www.w3.org/2000/svg">
<path d="M84.1332 101.641C80.1707 101.641 77.84 98.8129 77.84 95.0641C77.84 91.3153 80.2282 88.3722 84.0469 88.3722C85.449 88.3254 86.8369 88.6652 88.0587 89.3546L88.3177 86.2347C86.9791 85.7334 85.5626 85.4718 84.1332 85.4619C77.84 85.4619 73.9556 89.0175 73.9556 95.3272C73.9556 101.563 78.1236 104.555 84.1332 104.555C85.5568 104.524 86.972 104.328 88.3506 103.972L88.1903 100.876C87.3106 101.329 85.5883 101.641 84.1332 101.641Z" fill="white"/>
<path d="M98.6801 90.2914C97.8399 90.2706 97.0076 90.4575 96.2569 90.8353C95.5062 91.2132 94.8603 91.7704 94.3764 92.4576H94.3271V84.3887H90.7715V104.238H94.3271V97.567C94.3271 95.82 94.882 93.0454 97.4593 93.0454C99.7406 93.0454 99.7694 95.2939 99.7694 96.9586V104.242H103.325V95.6391C103.317 92.5604 101.907 90.2914 98.6801 90.2914Z" fill="white"/>
<path d="M110.124 84.7305H106.56V88.1216H110.124V84.7305Z" fill="white"/>
<path d="M110.124 90.6084H106.56V104.239H110.124V90.6084Z" fill="white"/>
<path d="M122.258 101.168C121.395 101.55 120.468 101.766 119.525 101.805C117.034 101.805 115.825 99.8775 115.825 97.3577C115.825 94.838 117.231 93.0458 119.438 93.0458C120.272 93.0263 121.099 93.1979 121.855 93.5473L122.172 90.7398C121.052 90.422 119.891 90.2723 118.727 90.2959C114.444 90.2959 112.109 93.4198 112.109 97.3577C112.109 101.509 114.366 104.555 118.851 104.555C120.053 104.588 121.254 104.437 122.41 104.107L122.258 101.168Z" fill="white"/>
<path d="M136.279 101.189C136.242 100.186 136.226 99.1538 136.226 97.7809V96.0257C136.226 92.0138 134.495 90.271 130.327 90.271C128.69 90.2917 127.074 90.6412 125.575 91.2986L125.682 94.3404C126.904 93.416 128.389 92.9062 129.92 92.8853C132.021 92.8853 133.007 93.6293 133.007 95.8202H131.03C129.546 95.8202 127.799 95.9558 126.443 96.6094C125.086 97.263 124.108 98.4633 124.108 100.502C124.108 103.1 126.467 104.551 128.884 104.551C130.5 104.551 132.288 103.708 133.106 102.191H133.159C133.168 102.879 133.22 103.566 133.315 104.247H136.456C136.361 103.182 136.3 102.22 136.279 101.189ZM132.243 100.757C131.955 101.146 131.578 101.461 131.144 101.676C130.71 101.89 130.232 101.998 129.748 101.99C128.477 101.99 127.495 101.484 127.495 100.317C127.495 98.2289 129.85 97.9659 131.453 97.9659H132.991C133.053 98.953 132.791 99.9334 132.243 100.757V100.757Z" fill="white"/>
<path d="M144.065 104.239C146.054 104.239 147.653 103.228 148.315 102.065H148.372C148.372 104.416 148.187 107.351 144.262 107.351C143.152 107.351 141.385 106.755 140.283 106.163L139.995 109.18C141.491 109.805 143.097 110.121 144.718 110.109C150.473 110.109 151.944 106.619 151.944 102.911V90.6085H148.541V92.4582H148.488C147.505 90.9004 146.099 90.292 144.295 90.292C140.209 90.292 138.503 94.0778 138.503 97.3539C138.487 101.004 140.028 104.239 144.065 104.239ZM145.388 93.0419C147.468 93.0419 148.372 94.9492 148.372 97.2716C148.372 99.5941 147.468 101.481 145.232 101.481C143.177 101.481 142.211 99.2036 142.211 97.3703C142.211 95.2698 142.975 93.0419 145.388 93.0419V93.0419Z" fill="white"/>
<path d="M168.489 97.5101C168.489 93.0173 165.382 90.292 161.325 90.292C157.268 90.292 154.172 93.0173 154.172 97.5101C154.172 101.427 156.799 104.551 161.316 104.551C165.834 104.551 168.489 101.427 168.489 97.5101ZM157.896 97.099C157.896 95.0438 159.015 93.046 161.325 93.046C163.635 93.046 164.769 95.0026 164.769 97.099C164.769 99.368 164.062 101.806 161.325 101.806C158.587 101.806 157.896 99.3433 157.896 97.0949V97.099Z" fill="white"/>
<path d="M80.0513 107.897H75.353V126.366H79.0525V119.378H80.6145C84.5976 119.378 87.7586 117.812 87.7586 113.5C87.775 109.064 84.0961 107.897 80.0513 107.897ZM80.3679 116.451H79.0689V110.811H80.3679C82.2834 110.811 83.907 111.559 83.907 113.689C83.907 115.818 82.2381 116.451 80.3679 116.451V116.451Z" fill="white"/>
<path d="M97.6321 112.427C95.7823 112.427 94.2614 113.031 93.1475 114.597H93.0941V112.743H89.7275V126.366H93.2831V119.698C93.2831 117.955 93.838 115.177 96.4153 115.177C98.6967 115.177 98.7254 117.429 98.7254 119.098V126.366H102.277V117.766C102.277 114.704 100.875 112.427 97.6321 112.427Z" fill="white"/>
<path d="M111.012 112.427C106.766 112.427 104.665 115.682 104.665 119.62C104.665 124.097 107.296 126.686 111.809 126.686C113.441 126.741 115.059 126.368 116.503 125.605V122.728C115.142 123.574 113.583 124.05 111.982 124.109C109.783 124.109 108.237 122.876 108.085 120.672H117.539C117.51 115.892 116.08 112.427 111.012 112.427ZM108.069 118.223C108.221 116.389 109.232 115.02 111.23 115.02C113.227 115.02 114.008 116.5 114.107 118.223H108.069Z" fill="white"/>
<path d="M128.206 119.41C128.206 121.161 127.643 123.932 125.062 123.932C122.784 123.932 122.76 121.684 122.76 120.019V112.743H119.196V121.342C119.196 124.413 120.606 126.686 123.849 126.686C124.712 126.688 125.563 126.494 126.34 126.118C127.117 125.743 127.799 125.197 128.333 124.52H128.383V126.365H131.758V112.743H128.206V119.41Z" fill="white"/>
<path d="M151.147 112.427C149.478 112.427 147.698 113.191 146.872 114.831C146.107 113.142 144.747 112.427 142.844 112.427C142.033 112.428 141.237 112.632 140.526 113.02C139.815 113.409 139.213 113.969 138.774 114.651H138.717V112.743H135.399V126.366H138.963V119.756C138.963 117.984 139.255 115.177 141.619 115.177C143.674 115.177 143.674 116.977 143.674 118.251V126.366H147.229V119.756C147.229 117.984 147.521 115.177 149.885 115.177C151.94 115.177 151.94 116.977 151.94 118.251V126.366H155.5V117.766C155.479 114.733 154.526 112.427 151.147 112.427Z" fill="white"/>
<path d="M170.438 119.916V118.169C170.438 114.149 168.715 112.415 164.539 112.415C162.902 112.439 161.286 112.791 159.787 113.45L159.898 116.488C161.113 115.559 162.591 115.041 164.12 115.008C166.216 115.008 167.199 115.752 167.199 117.943H165.234C163.75 117.943 161.995 118.075 160.642 118.737C159.29 119.398 158.308 120.59 158.308 122.621C158.308 125.223 160.667 126.674 163.088 126.674C164.704 126.674 166.483 125.852 167.301 124.327H167.359C167.372 125.005 167.427 125.682 167.523 126.353H170.647C170.573 125.301 170.516 124.347 170.491 123.316C170.467 122.284 170.438 121.285 170.438 119.916ZM166.455 122.876C166.169 123.267 165.793 123.584 165.358 123.798C164.924 124.013 164.444 124.12 163.96 124.109C162.689 124.109 161.699 123.607 161.699 122.44C161.699 120.348 164.062 120.081 165.653 120.081H167.199C167.199 121.133 167.038 122.103 166.455 122.876Z" fill="white"/>
<path d="M179.748 123.936C178.392 123.936 178.075 122.851 178.075 121.687V115.341H181.232V112.743H178.075V108.875L174.519 110.018V112.743H171.889V115.341H174.519V122.271C174.519 124.968 176.057 126.686 178.84 126.686C179.727 126.707 180.613 126.599 181.47 126.365L181.363 123.566C180.867 123.829 180.31 123.956 179.748 123.936Z" fill="white"/>
<path d="M187.147 112.743H183.583V126.365H187.147V112.743Z" fill="white"/>
<path d="M187.147 107.062H183.583V110.45H187.147V107.062Z" fill="white"/>
<path d="M199.675 123.299C198.813 123.682 197.885 123.898 196.942 123.936C194.447 123.936 193.242 122.004 193.242 119.493C193.242 116.981 194.648 115.177 196.856 115.177C197.686 115.153 198.51 115.327 199.26 115.682L199.585 112.875C198.463 112.554 197.299 112.403 196.132 112.427C191.857 112.427 189.522 115.546 189.522 119.493C189.522 123.644 191.783 126.686 196.264 126.686C197.472 126.725 198.678 126.576 199.84 126.242L199.675 123.299Z" fill="white"/>
<path d="M27.9096 90.4809C27.9096 90.4809 19.7584 93.424 20.3462 101.908C20.3462 101.908 20.0133 111.449 31.4816 113.257V107.745C31.4816 107.745 25.8256 106.812 25.9242 100.568C25.9242 100.568 26.4627 95.2244 33.0642 94.8791H37.4953V89.6176C37.4953 89.6176 31.7529 88.6887 27.9096 90.4809Z" fill="white"/>
<path d="M35.9332 79C30.8041 79 25.7902 80.521 21.5255 83.3705C17.2608 86.2201 13.9369 90.2703 11.9741 95.009C10.0112 99.7477 9.49767 104.962 10.4983 109.993C11.499 115.023 13.9689 119.644 17.5957 123.271C21.2225 126.898 25.8434 129.368 30.8739 130.368C35.9045 131.369 41.1188 130.855 45.8575 128.892C50.5961 126.93 54.6464 123.606 57.4959 119.341C60.3455 115.076 61.8665 110.062 61.8665 104.933C61.8665 98.0553 59.1342 91.4591 54.2708 86.5957C49.4074 81.7322 42.8112 79 35.9332 79V79ZM38.5475 125.547V103.832C45.9711 103.31 45.6258 108.353 45.6258 108.353C45.9095 113.516 40.3438 114.079 40.3438 114.079V118.905C46.7192 118.798 49.576 114.605 49.576 114.605C53.7153 106.746 48.0675 101.332 48.0675 101.332C42.2799 96.0669 32.9819 99.1744 32.9819 99.1744V125.482C27.7697 124.73 23.0379 122.026 19.7441 117.917C16.4503 113.808 14.8406 108.601 15.2408 103.35C15.641 98.0991 18.0213 93.1963 21.8997 89.634C25.7782 86.0717 30.8652 84.116 36.1311 84.1627C41.3971 84.2093 46.4486 86.2549 50.2633 89.8854C54.0781 93.5159 56.371 98.46 56.6781 103.717C56.9852 108.974 55.2834 114.152 51.9174 118.202C48.5513 122.252 43.7722 124.872 38.5475 125.531V125.547Z" fill="white"/>
</svg>
