<svg width="210" height="210" viewBox="0 0 210 210" fill="none" xmlns="http://www.w3.org/2000/svg">
<path d="M48.7408 85.166C46.568 85.166 43.432 85.852 37.7607 87.7253V123.254C42.7471 124.869 46.568 125.813 48.7408 125.813C53.7492 125.813 56.5727 122.538 56.5727 117.284V93.6952C56.5727 88.4413 53.7492 85.166 48.7408 85.166ZM50.3728 116.371C50.3728 118.428 49.2173 119.112 47.8355 119.112C46.7602 119.112 45.1001 118.694 43.7463 118.298V92.6671C45.1001 92.2854 46.7602 91.8677 47.8355 91.8677C49.2173 91.8677 50.3728 92.5518 50.3728 94.608V116.371Z" fill="white"/>
<path d="M120.347 78.7698C114.005 78.4418 110.229 81.4346 110.229 88.2873V122.333C110.229 129.567 113.649 132.544 120.347 132.232C126.904 131.928 130.324 129.263 130.324 121.571V89.0729C130.324 81.7389 127.23 79.1278 120.347 78.7698ZM123.411 121.724C123.411 123.78 122.77 124.846 120.347 124.922C117.854 125 117.177 123.856 117.177 121.724V89.2777C117.177 87.1459 117.854 85.9647 120.347 86.0423C122.77 86.1178 123.411 87.2215 123.411 89.2777V121.724Z" fill="white"/>
<path d="M182 92.0576V118.876C189.781 114.925 194.249 110.333 194.249 105.413C194.249 100.547 189.781 95.9792 182 92.0576" fill="white"/>
<path d="M14.751 105.414C14.751 110.325 19.2127 114.925 26.9926 118.869V92.0659C19.2127 95.9795 14.751 100.547 14.751 105.414Z" fill="white"/>
<path d="M74.03 120.536C74.03 122.592 73.3672 123.895 70.9661 123.583C68.6071 123.278 67.9723 122.211 67.9723 119.775V81.1078C66.4063 81.2905 62.9139 81.8078 61.418 82.0365V121.145C61.418 127.389 64.2536 129.819 70.9661 130.64C77.108 131.394 80.8708 128.075 80.8708 121.145V79.8271C79.5892 79.9044 75.3838 80.2844 74.03 80.4377V120.536Z" fill="white"/>
<path d="M149.314 107.759L141.724 81.2981C139.657 81.0078 137.164 80.7114 135.24 80.5205V130.465C136.593 130.33 140.044 129.91 141.824 129.665L141.283 100.236L149.313 128.516C151.024 128.227 153.517 127.762 155.157 127.428V83.5432C153.447 83.1853 150.339 82.6225 148.843 82.3799L149.314 107.759Z" fill="white"/>
<path d="M95.735 79.0591C94.5455 79.0591 90.206 79.218 86.2148 79.4706V131.517C87.5686 131.592 91.1311 131.791 93.0555 131.845V114.17L95.735 114.164C102.904 114.142 105.882 110.708 105.882 104.098V88.7617C105.882 82.2907 102.534 79.0612 95.735 79.0612V79.0591ZM98.9691 103.549C98.9691 105.788 98.2362 106.924 95.4566 106.932L93.0555 106.937V86.4008C94.1249 86.3411 94.6937 86.3253 95.3365 86.3253C98.3423 86.3253 98.9691 87.5444 98.9691 89.8273V103.549Z" fill="white"/>
<path d="M158.542 91.2197C160.236 91.5438 161.904 91.9038 163.53 92.2856V125.494C165.026 125.12 167.805 124.344 169.658 123.757V93.8526C171.436 94.3458 173.112 94.839 174.646 95.3083V88.9049C169.808 87.0992 164.613 85.6296 158.542 84.2754V91.2197Z" fill="white"/>
</svg>
