<svg width="210" height="210" viewBox="0 0 210 210" fill="none" xmlns="http://www.w3.org/2000/svg">
<path fill-rule="evenodd" clip-rule="evenodd" d="M194.327 92.8994C194.327 94.1599 193.869 95.2599 192.975 96.1537C192.082 97.0475 191.005 97.5059 189.723 97.5059C188.463 97.5059 187.363 97.0475 186.47 96.1537C185.576 95.2599 185.118 94.1599 185.118 92.8994C185.118 91.6389 185.576 90.5389 186.47 89.6451C187.363 88.7513 188.463 88.293 189.723 88.293C190.982 88.293 192.082 88.7513 192.975 89.6451C193.892 90.5618 194.327 91.6389 194.327 92.8994ZM193.708 92.8994C193.708 91.7994 193.319 90.8597 192.54 90.0805C191.761 89.3013 190.822 88.8888 189.723 88.8888C188.623 88.8888 187.684 89.2784 186.905 90.0805C186.126 90.8597 185.737 91.7994 185.737 92.8994C185.737 93.9995 186.126 94.9391 186.905 95.7183C187.684 96.4975 188.623 96.91 189.723 96.91C190.822 96.91 191.761 96.5204 192.54 95.7183C193.319 94.9391 193.708 93.9995 193.708 92.8994ZM192.7 95.237H191.509L189.745 93.3578H188.875V95.237H188.004V90.3785H189.654C189.997 90.3785 190.272 90.4014 190.478 90.4243C190.685 90.4472 190.914 90.516 191.12 90.6306C191.349 90.7452 191.509 90.9056 191.601 91.066C191.715 91.2264 191.761 91.4556 191.761 91.7077C191.761 92.0515 191.67 92.3494 191.464 92.5786C191.257 92.8077 190.982 92.9911 190.639 93.1286L192.7 95.237ZM190.822 91.7764C190.822 91.6389 190.799 91.5244 190.753 91.4327C190.708 91.341 190.616 91.2493 190.501 91.1806C190.387 91.1118 190.272 91.0889 190.158 91.066C190.043 91.0431 189.883 91.0431 189.7 91.0431H188.898V92.6932H189.562C189.791 92.6932 189.975 92.6702 190.135 92.6473C190.295 92.6015 190.433 92.5556 190.524 92.464C190.639 92.3723 190.708 92.2806 190.753 92.166C190.799 92.0744 190.822 91.9369 190.822 91.7764Z" fill="white"/>
<path d="M15.2144 117.054L19.5897 92.0972H28.9588L26.8513 103.304L42.9323 92.0972H48.1781L33.7922 103.006L51.9807 122.967L39.8627 122.921L26.0724 107.452L24.194 117.054H15.2144Z" fill="white"/>
<path d="M49.2549 117.054L53.9738 92.0972H62.7244L58.3491 117.054H49.2549Z" fill="white"/>
<path d="M65.6104 100.279L66.2289 97.208H91.9768L88.3345 116.986H62.4263L64.7628 104.473H81.4165L82.2182 100.256H65.6104V100.279ZM79.813 112.861L80.8438 107.567H73.124L72.0474 112.861H79.813Z" fill="white"/>
<path d="M91.7479 117.055L95.5047 97.3455V97.2768H105.057L102.056 113.067L102.102 112.975H109.639L112.662 97.208H121.688L117.954 117.055H91.6792H91.7479Z" fill="white"/>
<path d="M154.995 117.055L158.912 97.208H185.095L183.217 106.879L166.426 106.833L166.518 106.879L165.372 112.838H181.98L181.247 117.055H154.995ZM174.65 103.35L175.337 99.6602H167.961L167.159 103.35H174.65Z" fill="white"/>
<path d="M121.504 117.077L125.88 92.1201H135.272L133.164 103.304L149.245 92.1201H154.468L140.105 103.029L158.271 122.99L146.176 122.921L132.362 107.452L130.484 117.077H121.504Z" fill="white"/>
</svg>
