<svg width="210" height="210" viewBox="0 0 210 210" fill="none" xmlns="http://www.w3.org/2000/svg">
<path d="M89.1656 119.943C89.1656 121.775 89.4796 122.982 90.0634 123.787C90.8257 124.77 91.9932 125.307 93.5191 125.307C95.2237 125.307 96.8395 124.815 98.3654 124.144C98.6794 124.011 98.9935 123.921 99.3076 123.921C100.43 123.921 101.507 124.86 101.507 126.021C101.507 126.871 101.148 127.631 100.34 128.033C98.1856 129.061 95.8973 129.553 93.5191 129.553C90.9156 129.553 88.6717 128.704 87.0115 127.049C85.3957 125.44 84.5435 123.205 84.5435 120.568V114.936C84.5435 112.343 85.3957 110.109 87.0115 108.5C88.6717 106.845 90.9156 105.996 93.5191 105.996C96.1658 105.996 98.4109 106.845 100.026 108.5C101.641 110.109 102.539 112.343 102.539 114.936V117.037C102.539 118.646 101.237 119.943 99.6228 119.943H89.1656ZM97.9171 115.696C97.9171 111.986 96.3912 110.242 93.5191 110.242C90.6915 110.242 89.1656 111.941 89.1656 115.696H97.9171Z" fill="white"/>
<path d="M114.241 121.596L109.483 128.569C109.035 129.195 108.317 129.553 107.599 129.553C106.387 129.553 105.265 128.524 105.265 127.228C105.265 126.781 105.401 126.335 105.669 125.932L111.549 117.663L105.805 109.616C105.535 109.214 105.401 108.767 105.401 108.32C105.401 107.113 106.433 105.996 107.734 105.996C108.451 105.996 109.169 106.353 109.619 106.98L114.241 113.729L118.863 106.98C119.312 106.309 120.075 105.996 120.793 105.996C122.049 105.996 123.082 107.024 123.082 108.32C123.082 108.767 122.947 109.214 122.678 109.616L116.934 117.663L122.813 125.932C123.127 126.335 123.261 126.781 123.261 127.228C123.261 128.48 122.184 129.553 120.883 129.553C120.165 129.553 119.447 129.24 118.998 128.569L114.241 121.596Z" fill="white"/>
<path d="M143.58 125.664C143.58 126.915 142.772 127.988 141.605 128.391C139.406 129.151 136.848 129.553 134.335 129.553C131.597 129.553 129.443 128.883 127.917 127.585C126.391 126.289 125.584 124.456 125.584 122.267C125.584 120.076 126.391 118.377 127.917 117.126C129.443 115.83 131.597 115.16 134.335 115.16H138.958V113.595C138.958 111.717 137.566 110.242 135.233 110.242C133.123 110.242 131.957 110.51 130.386 111.449C130.027 111.673 129.533 111.852 129.129 111.852C127.917 111.852 126.931 110.957 126.931 109.84C126.931 109.036 127.289 108.23 128.053 107.784C130.475 106.398 132.585 105.996 135.816 105.996C140.842 105.996 143.58 109.617 143.58 113.595V125.664ZM138.958 119.405H134.335C130.431 119.405 130.207 121.507 130.207 122.267C130.207 123.071 130.431 125.307 134.335 125.307C135.861 125.307 137.521 125.083 138.958 124.725V119.405Z" fill="white"/>
<path d="M162.103 114.578C162.103 111.851 160.487 110.242 157.705 110.242C156.224 110.242 154.743 110.466 153.352 110.823V127.227C153.352 128.525 152.32 129.553 151.063 129.553C149.762 129.553 148.729 128.525 148.729 127.227V109.885C148.729 108.633 149.492 107.561 150.704 107.158C152.903 106.398 155.281 105.995 157.705 105.995C160.353 105.995 162.597 106.845 164.213 108.499C165.827 110.107 166.725 112.343 166.725 114.935V127.227C166.725 128.525 165.693 129.553 164.391 129.553C163.09 129.553 162.103 128.525 162.103 127.227V114.578Z" fill="white"/>
<path d="M175.241 118.869C172.818 117.975 170.933 116.098 170.933 112.745C170.933 108.812 174.209 105.996 178.697 105.996C181.749 105.996 183.319 106.442 184.8 107.113C185.697 107.47 186.281 108.276 186.281 109.214C186.281 110.376 185.339 111.36 184.127 111.36C183.813 111.36 183.365 111.27 183.05 111.136C181.928 110.6 180.088 110.242 178.607 110.242C176.767 110.242 175.555 111.136 175.555 112.656C175.555 113.818 176.453 114.533 177.395 114.846L181.793 116.277C184.755 117.26 186.551 119.272 186.551 122.535C186.551 126.468 183.365 129.553 178.562 129.553C175.914 129.553 173.761 129.061 172.1 128.301C171.247 127.899 170.708 127.139 170.708 126.245C170.708 125.083 171.696 124.009 172.953 124.009C173.267 124.009 173.671 124.144 173.985 124.277C175.197 124.904 176.677 125.307 178.653 125.307C180.806 125.307 181.928 124.501 181.928 122.981C181.928 121.328 180.582 120.792 178.921 120.211L175.241 118.869Z" fill="white"/>
<path d="M94.3802 82.4308C94.3802 82.4308 91.7994 81.4468 88.3041 81.4468C81.9703 81.4468 78.638 84.8906 77.021 87.1051C75.4914 89.2004 74.5277 91.3828 73.8001 94.4025C73.1049 97.2876 72.9934 100.897 72.8735 103.773C72.5715 111.001 73.2511 123.722 70.1214 123.722C68.5127 123.722 67.4148 121.258 67.0444 120.315C66.8933 119.931 65.6695 116.392 64.1568 109.701C63.2146 105.533 60.9779 95.4912 60.327 93.2351C60.0273 92.1952 59.2698 89.4363 57.7954 87.0432C55.8643 83.9079 52.5692 82.3259 49.7103 82.3259C46.933 82.3259 44.3678 84.2319 43.4256 85.1563C40.5572 87.9711 39.621 92.0808 39.319 93.7128C38.9929 95.4746 38.5926 99.1566 38.5926 99.1566C38.0172 103.546 37.0547 111.151 36.8365 112.745C35.7146 120.949 33.3712 122.272 31.1128 123.004C30.5818 123.175 29.5654 123.255 29.2153 123.255C27.7458 123.255 26.5806 122.83 26.5806 122.83C26.4212 122.768 26.124 122.65 25.7775 122.65C25.5762 122.65 25.3844 122.689 25.207 122.766C24.7311 122.973 24.5153 123.257 24.441 123.389C23.5216 124.798 23.4497 126.309 23.4497 126.738C23.4497 127.773 24.085 128.121 24.2768 128.202C24.3319 128.226 25.6361 128.78 27.5588 129.076C33.3316 129.967 36.9456 126.582 37.9225 125.634C38.8431 124.74 40.4314 122.9 41.4778 119.304C42.1455 117.009 42.5338 114.759 42.8287 112.259C43.0505 110.373 44.5045 97.8856 44.8017 96.1369C45.1146 94.2977 45.5893 92.3869 46.5015 90.6394C47.1451 89.4053 48.2515 88.0831 49.8817 88.0831C50.5098 88.0831 51.0864 88.2737 51.5934 88.6489C53.1577 89.802 54.0903 92.5287 54.4019 93.7068C54.8191 95.2887 57.8038 107.794 58.276 109.972C61.4549 124.631 63.5982 127.174 66.5613 128.643C68.2574 129.483 71.5909 130.419 74.6128 128.045C78.0051 125.381 78.0938 120.183 78.3251 117.026C78.5612 113.774 78.5696 111.172 78.5864 110.005C78.7482 98.3942 78.8429 94.8182 81.9547 90.3404C83.6293 87.9306 87.0647 86.2272 92.7596 87.9854C92.8986 88.0283 93.2055 88.1021 93.4584 88.1021C94.5648 88.1021 95.0227 86.986 95.308 85.8758C95.5021 85.1253 96.038 82.9644 94.3802 82.4308Z" fill="white"/>
</svg>
