<svg width="210" height="210" viewBox="0 0 210 210" fill="none" xmlns="http://www.w3.org/2000/svg">
<path d="M18.3147 92.1878C17.5949 92.908 17.024 93.763 16.6347 94.704C16.2453 95.6449 16.0452 96.6533 16.0456 97.6716C16.0441 99.6187 16.7497 101.5 18.0311 102.966L15.1001 105.897L18.1256 108.828C16.7782 110.261 16.0334 112.157 16.0456 114.123C16.0452 115.141 16.2453 116.15 16.6347 117.091C17.024 118.032 17.5949 118.887 18.3147 119.607C19.035 120.327 19.89 120.898 20.8309 121.287C21.7718 121.676 22.7803 121.876 23.7985 121.876C25.7651 121.888 27.6609 121.143 29.0933 119.796L32.0243 122.727L34.9553 119.796C36.3876 121.143 38.2835 121.888 40.25 121.876C41.2683 121.876 42.2767 121.676 43.2176 121.287C44.1585 120.898 45.0135 120.327 45.7338 119.607V119.607C46.4536 118.887 47.0245 118.032 47.4138 117.091C47.8032 116.15 48.0034 115.141 48.0029 114.123C48.0151 112.157 47.2703 110.261 45.9229 108.828L48.8539 105.897L45.9229 102.872C46.5957 102.185 47.126 101.372 47.483 100.48C47.84 99.5872 48.0167 98.6328 48.0029 97.6716C48.0034 96.6533 47.8032 95.6449 47.4138 94.704C47.0245 93.763 46.4536 92.908 45.7338 92.1878V92.1878C45.0135 91.468 44.1585 90.8971 43.2176 90.5077C42.2767 90.1184 41.2683 89.9182 40.25 89.9186C38.3028 89.9172 36.4213 90.6227 34.9553 91.9041L32.0243 88.9731L29.0933 91.9041C27.6272 90.6227 25.7457 89.9172 23.7985 89.9186C22.7803 89.9182 21.7718 90.1184 20.8309 90.5077C19.89 90.8971 19.035 91.468 18.3147 92.1878ZM27.0132 117.716C26.1033 118.451 24.9684 118.852 23.7985 118.85C23.1718 118.867 22.548 118.758 21.9637 118.531C21.3793 118.303 20.846 117.962 20.3948 117.527C19.4898 116.625 18.9797 115.401 18.9766 114.123C18.9678 112.935 19.4067 111.787 20.2057 110.908L27.0132 117.716V117.716ZM19.3548 105.897L20.4894 104.668C21.526 105.153 22.6542 105.411 23.7985 105.425C24.8168 105.425 25.8252 105.225 26.7662 104.835C27.7071 104.446 28.5621 103.875 29.2824 103.155V103.155C30.0022 102.435 30.5731 101.58 30.9624 100.639C31.3518 99.6983 31.5519 98.6899 31.5515 97.6716C31.5829 96.5224 31.3226 95.3839 30.7951 94.3624L32.0243 93.1333L33.1588 94.3624C32.7037 95.4053 32.478 96.5339 32.497 97.6716C32.4966 98.6899 32.6967 99.6983 33.0861 100.639C33.4754 101.58 34.0463 102.435 34.7662 103.155V103.155C35.4864 103.875 36.3414 104.446 37.2823 104.835C38.2233 105.225 39.2317 105.425 40.25 105.425C41.3943 105.411 42.5225 105.153 43.5592 104.668L44.6937 105.897L43.5592 107.032C42.5162 106.577 41.3877 106.351 40.25 106.37C39.2317 106.37 38.2233 106.57 37.2823 106.959C36.3414 107.348 35.4864 107.919 34.7662 108.639C34.0463 109.359 33.4754 110.214 33.0861 111.155C32.6967 112.096 32.4966 113.105 32.497 114.123C32.478 115.261 32.7037 116.389 33.1588 117.432L32.0243 118.567L30.7951 117.338C31.3229 116.35 31.5836 115.242 31.5515 114.123C31.5519 113.105 31.3518 112.096 30.9624 111.155C30.5731 110.214 30.0022 109.359 29.2824 108.639C28.5621 107.919 27.7071 107.348 26.7662 106.959C25.8252 106.57 24.8168 106.37 23.7985 106.37C22.6608 106.351 21.5323 106.577 20.4894 107.032L19.3548 105.897V105.897ZM22.8531 109.396H23.7985C25.0762 109.399 26.3004 109.909 27.2023 110.814C28.1073 111.716 28.6174 112.94 28.6205 114.218C28.6205 114.501 28.526 114.785 28.526 115.163L22.8531 109.49V109.396ZM20.2057 100.792C19.8045 100.379 19.4893 99.8905 19.2783 99.3549C19.0673 98.8193 18.9648 98.2471 18.9766 97.6716C18.9797 96.3939 19.4898 95.1697 20.3948 94.2679V94.2679C21.2967 93.3628 22.5209 92.8528 23.7985 92.8496C24.9415 92.8382 26.05 93.2412 26.9186 93.9842L20.2057 100.792V100.792ZM27.2023 101.075C26.3004 101.98 25.0762 102.49 23.7985 102.494H22.8531L28.526 96.8207C28.526 97.1043 28.6205 97.3879 28.6205 97.7661C28.6174 99.0438 28.1073 100.268 27.2023 101.17V101.075ZM37.0353 93.9842C37.9452 93.2489 39.0801 92.8484 40.25 92.8496C41.5276 92.8528 42.7518 93.3628 43.6537 94.2679V94.2679C44.5587 95.1697 45.0688 96.3939 45.0719 97.6716C45.0487 98.8252 44.6126 99.9322 43.8428 100.792L37.0353 93.9842ZM41.1954 102.399H40.25C38.9723 102.396 37.7481 101.886 36.8462 100.981V100.981C35.9412 100.079 35.4311 98.8547 35.428 97.577C35.4125 97.2277 35.4443 96.8778 35.5225 96.537L41.1954 102.304V102.399ZM43.8428 110.908C44.6055 111.809 45.039 112.943 45.0719 114.123C45.0688 115.401 44.5587 116.625 43.6537 117.527V117.527C43.2025 117.962 42.6692 118.303 42.0848 118.531C41.5005 118.758 40.8767 118.867 40.25 118.85C39.0801 118.852 37.9452 118.451 37.0353 117.716L43.8428 110.908V110.908ZM35.5225 115.068C35.4444 114.76 35.4125 114.441 35.428 114.123C35.4311 112.845 35.9412 111.621 36.8462 110.719C37.7481 109.814 38.9723 109.304 40.25 109.301H41.1954L35.5225 114.974V115.068Z" fill="white"/>
<path fill-rule="evenodd" clip-rule="evenodd" d="M57.0796 120.836H63.6034V110.152H70.4109C77.8802 110.152 80.7167 105.425 80.7167 100.603C80.7167 95.7806 77.8802 91.0532 70.4109 91.0532H57.0796V120.836ZM63.6034 96.1588H68.709C71.7346 96.1588 74.3819 96.8207 74.3819 100.603C74.3819 104.385 71.7346 105.046 68.709 105.046H63.6034V96.1588V96.1588ZM101.801 111.476C102.274 104.857 98.6809 98.7116 91.4006 98.7116C84.1204 98.7116 80.3385 103.628 80.3385 110.057C80.3385 116.487 84.5932 121.403 91.4006 121.403C96.2226 121.403 99.8155 119.229 101.423 114.123H96.2226C95.8444 115.447 93.9535 116.959 91.5897 116.959C89.226 116.959 86.4841 115.258 86.295 111.476H101.801ZM86.295 107.694C86.3066 107.069 86.4446 106.453 86.7006 105.882C86.9566 105.312 87.3254 104.799 87.7847 104.375C88.2441 103.951 88.7845 103.625 89.3734 103.415C89.9623 103.205 90.5876 103.117 91.2115 103.155C94.048 103.155 95.3717 104.668 95.939 107.694H86.295ZM103.786 120.836H109.648V111.097C109.648 107.316 111.161 104.195 115.51 104.195L117.685 104.385V98.9007C117.262 98.7456 116.811 98.6812 116.361 98.7116C114.892 98.7054 113.454 99.1326 112.226 99.9399C110.998 100.747 110.036 101.899 109.459 103.25H109.365V99.2789H103.786V120.836ZM118.536 120.836H124.398V113.367L126.762 111.192L132.624 120.836H139.809L130.827 107.126L138.958 99.2789H131.867L124.398 107.032V91.0532H118.536V120.836ZM141.322 120.836H147.279V99.2789H141.322V120.836V120.836ZM147.279 91.0532H141.322V95.8752H147.279V91.0532V91.0532ZM149.926 120.836H155.883V109.49C155.883 105.141 157.206 103.345 160.421 103.345C163.636 103.345 164.203 105.046 164.203 108.639V120.836H170.159V107.505C170.159 102.21 168.552 98.7116 162.312 98.7116C161.003 98.6886 159.71 98.9973 158.553 99.609C157.395 100.221 156.412 101.116 155.694 102.21H155.599V99.2789H149.926V120.836ZM172.05 113.839C172.334 119.512 177.156 121.403 182.167 121.403C187.178 121.403 192 119.512 192 113.839C192 109.868 188.691 108.639 185.193 107.788C181.694 106.937 178.48 106.748 178.48 104.668C178.48 102.588 180.465 102.588 181.789 102.588C183.113 102.588 185.665 103.25 185.854 105.519H191.433C190.96 100.224 186.611 98.7116 181.978 98.7116C177.345 98.7116 172.523 100.035 172.523 105.614C172.523 109.396 175.927 110.625 179.425 111.381C182.923 112.138 186.138 112.894 186.138 114.69C186.138 116.487 183.964 117.432 182.262 117.432C180.56 117.432 177.723 116.392 177.723 113.839H172.05Z" fill="white"/>
</svg>
