<svg width="210" height="210" viewBox="0 0 210 210" fill="none" xmlns="http://www.w3.org/2000/svg">
<path fill-rule="evenodd" clip-rule="evenodd" d="M168 43H43V168H168V43ZM68.744 148.983L68.5654 150.457C68.5903 150.187 68.6071 149.917 68.6159 149.646C68.6151 149.093 68.4302 148.711 68.0834 148.458C67.7223 148.194 67.152 148.045 66.3339 148.045H63.842L62.4084 154.898L62.37 155.081L62.1829 155.081L56.0796 155.071L55.7974 155.07L55.8547 154.794L60.0446 134.618L60.0827 134.435H60.2698H70.5061L70.483 134.626H70.4833L70.5061 134.435C72.1787 134.321 73.8487 134.692 75.3157 135.504L75.3286 135.511L75.3405 135.52C76.0285 136.026 76.5739 136.701 76.9237 137.48C77.2716 138.255 77.4143 139.106 77.3382 139.952C77.3748 141.352 76.8986 142.718 75.9987 143.792L75.9959 143.795C75.2204 144.685 74.1966 145.313 73.0642 145.605C73.2577 145.712 73.4382 145.844 73.6015 145.996C73.9361 146.308 74.1876 146.699 74.3332 147.133L74.3355 147.14L74.3354 147.14C74.5837 147.967 74.693 148.83 74.6591 149.693V153.382C74.6875 153.85 74.7851 154.311 74.9488 154.751L75.0644 155.061H74.7333H68.7968H68.6293L68.5779 154.902C68.3653 154.242 68.2751 153.55 68.3119 152.858L68.7655 149.05C68.7617 149.037 68.7578 149.024 68.7538 149.012L68.744 148.983ZM68.5654 150.457L68.4714 151.233C68.5102 150.975 68.5415 150.717 68.5654 150.457ZM69.4631 143.192L69.4444 143.2L69.4767 142.933L69.495 142.924L69.4631 143.192ZM69.8551 139.901C69.9887 139.957 70.1024 140.025 70.1977 140.104C70.4795 140.338 70.6372 140.699 70.6371 141.23L70.6373 141.235C70.6437 141.502 70.5884 141.767 70.4757 142.009C70.3638 142.249 70.1981 142.461 69.9916 142.627C69.8342 142.741 69.668 142.841 69.495 142.924L69.8551 139.901ZM69.8446 139.896L69.8731 139.66L69.8833 139.664L69.8551 139.901L69.8446 139.896ZM69.8446 139.896C69.5734 139.785 69.2215 139.723 68.7772 139.723H65.5975L64.8423 143.247H67.8352H67.8425L67.8497 143.248C68.4133 143.283 68.9731 143.174 69.4767 142.933L69.8446 139.896ZM91.68 134.425L91.4925 134.424L91.4541 134.608L89.1384 145.677L89.1381 145.677L89.1364 145.688C88.9651 146.758 88.5892 147.786 88.0293 148.714C87.7682 149.132 87.4024 149.473 86.9683 149.705C86.5338 149.938 86.046 150.052 85.5534 150.038L85.535 150.037L85.5168 150.039C85.1401 150.089 84.7575 150.021 84.4203 149.846C84.0878 149.674 83.8152 149.405 83.638 149.075C83.4777 148.622 83.4073 148.142 83.4309 147.662C83.4792 147.014 83.5821 146.371 83.7386 145.74L83.7387 145.74L83.7405 145.732L86.0268 134.721L86.0843 134.444H85.8016H79.5806H79.3936L79.3554 134.628L76.6774 147.479C76.544 148.03 76.4665 148.594 76.4463 149.16L76.4462 149.161C76.4197 150.016 76.5906 150.865 76.9457 151.643C77.3008 152.42 77.8304 153.105 78.4934 153.645C80.08 154.937 82.3177 155.561 85.1933 155.561C88.0118 155.561 90.2828 154.944 91.9829 153.686C93.686 152.425 94.7901 150.541 95.3093 148.058L95.3094 148.057L98.0765 134.721L98.1337 134.445L97.852 134.444L91.68 134.425ZM112.068 134.8C111.277 134.516 110.437 134.399 109.599 134.454H99.5979H99.411L99.3727 134.637L95.1534 154.803L95.0953 155.081L95.3789 155.081L101.492 155.071L101.679 155.07L101.717 154.888L102.954 148.977H106.972C109.36 149.072 111.693 148.243 113.486 146.663C114.273 145.985 114.902 145.142 115.327 144.195C115.752 143.25 115.964 142.223 115.95 141.187C116.014 140.271 115.895 139.351 115.598 138.482C115.299 137.61 114.828 136.807 114.213 136.121L114.206 136.113L114.199 136.107C113.586 135.529 112.861 135.084 112.068 134.8ZM104.062 143.708L104.837 140.096H106.771C107.65 140.096 108.268 140.244 108.661 140.506C109.036 140.757 109.229 141.13 109.229 141.662C109.229 142.358 108.98 142.851 108.5 143.181C108.004 143.521 107.232 143.708 106.153 143.708H104.062ZM117.869 134.454H117.681L117.643 134.638L113.444 154.804L113.386 155.081H113.669H130.556H130.743L130.781 154.897L131.86 149.706L131.918 149.429H131.635H121.234L121.675 147.387H131.204H131.391L131.429 147.204L132.43 142.386L132.487 142.109H132.204H122.794L123.226 140.096H133.5H133.688L133.725 139.911L134.765 134.73L134.821 134.454H134.54H117.869ZM146.752 140.778H145.108C145.157 139.365 144.323 138.669 142.586 138.669C140.849 138.669 140.172 139.218 140.172 140.307C140.172 140.926 140.761 141.416 141.928 141.77L145.186 142.623C145.495 142.732 145.789 142.848 146.067 142.972L146.136 142.751C147.307 143.266 148.229 143.909 148.889 144.69C149.71 145.659 150.116 146.826 150.116 148.185C150.135 149.302 149.864 150.405 149.33 151.385C148.795 152.365 148.015 153.19 147.066 153.779C145.193 155.003 142.99 155.625 140.753 155.562C138.542 155.67 136.355 155.061 134.519 153.824L134.511 153.819L134.511 153.819C133.62 153.162 132.916 152.284 132.47 151.271C132.023 150.258 131.85 149.146 131.966 148.045L131.988 147.84H132.195H138.219H138.474L138.448 148.093C138.409 148.474 138.451 148.858 138.571 149.221C138.688 149.574 138.875 149.899 139.122 150.176C139.762 150.552 140.507 150.711 141.246 150.628L141.26 150.626L141.276 150.627C141.867 150.638 142.451 150.483 142.958 150.178L142.966 150.174L142.975 150.169C143.209 150.054 143.405 149.875 143.542 149.653C143.679 149.432 143.751 149.176 143.749 148.915L143.749 148.914C143.749 148.431 143.406 147.999 142.516 147.628C141.362 147.256 140.21 146.885 139.048 146.534C137.79 146.18 136.623 145.559 135.627 144.712L135.618 144.704L135.618 144.704C135.094 144.208 134.682 143.605 134.411 142.936C134.141 142.27 134.016 141.554 134.045 140.835C134.021 139.796 134.268 138.768 134.761 137.853C135.254 136.936 135.977 136.163 136.86 135.609C138.611 134.477 140.665 133.904 142.75 133.964C144.785 133.853 146.807 134.356 148.553 135.41L148.559 135.414L148.565 135.418C149.422 136.013 150.106 136.824 150.547 137.77C150.988 138.715 151.171 139.76 151.077 140.799L150.848 140.778V141.008H146.681L146.752 140.778ZM146.681 141.008L146.136 142.751C145.859 142.629 145.568 142.514 145.263 142.406L145.254 142.403L145.245 142.401L141.991 141.548C141.423 141.376 141.019 141.177 140.76 140.961C140.505 140.749 140.402 140.532 140.402 140.307C140.402 139.815 140.551 139.486 140.861 139.267C141.188 139.035 141.733 138.899 142.586 138.899C143.43 138.899 144.009 139.069 144.369 139.37C144.719 139.662 144.901 140.112 144.878 140.77L144.87 141.008H145.108H146.681ZM153.095 136.254V135.518H153.576L153.705 135.569C153.666 135.565 153.626 135.563 153.586 135.563H153.14V136.209H153.527C153.675 136.209 153.81 136.183 153.908 136.126C154.002 136.071 154.061 135.986 154.061 135.862C154.061 135.798 154.045 135.75 154.021 135.713C154.015 135.703 154.007 135.693 153.999 135.684L154.073 135.714C154.094 135.754 154.106 135.803 154.106 135.862C154.106 136.146 153.831 136.254 153.527 136.254H153.095ZM154.478 135.872C154.478 135.879 154.479 135.885 154.479 135.891C154.482 135.975 154.469 136.059 154.44 136.138C154.411 136.217 154.366 136.29 154.309 136.351C154.251 136.412 154.182 136.461 154.105 136.495C154.028 136.529 153.945 136.548 153.86 136.549L154.537 137.599H154.135L153.507 136.559H153.126L153.14 136.604V137.599V137.644H153.095H152.732H152.687V137.599V135.214V135.169L152.732 135.312V135.214H152.802L152.687 135.169H152.732H153.635C153.923 135.169 154.146 135.221 154.298 135.341C154.452 135.462 154.523 135.646 154.524 135.89L154.478 135.872ZM153.999 135.684C153.977 135.66 153.95 135.64 153.917 135.624C153.857 135.593 153.783 135.577 153.705 135.569L153.999 135.684ZM152.64 138.339C152.411 138.238 152.199 138.097 152.016 137.918C151.62 137.532 151.392 137.005 151.382 136.451L151.382 136.451C151.382 136.033 151.505 135.626 151.736 135.278C151.968 134.931 152.296 134.66 152.681 134.499C153.066 134.338 153.49 134.295 153.899 134.374C154.309 134.453 154.686 134.651 154.983 134.944C155.28 135.237 155.483 135.611 155.568 136.02C155.653 136.428 155.616 136.853 155.46 137.24C155.305 137.627 155.038 137.959 154.694 138.195C154.35 138.431 153.944 138.56 153.527 138.566L153.501 138.567L153.488 138.544L153.474 138.521C153.217 138.52 152.963 138.47 152.724 138.375C152.696 138.364 152.668 138.352 152.64 138.339ZM152.895 134.922C153.195 134.804 153.524 134.776 153.841 134.844C154.157 134.912 154.446 135.071 154.672 135.302C154.898 135.534 155.05 135.826 155.111 136.144C155.171 136.461 155.136 136.79 155.011 137.088C154.886 137.386 154.675 137.64 154.406 137.819C154.137 137.998 153.821 138.093 153.497 138.093H153.497C153.278 138.095 153.06 138.052 152.858 137.968C152.656 137.883 152.472 137.759 152.319 137.602C152.166 137.445 152.046 137.259 151.966 137.055C151.886 136.85 151.848 136.632 151.855 136.413L151.81 136.411L151.855 136.412C151.862 136.089 151.965 135.775 152.15 135.51C152.335 135.245 152.594 135.041 152.895 134.922Z" fill="white"/>
</svg>
