<svg width="210" height="210" viewBox="0 0 210 210" fill="none" xmlns="http://www.w3.org/2000/svg">
<path fill-rule="evenodd" clip-rule="evenodd" d="M62.4472 65.1841L30.103 83.9873V127.031L62.4472 145.834H147.521L179.979 127.031V83.9873L147.521 65.1841H62.4472ZM63.586 69.1486H146.496L175.993 86.2528V124.765L146.496 141.87H63.586L33.9752 124.765V86.2528L63.586 69.1486ZM58.8027 91.0102L55.8417 91.2368L53.7917 91.6899L52.0834 92.5961L50.4889 94.1819L49.4639 95.881L48.8945 97.6933L48.6667 99.3924L48.8945 101.205L49.6917 102.904L50.8306 104.603L52.425 105.962L59.9416 111.173L60.5111 111.513L61.1944 112.532L61.4222 113.551L61.3083 114.571L60.9666 115.364L60.1694 116.157L59.2583 116.383H57.8916L57.0944 116.157L56.2972 115.477L55.8417 114.458V113.212V111.513H48.6667V113.438L48.8945 115.364L49.5778 117.176L50.7167 118.989L51.0584 119.442L52.5389 120.461L53.7917 120.914L56.7528 121.367L58.8027 121.481L61.6499 121.254H61.8777L63.586 120.801L65.2943 119.895L67.0027 118.309L68.0277 116.61L68.4832 114.797L68.711 113.098L68.4832 111.286L67.7999 109.587L66.5471 107.888L64.9527 106.529L57.2083 101.318L56.8667 100.865L56.0694 99.8455L55.8417 98.8261V97.8066L56.2972 97.0137L57.0944 96.2208L58.0055 95.9942H59.3722L60.1694 96.2208L60.9666 96.9004L61.4222 97.9199L61.5361 99.1659V100.865H68.711V98.9393L68.4832 97.0137L67.9138 95.2013L66.661 93.389L66.2055 92.9359L64.9527 91.9164L63.6999 91.4633L60.8527 91.1235L58.8027 91.0102ZM70.0776 91.0102V96.9004H77.0248V121.367H84.1997V96.9004H91.033V91.0102H70.0776ZM97.5246 91.0102L89.0969 121.367H96.6135L98.094 115.477H106.294L107.661 121.367H115.291L106.749 91.0102H97.5246ZM118.024 91.0102V121.367H125.199V107.888H131.691V121.367H138.866V91.0102H131.691V102.338H125.199V91.0102H118.024ZM145.357 91.0102V121.367H161.985V115.59H152.532V91.0102H145.357ZM102.194 98.7128L104.927 110.04H99.4607L102.194 98.7128Z" fill="white"/>
</svg>
