<svg width="210" height="210" viewBox="0 0 210 210" fill="none" xmlns="http://www.w3.org/2000/svg">
<g clip-path="url(#clip0_770_981)">
<path fill-rule="evenodd" clip-rule="evenodd" d="M112.534 104.789L112.616 105.206L112.866 104.623C112.741 104.665 112.658 104.748 112.534 104.789Z" fill="white"/>
<path fill-rule="evenodd" clip-rule="evenodd" d="M112.534 104.789L112.616 105.206L112.866 104.623C112.741 104.665 112.658 104.748 112.534 104.789Z" fill="white"/>
<path fill-rule="evenodd" clip-rule="evenodd" d="M112.866 104.623L113.824 102.668L115.071 99.9637C114.655 99.6722 114.239 99.5059 113.824 99.2976C111.036 98.0912 108.29 98.7994 105.627 101.336L105.295 99.2564C102.298 101.254 99.3034 103.042 96.0591 104.665C95.9751 104.706 95.8507 104.748 95.7676 104.789L95.9751 106.87H96.0591C97.2654 106.496 98.0971 106.787 98.1382 108.368V120.682C98.1382 121.431 98.1382 122.097 98.0131 122.721C101.425 120.64 105.295 118.726 109.246 117.187V113.402C108.415 115.107 105.585 115.357 105.585 112.861V109.2C105.545 106.579 106.834 105.455 107.166 105.122C108.082 104.291 109.371 104.665 109.497 105.954C109.538 106.912 109.329 107.952 108.789 109.075L110.411 109.74L112.617 105.206L112.533 104.789C112.659 104.748 112.742 104.665 112.866 104.623Z" fill="white"/>
<path fill-rule="evenodd" clip-rule="evenodd" d="M81.4561 122.014L80.6656 122.513C79.7088 122.929 78.752 123.054 77.7944 122.804C73.2606 121.639 70.9303 118.56 70.1398 113.901C69.9315 112.736 69.8491 111.364 69.8491 110.031C69.8903 109.116 69.9735 108.16 70.1398 107.37C71.3461 101.753 76.0059 98.3823 81.4561 98.7997V104.374C78.9183 104.748 77.712 107.036 77.7944 110.531C77.8364 113.36 78.71 116.064 81.1235 116.689C81.2478 116.73 81.373 116.73 81.4561 116.772V122.014ZM81.6645 121.931L81.4561 122.014V116.772C81.7064 116.813 81.9971 116.855 82.2466 116.855C83.9108 116.855 84.9508 115.815 85.1171 113.943V107.286C84.9508 105.123 83.5781 104.207 81.83 104.332L81.4561 104.374V98.7997C83.4118 99.0072 85.4498 99.6314 87.4474 100.797C89.818 98.6326 92.8968 98.5082 96.0588 100.172C96.1831 100.214 96.2663 100.297 96.3502 100.339C96.2663 100.463 96.1831 100.588 96.0588 100.671C95.6009 101.17 95.1851 101.669 94.8936 102.21C93.8536 101.837 92.6893 102.21 92.6893 103.708V113.194C92.6893 115.399 95.3095 115.44 95.9756 113.734V117.188C92.0232 118.727 88.4454 120.558 85.0339 122.637L85.0751 119.892L81.6645 121.931Z" fill="white"/>
<path fill-rule="evenodd" clip-rule="evenodd" d="M55.1629 106.496L37.0656 96.1773C36.3995 93.1825 40.3939 90.0206 45.178 91.5596C48.7558 92.7667 49.38 95.3877 48.3812 99.5888L51.7514 101.545C52.6251 98.4656 53.8314 95.4708 55.1629 92.6004C55.6207 91.7259 56.0365 90.8942 56.4524 90.0206C56.0777 89.7291 55.6207 89.5216 55.1629 89.3133C48.5475 85.8606 41.1424 84.7787 34.9025 87.6491C28.7029 90.7279 26.2903 95.8447 27.3303 102.46L44.637 112.403C45.5519 112.861 45.5519 113.485 45.3444 114.026C44.138 117.312 38.1468 120.099 34.8185 115.315C33.6122 113.651 33.6542 111.072 33.9449 108.659L30.8249 106.912C29.4934 110.656 27.4135 114.566 25 118.685C31.1576 122.512 38.771 124.801 45.4687 122.929C50.1705 121.597 53.6651 118.477 55.1629 114.608C56.1609 112.195 56.3272 109.532 55.7039 106.745L55.1629 106.496Z" fill="white"/>
<path fill-rule="evenodd" clip-rule="evenodd" d="M65.7299 112.861V103.667L68.9338 103.625L70.1401 100.796L70.4308 100.13C70.3477 100.213 70.2233 100.255 70.1401 100.296C68.9338 100.879 68.2265 101.046 66.9362 100.879C66.312 100.796 65.7299 99.9637 65.7299 98.7994V93.4735C62.6931 95.9701 59.1565 98.9657 55.1629 101.295C54.7462 101.545 54.3304 101.753 53.9146 101.961L54.6219 103.292C54.705 103.459 54.9134 103.625 55.1629 103.667H55.204H58.324L58.2828 120.682C58.2828 121.431 58.2828 122.097 58.1577 122.721C61.6111 120.641 65.4804 118.726 69.4328 117.188V113.402C68.6423 115.107 65.7299 115.357 65.7299 112.861Z" fill="white"/>
<path fill-rule="evenodd" clip-rule="evenodd" d="M181.867 90.9734C180.915 90.9734 180.088 91.4498 179.585 92.1515C179.335 92.6028 179.161 93.0792 179.161 93.6307C179.161 94.1572 179.335 94.6586 179.585 95.0841C180.088 95.8116 180.915 96.288 181.867 96.288V96.7144C180.965 96.7144 180.163 96.3131 179.585 95.7107C179.085 95.1851 178.734 94.4333 178.734 93.6307C178.734 92.8031 179.085 92.0764 179.585 91.5507C180.163 90.9484 180.965 90.5471 181.867 90.5471V90.9734ZM181.867 90.9734V90.5471H181.967C183.622 90.5729 185 91.9763 185 93.6307C185 95.3102 183.622 96.6635 181.967 96.7144H181.892H181.867V96.288H181.892H181.967C183.397 96.2372 184.575 95.0599 184.575 93.6307C184.575 92.2024 183.397 91.0243 181.967 90.9734H181.892H181.867Z" fill="white"/>
<path fill-rule="evenodd" clip-rule="evenodd" d="M183.17 94.8342C183.221 94.9844 183.221 95.0595 183.346 95.1345V95.2104H182.819C182.769 95.0094 182.745 94.533 182.745 94.4078C182.745 94.1567 182.694 93.8321 182.192 93.8321H181.967V93.4559H182.143C182.442 93.4559 182.794 93.405 182.794 92.9044C182.794 92.428 182.418 92.4022 182.192 92.4022H181.967V92.0267H182.192C182.694 92.0267 183.246 92.2019 183.246 92.9044C183.246 93.3549 182.995 93.531 182.794 93.6311C182.945 93.7062 183.17 93.7813 183.17 94.2326V94.8342ZM181.967 92.0267H180.689V95.2104H181.114V93.8321H181.967V93.4559H181.114V92.4022H181.967V92.0267Z" fill="white"/>
<path fill-rule="evenodd" clip-rule="evenodd" d="M127.261 109.74L130.672 102.751L132.004 99.9637C131.547 99.673 131.089 99.4647 130.672 99.2572C127.885 98.0912 125.098 98.7994 122.435 101.336L122.061 99.2572C119.357 101.046 116.694 102.71 113.823 104.208C113.532 104.333 113.157 104.457 112.867 104.623L112.616 105.206L112.741 106.87C113.157 106.745 113.532 106.703 113.823 106.703C114.53 106.787 114.905 107.286 114.905 108.368V120.682C114.905 121.431 114.905 122.097 114.78 122.721C118.275 120.641 122.102 118.727 126.096 117.188V113.402C125.264 115.107 122.394 115.357 122.394 112.861V109.2C122.352 106.579 123.6 105.455 124.016 105.122C124.931 104.291 126.221 104.665 126.346 105.955C126.429 106.912 126.18 107.952 125.68 109.075L127.261 109.74Z" fill="white"/>
<path fill-rule="evenodd" clip-rule="evenodd" d="M179.764 103.625V103.5L181.178 100.13C180.637 100.422 180.18 100.588 179.764 100.754C179.139 100.963 178.515 101.004 177.726 100.879C177.059 100.796 176.519 99.9637 176.477 98.7994L176.519 93.4735C173.898 95.5534 170.819 98.0912 167.574 100.172C166.201 100.837 165.452 101.087 164.121 100.879C163.497 100.796 162.915 99.9637 162.915 98.7994V93.4735C159.877 95.9281 156.466 98.8825 152.514 101.17C152.057 101.462 151.557 101.753 151.058 101.961L151.765 103.292C151.848 103.458 152.057 103.667 152.431 103.667H152.514H155.468V120.682C155.468 121.431 155.426 122.097 155.342 122.721C158.754 120.641 162.622 118.726 166.576 117.187V113.402C165.827 115.107 162.915 115.357 162.915 112.861V103.667H169.071V120.682C169.071 121.431 168.988 122.097 168.905 122.721C172.234 120.724 175.935 118.893 179.764 117.312C179.888 117.27 180.054 117.229 180.18 117.187V113.402C180.138 113.61 179.93 113.818 179.764 114.026C178.682 115.149 176.519 115.024 176.519 112.861V103.667L179.764 103.625Z" fill="white"/>
<path fill-rule="evenodd" clip-rule="evenodd" d="M140.449 98.5081C135.956 98.8408 132.461 101.587 130.672 105.29C129.757 107.036 129.341 109.033 129.258 110.989C129.258 112.986 129.757 114.899 130.672 116.563C132.503 120.099 136.123 122.596 140.449 122.804V116.231C139.659 115.732 139.076 115.024 138.577 114.15L140.449 113.443V109.2L137.038 110.406C135.582 107.66 137.246 103.833 140.199 103.791H140.449V98.5081ZM140.449 113.443V109.2L144.401 107.785C143.778 105.539 142.488 103.958 140.449 103.791V98.5081H141.281C146.69 98.5081 151.058 102.335 152.514 107.411C152.639 107.91 152.763 108.369 152.846 108.784L152.514 108.909L140.449 113.443ZM140.449 122.804H141.073C145.192 122.887 149.727 120.932 152.514 117.812C153.097 117.229 153.596 116.563 153.97 115.815L152.514 113.86L151.474 112.487C150.018 114.609 147.812 116.397 144.318 117.105C142.654 117.188 141.447 116.897 140.449 116.231V122.804Z" fill="white"/>
</g>
<defs>
<clipPath id="clip0_770_981">
<rect width="160" height="37.5941" fill="white" transform="translate(25 86)"/>
</clipPath>
</defs>
</svg>
