<svg width="82" height="45" fill="none" xmlns="http://www.w3.org/2000/svg"><path d="M64.536 1.27l-5.85 24.842-5.865-24.843H35.878v9.174C33.82 2.415 26.268.402 19.518.288 11.29.175 2.174 3.898 1.858 15.258h11.38c0-3.43 3.008-5.394 5.847-5.344 3.487-.03 5.091 1.524 5.172 3.943-.12 2.1-1.306 3.56-5.143 3.56h-3.827v8.244h3.474c1.974 0 4.72 1.122 4.828 4.056.133 3.498-2.197 5.035-5.064 5.065-5.117-.198-6.438-4.303-6.438-7.833H.273c.05 2.378-.024 17.878 18.49 17.764 8.868.084 15.323-3.809 17.144-9.175v8.226H47.3V16.962l6.3 26.802h10.18l6.322-26.772v26.795h11.625V1.27h-17.19zm-28.62 24.783c-1.451-3.133-3.494-4.503-4.643-4.937 2.412-1.12 3.675-2.64 4.643-5.667v10.604z" fill="#fff"/></svg>