<svg width="331" height="667" fill="none" xmlns="http://www.w3.org/2000/svg"><g opacity=".2" stroke="#1B1B1E"><path d="M209.6 665.922l70.583-147.632c-69.381-27.801-118.373-95.651-118.373-174.962 0-52.016 21.079-99.106 55.158-133.199 17.967-17.975 39.548-32.338 63.558-41.905L210.258 21.235 138.86 61.713l30.677 54.114a292.104 292.104 0 00-22.75 20.117 292.183 292.183 0 00-23.48 25.984L70.009 130.75l-43.94 75.119 53.626 31.364c-7.984 20.346-13.721 41.808-16.955 64.086H1v87.023h62.155a288.292 288.292 0 0016.197 60.238l-53.656 30.419 42.91 75.705 54.114-30.677a291.292 291.292 0 0044.9 45.257l-31.464 53.127 73.444 43.511z"/><path d="M350.222 52.8c-26.614 0-52.383 3.605-76.879 10.315l45.172 94.463a189.952 189.952 0 0131.707-2.675c104.064 0 188.425 84.361 188.425 188.425 0 52.018-21.079 99.113-55.161 133.209-34.1 34.115-81.218 55.217-133.264 55.217-10.932 0-21.649-.945-32.08-2.733l-45.156 94.449c24.596 6.767 50.479 10.402 77.236 10.402 80.211 0 152.829-32.502 205.403-85.054 52.603-52.581 85.14-125.234 85.14-205.49 0-160.467-130.091-290.529-290.543-290.529z"/><path d="M293.578 42.88c24.495-6.71 50.265-10.316 76.878-10.316L350.221 52.8c-26.613 0-52.382 3.606-76.878 10.317l20.235-20.235z" stroke-linejoin="round"/><path d="M338.749 137.343L293.578 42.88l-20.235 20.235 45.171 94.463 20.235-20.235zm31.708-2.675c-10.803 0-21.391.93-31.707 2.675l-20.235 20.235a189.952 189.952 0 0131.707-2.675l20.235-20.235zM230.494 1l70.268 146.989-20.235 20.235-70.268-146.99L230.494 1z" stroke-linejoin="round"/><path d="M159.095 41.478L230.493 1l-20.234 20.235-71.399 40.478 20.235-20.235z" stroke-linejoin="round"/><path d="M189.772 95.592l-30.677-54.114-20.235 20.235 30.677 54.114 20.235-20.235zm47.431 94.301c17.967-17.974 39.547-32.337 63.558-41.904l-20.235 20.235c-24.011 9.567-45.591 23.93-63.558 41.904l20.235-20.235z" stroke-linejoin="round"/><path d="M173.231 109.791a292.104 292.104 0 0116.54-14.199l-20.235 20.235a292.455 292.455 0 00-16.54 14.199l20.235-20.235z" stroke-linejoin="round"/><path d="M167.022 115.709a291.429 291.429 0 016.21-5.918l-20.235 20.235a291.429 291.429 0 00-6.21 5.918l20.235-20.235z" stroke-linejoin="round"/><path d="M167.022 115.708a292.056 292.056 0 00-23.48 25.985l-20.235 20.235a292.056 292.056 0 0123.48-25.985l20.235-20.235z" stroke-linejoin="round"/><path d="M90.244 110.516l53.298 31.177-20.235 20.235-53.298-31.177 20.235-20.235zm146.959 79.377c-34.079 34.094-55.158 81.184-55.158 133.2l-20.234 20.235c0-52.016 21.078-99.106 55.157-133.2l20.235-20.235z" stroke-linejoin="round"/><path d="M46.303 185.634l43.94-75.118-20.234 20.235-43.94 75.118 20.234-20.235z" stroke-linejoin="round"/><path d="M99.93 216.997l-53.627-31.363-20.235 20.235 53.628 31.363 20.235-20.235zm238.448 291.789a189.738 189.738 0 0032.079 2.733l-20.235 20.235c-10.932 0-21.649-.945-32.079-2.733l20.235-20.235z" stroke-linejoin="round"/><path d="M82.975 281.084c3.234-22.278 8.971-43.741 16.956-64.087l-20.236 20.235c-7.983 20.346-13.721 41.809-16.955 64.087l20.235-20.235zm99.07 42.009c0 79.311 48.992 147.16 118.373 174.961l-20.235 20.235c-69.381-27.801-118.372-95.65-118.372-174.961l20.234-20.235z" stroke-linejoin="round"/><path d="M21.235 281.084h61.74L62.74 301.319H1l20.235-20.235zM293.22 603.235l45.157-94.449-20.235 20.235-45.157 94.449 20.235-20.235z" stroke-linejoin="round"/><path d="M370.456 613.636c-26.756 0-52.64-3.634-77.236-10.402l-20.235 20.235c24.596 6.768 50.48 10.402 77.236 10.402l20.235-20.235zM21.235 368.107v-87.023L1 301.319v87.023l20.235-20.235zm78.352 60.237a288.29 288.29 0 01-16.197-60.237l-20.235 20.235a288.283 288.283 0 0016.197 60.237l20.235-20.235zm200.831 69.71l-70.582 147.633-20.235 20.235 70.582-147.633 20.235-20.235z" stroke-linejoin="round"/><path d="M83.39 368.107H21.235L1 388.342h62.155l20.235-20.235zm104.465 180.942a291.33 291.33 0 01-44.899-45.257l-20.235 20.235a291.33 291.33 0 0044.899 45.257l20.235-20.235zM45.931 458.764l53.656-30.42-20.235 20.235-53.656 30.42 20.235-20.235zm97.024 45.028l-54.114 30.677-20.235 20.235 54.114-30.677 20.235-20.235z" stroke-linejoin="round"/><path d="M156.39 602.176l31.464-53.127-20.235 20.235-31.464 53.127 20.235-20.235zm-67.548-67.707l-42.91-75.705-20.236 20.235 42.91 75.705 20.236-20.235z" stroke-linejoin="round"/><path d="M229.834 645.687l-73.444-43.512-20.235 20.235 73.445 43.512 20.234-20.235z" stroke-linejoin="round"/><path d="M229.834 645.687l70.583-147.632c-69.381-27.801-118.372-95.651-118.372-174.962 0-79.439 49.163-147.389 118.715-175.104L230.493 1l-71.399 40.478 30.677 54.114a292.292 292.292 0 00-46.23 46.101l-53.298-31.177-43.94 75.118 53.627 31.364c-7.984 20.346-13.722 41.808-16.956 64.086h-61.74v87.023H83.39a288.282 288.282 0 0016.197 60.238L45.93 458.764l42.91 75.705 54.115-30.677a291.242 291.242 0 0044.899 45.257l-31.464 53.127 73.444 43.511z"/><path d="M370.456 32.564c-26.614 0-52.383 3.606-76.879 10.316l45.172 94.463a189.952 189.952 0 0131.707-2.675c104.064 0 188.425 84.361 188.425 188.425 0 104.064-84.361 188.425-188.425 188.425-10.932 0-21.649-.944-32.079-2.732l-45.157 94.448c24.596 6.768 50.479 10.402 77.236 10.402 160.467 0 290.543-130.076 290.543-290.543S530.908 32.564 370.456 32.564z"/></g></svg>