<svg width="136" height="31" fill="none" xmlns="http://www.w3.org/2000/svg"><g clip-path="url(#clip0_140_157)" fill-rule="evenodd" clip-rule="evenodd" fill="#fff"><path d="M16.518 21.219c0-1.703-1.261-2.882-3.91-2.882H7.302v5.808h5.436c2.216 0 3.78-.786 3.78-2.926zm-.954-11.526c0-1.66-1.133-2.795-2.826-2.795H7.302V12.4h5.306c1.91 0 2.956-1.397 2.956-2.707zm8.866 12.355c0 4.979-4.606 8.253-9.26 8.253H0V.741h13.909c5.349 0 9.216 2.661 9.216 8.121 0 4.673-4.083 6.07-4.083 6.07 0 .044 5.388 1.266 5.388 7.116zM47.138 15.5c0-4.629-2.13-8.384-6.343-8.384-4.217 0-6.304 3.755-6.304 8.384 0 4.672 2.087 8.426 6.304 8.426 4.212 0 6.343-3.754 6.343-8.426zm7.302 0c0 8.689-5 15.5-13.645 15.5-8.607 0-13.65-6.811-13.65-15.5C27.145 6.854 32.188 0 40.79 0c8.65 0 13.65 6.854 13.65 15.5zm25.49 5.85c0 6.506-5.911 9.65-11.472 9.65-6.433 0-9.74-2.445-12.344-5.545l4.735-4.63c2 2.534 4.61 3.8 7.523 3.8 2.39 0 3.996-1.179 3.996-2.926 0-1.877-1.42-2.462-5.306-3.275l-1.041-.217c-4.678-.979-8.52-3.624-8.52-8.907 0-5.807 4.74-9.3 11-9.3 5.302 0 8.737 2.27 10.824 4.626l-4.61 4.543c-1.435-1.529-3.61-2.751-6.085-2.751-1.694 0-3.608.786-3.608 2.75 0 1.79 1.991 2.44 4.52 2.97l1.045.219c4.232.884 9.342 2.183 9.342 8.993zm28.229 3.231C105.117 28.948 102.291 31 96.424 31c-8.343 0-13.736-6.899-13.736-15.675 0-8.34 4.87-15.282 13.822-15.282 4.913 0 8.434 1.921 11.433 6.419l-5.997 3.973c-1.219-2.096-2.783-3.319-5.393-3.319-3.3 0-6.477 2.942-6.477 8.21 0 5.902 3.436 8.6 6.698 8.6 2.821 0 4.126-1.397 5.345-3.406l6.04 4.061zM136 30.301h-7.825V18.643h-9v11.658h-7.778V.741h7.778v10.872h9V.741H136V30.3z"/></g><defs><clipPath id="clip0_140_157"><path fill="#fff" d="M0 0h136v31H0z"/></clipPath></defs></svg>