<svg width="190" height="53" fill="none" xmlns="http://www.w3.org/2000/svg"><path d="M74.293 23.504c-3.962 0-6.293-2.828-6.293-6.577 0-3.748 2.388-6.692 6.207-6.692a7.645 7.645 0 014.012.983l.259-3.12a12.172 12.172 0 00-4.185-.773c-6.293 0-10.177 3.556-10.177 9.865 0 6.236 4.168 9.229 10.177 9.229a18.454 18.454 0 004.218-.584l-.16-3.095c-.88.452-2.602.764-4.058.764zM88.84 12.155a5.11 5.11 0 00-4.303 2.166h-.05V6.25h-3.555V26.1h3.555v-6.67c0-1.748.555-4.522 3.132-4.522 2.282 0 2.31 2.248 2.31 3.913v7.284h3.556v-8.604c-.008-3.078-1.418-5.347-4.645-5.347zm11.444-5.561H96.72v3.39h3.564v-3.39zm0 5.878H96.72v13.63h3.564v-13.63zm12.134 10.559a7.534 7.534 0 01-2.733.638c-2.491 0-3.7-1.928-3.7-4.448 0-2.52 1.406-4.312 3.614-4.312.833-.02 1.66.152 2.417.502l.316-2.808a11.748 11.748 0 00-3.445-.444c-4.283 0-6.617 3.124-6.617 7.062 0 4.152 2.256 7.198 6.741 7.198a11.781 11.781 0 003.559-.448l-.152-2.94zm14.021.021a89.976 89.976 0 01-.053-3.408V17.89c0-4.012-1.731-5.755-5.899-5.755a12.21 12.21 0 00-4.751 1.028l.106 3.042a7.188 7.188 0 014.238-1.455c2.101 0 3.087.744 3.087 2.934h-1.977c-1.484 0-3.231.136-4.587.79-1.357.653-2.335 1.854-2.335 3.892 0 2.598 2.36 4.05 4.776 4.05 1.616 0 3.404-.843 4.222-2.36h.053c.009.688.061 1.374.157 2.055h3.14a44.08 44.08 0 01-.177-3.058zm-4.036-.432a3.043 3.043 0 01-2.495 1.233c-1.27 0-2.253-.505-2.253-1.673 0-2.088 2.355-2.35 3.959-2.35h1.537c.063.986-.2 1.967-.748 2.79zm11.822 3.482c1.989 0 3.588-1.01 4.25-2.174h.058c0 2.351-.185 5.286-4.111 5.286-1.11 0-2.877-.596-3.979-1.188l-.288 3.017c1.496.626 3.102.942 4.723.93 5.755 0 7.227-3.49 7.227-7.198V12.472h-3.404v1.85h-.053c-.983-1.558-2.389-2.167-4.193-2.167-4.086 0-5.792 3.786-5.792 7.062-.016 3.65 1.525 6.885 5.562 6.885zm1.323-11.197c2.08 0 2.985 1.908 2.985 4.23 0 2.322-.905 4.21-3.141 4.21-2.055 0-3.021-2.278-3.021-4.111 0-2.1.764-4.329 3.177-4.329zm23.101 4.468c0-4.493-3.107-7.218-7.164-7.218-4.057 0-7.152 2.726-7.152 7.218 0 3.918 2.626 7.042 7.144 7.042 4.517 0 7.172-3.124 7.172-7.042zm-10.592-.41c0-2.056 1.118-4.054 3.428-4.054 2.31 0 3.444 1.957 3.444 4.053 0 2.27-.707 4.707-3.444 4.707-2.738 0-3.428-2.462-3.428-4.71v.003zM70.212 29.76h-4.699v18.47h3.7v-6.99h1.562c3.983 0 7.144-1.566 7.144-5.878.016-4.435-3.663-5.603-7.707-5.603zm.316 8.554h-1.299v-5.64h1.299c1.915 0 3.54.749 3.54 2.878 0 2.13-1.67 2.762-3.54 2.762zm17.264-4.024c-1.85 0-3.37.604-4.484 2.17h-.054v-1.854h-3.366V48.23h3.555v-6.667c0-1.743.555-4.522 3.133-4.522 2.28 0 2.31 2.252 2.31 3.921v7.268h3.551v-8.6c0-3.062-1.402-5.339-4.645-5.339zm13.38 0c-4.246 0-6.347 3.256-6.347 7.193 0 4.477 2.63 7.066 7.144 7.066a9.37 9.37 0 004.694-1.08V44.59a9.203 9.203 0 01-4.521 1.381c-2.2 0-3.745-1.233-3.897-3.436h9.454c-.028-4.78-1.459-8.246-6.527-8.246zm-2.943 5.796c.152-1.833 1.163-3.202 3.161-3.202 1.997 0 2.778 1.48 2.877 3.202h-6.038zm20.137 1.188c0 1.75-.563 4.521-3.144 4.521-2.278 0-2.302-2.248-2.302-3.913v-7.276h-3.564v8.6c0 3.07 1.41 5.343 4.653 5.343a5.697 5.697 0 004.485-2.166h.049v1.846h3.375V34.606h-3.552v6.668zm22.941-6.984c-1.669 0-3.449.765-4.275 2.405-.765-1.69-2.125-2.405-4.028-2.405a4.847 4.847 0 00-4.07 2.224h-.057v-1.908h-3.317V48.23h3.563v-6.61c0-1.772.292-4.579 2.656-4.579 2.055 0 2.055 1.8 2.055 3.075v8.114h3.556v-6.61c0-1.772.291-4.579 2.655-4.579 2.055 0 2.055 1.8 2.055 3.075v8.114h3.56v-8.6c-.021-3.033-.974-5.339-4.353-5.339zm19.291 7.49v-1.747c0-4.02-1.722-5.755-5.899-5.755a12.252 12.252 0 00-4.751 1.036l.111 3.037a7.194 7.194 0 014.221-1.48c2.096 0 3.079.745 3.079 2.935h-1.965c-1.484 0-3.239.132-4.591.794-1.353.662-2.335 1.854-2.335 3.884 0 2.602 2.359 4.053 4.78 4.053 1.616 0 3.396-.822 4.214-2.347h.057c.013.678.068 1.355.165 2.027h3.124a64.424 64.424 0 01-.157-3.038c-.024-1.032-.053-2.03-.053-3.4zm-3.983 2.96a3.007 3.007 0 01-2.495 1.232c-1.27 0-2.261-.501-2.261-1.669 0-2.092 2.363-2.359 3.954-2.359h1.546c0 1.052-.16 2.022-.744 2.795zm13.293 1.06c-1.356 0-1.673-1.086-1.673-2.25v-6.346h3.157v-2.598h-3.157v-3.868l-3.555 1.143v2.725h-2.631v2.598h2.631v6.93c0 2.697 1.537 4.415 4.32 4.415a9.174 9.174 0 002.63-.32l-.106-2.8a3.208 3.208 0 01-1.616.37zm7.399-11.194h-3.564V48.23h3.564V34.606zm0-5.68h-3.564v3.387h3.564v-3.387zm12.529 16.236c-.863.383-1.791.6-2.734.637-2.495 0-3.699-1.932-3.699-4.443 0-2.512 1.405-4.316 3.613-4.316.83-.023 1.654.15 2.404.505l.325-2.807a11.734 11.734 0 00-3.453-.448c-4.275 0-6.609 3.12-6.609 7.066 0 4.151 2.26 7.193 6.741 7.193 1.208.04 2.414-.11 3.576-.444l-.164-2.943zM18.07 12.344s-8.151 2.943-7.564 11.427c0 0-.332 9.54 11.136 11.35v-5.513s-5.656-.933-5.558-7.177c0 0 .539-5.343 7.14-5.689h4.431v-5.261s-5.742-.93-9.585.863z" fill="#fff"/><path d="M26.093.863a25.933 25.933 0 100 51.867 25.933 25.933 0 000-51.867zm2.615 46.548V25.695c7.423-.522 7.078 4.521 7.078 4.521.284 5.163-5.282 5.726-5.282 5.726v4.826c6.375-.107 9.232-4.3 9.232-4.3 4.14-7.859-1.508-13.272-1.508-13.272-5.788-5.266-15.086-2.158-15.086-2.158v26.307a20.767 20.767 0 115.566.05v.016z" fill="#fff"/></svg>