<svg width="48" height="48" fill="none" xmlns="http://www.w3.org/2000/svg"><path d="M22 2v4.117C13.677 7.045 7.045 13.677 6.117 22H2v4h4.117c.928 8.323 7.56 14.955 15.883 15.883V46h4v-4.117c8.323-.928 14.955-7.56 15.883-15.883H46v-4h-4.117C40.955 13.677 34.323 7.045 26 6.117V2h-4zm0 8.156v4.047A10.063 10.063 0 0014.203 22h-4.047A13.947 13.947 0 0122 10.156zm4 0c6.144.875 10.97 5.7 11.844 11.844h-4.047A10.063 10.063 0 0026 14.203v-4.047zM24 18c3.337 0 6 2.663 6 6s-2.663 6-6 6a5.97 5.97 0 01-6-6c0-3.337 2.663-6 6-6zm0 4a2 2 0 100 4 2 2 0 000-4zm-13.844 4h4.047A10.063 10.063 0 0022 33.797v4.047A13.947 13.947 0 0110.156 26zm23.64 0h4.048A13.947 13.947 0 0126 37.844v-4.047A10.063 10.063 0 0033.797 26z" fill="#1B1B1E"/></svg>