<svg width="384" height="440" fill="none" xmlns="http://www.w3.org/2000/svg"><path d="M59 3v8h-8v2h8v8h2v-8h8v-2h-8V3h-2zm0 104v8h-8v2h8v8h2v-8h8v-2h-8v-8h-2zm0 104v8h-8v2h8v8h2v-8h8v-2h-8v-8h-2zm0 104v8h-8v2h8v8h2v-8h8v-2h-8v-8h-2zm0 104v8h-8v2h8v8h2v-8h8v-2h-8v-8h-2zM163 3v8h-8v2h8v8h2v-8h8v-2h-8V3h-2zm0 104v8h-8v2h8v8h2v-8h8v-2h-8v-8h-2zm0 104v8h-8v2h8v8h2v-8h8v-2h-8v-8h-2zm0 104v8h-8v2h8v8h2v-8h8v-2h-8v-8h-2zm0 104v8h-8v2h8v8h2v-8h8v-2h-8v-8h-2zM267 3v8h-8v2h8v8h2v-8h8v-2h-8V3h-2zm0 104v8h-8v2h8v8h2v-8h8v-2h-8v-8h-2zm0 104v8h-8v2h8v8h2v-8h8v-2h-8v-8h-2zm0 104v8h-8v2h8v8h2v-8h8v-2h-8v-8h-2zm0 104v8h-8v2h8v8h2v-8h8v-2h-8v-8h-2zM371 3v8h-8v2h8v8h2v-8h8v-2h-8V3h-2zm0 104v8h-8v2h8v8h2v-8h8v-2h-8v-8h-2zm0 104v8h-8v2h8v8h2v-8h8v-2h-8v-8h-2zm0 104v8h-8v2h8v8h2v-8h8v-2h-8v-8h-2zm0 104v8h-8v2h8v8h2v-8h8v-2h-8v-8h-2z" opacity=".1" fill="#1B1B1E"/></svg>