<svg width="190" height="190" fill="none" xmlns="http://www.w3.org/2000/svg"><g clip-path="url(#clip0_140_179)"><path d="M123.718 110.176h-9.778v19.095h9.861v-8.615l11.641 8.615h9.855v-19.095h-9.863v8.692l-11.716-8.692zM94.511 59.892c-34.63 0-62.701 28.072-62.701 62.701 0 2.257.12 4.483.351 6.679h6.566a56.713 56.713 0 01-.392-6.679c0-31.025 25.151-56.176 56.176-56.176 31.025 0 56.176 25.151 56.176 56.176 0 2.26-.133 4.489-.392 6.679h6.566c.234-2.219.352-4.448.351-6.679-.001-34.629-28.073-62.7-62.701-62.7zm5.262 50.284H89.288L76.86 129.271h10.178l1.381-2.136h12.221l1.382 2.136H112.2l-12.428-19.095zM97.39 122.06h-5.719l2.86-4.419 2.86 4.419zm-44.594-11.884h-9.25v19.095h9.863v-7.551l5.891 5.891 5.891-5.891v7.551h9.863v-19.095h-9.25L59.3 116.68l-6.504-6.504z" fill="#fff"/></g><defs><clipPath id="clip0_140_179"><path fill="#fff" d="M0 0h190v190H0z"/></clipPath></defs></svg>