<svg width="435" height="549" fill="none" xmlns="http://www.w3.org/2000/svg"><path d="M13.72 3.742v9.977H3.741v2.495h9.977v9.978h2.495v-9.978h9.978v-2.495h-9.978V3.742h-2.495zm0 129.709v9.978H3.741v2.494h9.977v9.978h2.495v-9.978h9.978v-2.494h-9.978v-9.978h-2.495zm0 129.71v9.978H3.741v2.494h9.977v9.978h2.495v-9.978h9.978v-2.494h-9.978v-9.978h-2.495zm0 129.71v9.978H3.741v2.494h9.977v9.978h2.495v-9.978h9.978v-2.494h-9.978v-9.978h-2.495zm0 129.71v9.977H3.741v2.495h9.977v9.977h2.495v-9.977h9.978v-2.495h-9.978v-9.977h-2.495zM143.429 3.742v9.977h-9.977v2.495h9.977v9.978h2.495v-9.978h9.977v-2.495h-9.977V3.742h-2.495zm0 129.709v9.978h-9.977v2.494h9.977v9.978h2.495v-9.978h9.977v-2.494h-9.977v-9.978h-2.495zm0 129.71v9.978h-9.977v2.494h9.977v9.978h2.495v-9.978h9.977v-2.494h-9.977v-9.978h-2.495zm0 129.71v9.978h-9.977v2.494h9.977v9.978h2.495v-9.978h9.977v-2.494h-9.977v-9.978h-2.495zm0 129.71v9.977h-9.977v2.495h9.977v9.977h2.495v-9.977h9.977v-2.495h-9.977v-9.977h-2.495zM273.139 3.742v9.977h-9.978v2.495h9.978v9.978h2.494v-9.978h9.978v-2.495h-9.978V3.742h-2.494zm0 129.709v9.978h-9.978v2.494h9.978v9.978h2.494v-9.978h9.978v-2.494h-9.978v-9.978h-2.494zm0 129.71v9.978h-9.978v2.494h9.978v9.978h2.494v-9.978h9.978v-2.494h-9.978v-9.978h-2.494zm0 129.71v9.978h-9.978v2.494h9.978v9.978h2.494v-9.978h9.978v-2.494h-9.978v-9.978h-2.494zm0 129.71v9.977h-9.978v2.495h9.978v9.977h2.494v-9.977h9.978v-2.495h-9.978v-9.977h-2.494zM402.849 3.742v9.977h-9.978v2.495h9.978v9.978h2.494v-9.978h9.978v-2.495h-9.978V3.742h-2.494zm0 129.709v9.978h-9.978v2.494h9.978v9.978h2.494v-9.978h9.978v-2.494h-9.978v-9.978h-2.494zm0 129.71v9.978h-9.978v2.494h9.978v9.978h2.494v-9.978h9.978v-2.494h-9.978v-9.978h-2.494zm0 129.71v9.978h-9.978v2.494h9.978v9.978h2.494v-9.978h9.978v-2.494h-9.978v-9.978h-2.494zm0 129.71v9.977h-9.978v2.495h9.978v9.977h2.494v-9.977h9.978v-2.495h-9.978v-9.977h-2.494z" fill="#FDDC48"/></svg>