<svg viewBox="0 0 190 35" fill="none" xmlns="http://www.w3.org/2000/svg"><path d="M43.436 8.756h7.493c.84 0 1.703.091 2.543.251.84.183 1.589.48 2.247.915a5.005 5.005 0 011.613 1.76c.408.732.613 1.646.613 2.766 0 1.075-.273 2.012-.795 2.835s-1.272 1.44-2.248 1.897l4.405 7.087h-6.72L49.27 19.98h-.181v6.242h-5.677V8.756h.023zm5.63 7.384h1.136c.204 0 .409-.023.636-.046.227-.023.454-.091.658-.206a1.9 1.9 0 00.523-.434c.136-.183.204-.434.204-.754s-.068-.549-.182-.732a1.068 1.068 0 00-.431-.411 2.238 2.238 0 00-.59-.183 5.543 5.543 0 00-.59-.046h-1.386v2.812h.023zm9.514 1.257c0-1.394.25-2.674.727-3.795a8.349 8.349 0 012.02-2.88c.863-.8 1.885-1.395 3.066-1.829 1.18-.434 2.452-.64 3.837-.64 1.385 0 2.656.206 3.837.64 1.18.434 2.203 1.029 3.065 1.829.863.8 1.544 1.76 2.044 2.88.5 1.12.727 2.4.727 3.795s-.25 2.675-.727 3.84a9.011 9.011 0 01-2.044 2.95c-.862.823-1.884 1.44-3.065 1.897-1.18.435-2.452.663-3.837.663-1.385 0-2.657-.228-3.837-.663a8.793 8.793 0 01-3.066-1.897 8.623 8.623 0 01-2.02-2.95c-.477-1.165-.727-2.445-.727-3.84zm6.221 0c0 .572.091 1.098.25 1.578.182.48.409.891.704 1.234.295.343.659.617 1.09.8.431.183.885.275 1.385.275s.954-.092 1.362-.275a3.367 3.367 0 001.09-.8c.318-.343.545-.754.727-1.234.181-.48.25-1.006.25-1.578 0-.548-.091-1.074-.25-1.554-.182-.48-.409-.869-.727-1.189a3.59 3.59 0 00-1.09-.754 3.298 3.298 0 00-1.362-.275c-.5 0-.954.092-1.385.275a3.112 3.112 0 00-1.09.754c-.295.32-.545.709-.704 1.189-.159.48-.25.983-.25 1.554zm13.76.092c0-1.395.25-2.675.727-3.795.5-1.143 1.158-2.104 2.02-2.927a9.01 9.01 0 012.997-1.874 10.427 10.427 0 013.701-.663c1.34 0 2.612.229 3.815.663 1.204.434 2.203 1.029 2.997 1.76l-3.587 4.344a3.053 3.053 0 00-1.226-.983 3.881 3.881 0 00-1.635-.343c-.5 0-.954.091-1.385.251a3.433 3.433 0 00-1.113.755 3.54 3.54 0 00-.75 1.189 4.37 4.37 0 00-.272 1.577c0 .571.091 1.097.273 1.554.182.458.431.846.772 1.166.318.32.681.572 1.112.755a3.4 3.4 0 001.34.251c.681 0 1.249-.137 1.726-.411a3.732 3.732 0 001.135-.983l3.588 4.32c-.795.8-1.749 1.418-2.907 1.898-1.135.48-2.452.709-3.905.709-1.317 0-2.543-.229-3.701-.663a8.509 8.509 0 01-2.997-1.898 9.205 9.205 0 01-2.021-2.926c-.477-1.075-.704-2.332-.704-3.726zm22.66 1.783h-.045v6.972h-5.677V8.756h5.654v6.447h.046l4.632-6.447h6.879l-6.539 8.001 6.857 9.487h-7.175l-4.632-6.972z" fill="#fff"/><path d="M123.155 26.244h-5.881l-4.745-17.488h6.176l1.862 9.83h.09l2.021-9.83h6.108l2.18 9.83h.091l1.884-9.83h5.994l-4.836 17.488h-5.881l-2.429-9.875h-.091l-2.543 9.875zm14.895-8.847c0-1.394.25-2.674.726-3.795.5-1.12 1.158-2.08 2.021-2.88.863-.8 1.885-1.395 3.065-1.829 1.181-.434 2.453-.64 3.838-.64 1.385 0 2.656.206 3.837.64 1.181.434 2.202 1.029 3.065 1.829a8.73 8.73 0 012.044 2.88c.499 1.12.726 2.4.726 3.795s-.25 2.675-.726 3.84a9.017 9.017 0 01-2.044 2.95c-.863.823-1.884 1.44-3.065 1.897a11.001 11.001 0 01-3.837.663c-1.385 0-2.657-.228-3.838-.663a8.8 8.8 0 01-3.065-1.897 8.625 8.625 0 01-2.021-2.95c-.476-1.165-.726-2.445-.726-3.84zm6.198 0c0 .572.091 1.098.25 1.578.182.48.409.891.704 1.234.295.343.659.617 1.09.8a3.48 3.48 0 001.385.275c.499 0 .954-.092 1.362-.275a3.367 3.367 0 001.09-.8c.318-.343.545-.754.727-1.234.181-.48.249-1.006.249-1.578 0-.548-.09-1.074-.249-1.554-.182-.48-.409-.869-.727-1.189a3.59 3.59 0 00-1.09-.754 3.296 3.296 0 00-1.362-.275c-.5 0-.954.092-1.385.275a3.114 3.114 0 00-1.09.754c-.295.32-.545.709-.704 1.189-.159.48-.25.983-.25 1.554zm13.76 0c0-1.394.25-2.674.726-3.795a8.35 8.35 0 012.021-2.88c.863-.8 1.885-1.395 3.065-1.829 1.181-.434 2.453-.64 3.838-.64 1.385 0 2.656.206 3.837.64 1.181.434 2.202 1.029 3.065 1.829a8.73 8.73 0 012.044 2.88c.499 1.12.726 2.4.726 3.795s-.25 2.675-.726 3.84a9.017 9.017 0 01-2.044 2.95c-.863.823-1.884 1.44-3.065 1.897a11.001 11.001 0 01-3.837.663c-1.385 0-2.657-.228-3.838-.663a8.8 8.8 0 01-3.065-1.897 8.625 8.625 0 01-2.021-2.95c-.476-1.165-.726-2.445-.726-3.84zm6.221 0c0 .572.091 1.098.25 1.578.182.48.409.891.704 1.234a2.94 2.94 0 001.09.8 3.48 3.48 0 001.385.275 3.3 3.3 0 001.362-.275 3.367 3.367 0 001.09-.8c.318-.343.545-.754.726-1.234.182-.48.25-1.006.25-1.578 0-.548-.091-1.074-.25-1.554-.181-.48-.408-.869-.726-1.189a3.59 3.59 0 00-1.09-.754 3.3 3.3 0 00-1.362-.275c-.5 0-.954.092-1.385.275a3.105 3.105 0 00-1.09.754c-.295.32-.545.709-.704 1.189-.182.48-.25.983-.25 1.554zm14.101-8.641h5.88v12.436h5.768v5.075H178.33V8.756z" fill="#fff"/><path fill-rule="evenodd" clip-rule="evenodd" d="M34.762 0H0v35h34.762V0zM16.076 19.683l-3.906 6.561H3.474L13.896 8.756h2.18v10.927zm2.61 0l3.906 6.561h8.674l-10.4-17.488h-2.18v10.927z" fill="#fff"/><path d="M185.799 10.813c0-.297.046-.571.159-.846.114-.251.273-.48.454-.663.182-.183.409-.343.659-.434.25-.114.522-.16.817-.16.273 0 .545.046.818.16.249.114.476.251.658.434.182.183.341.412.454.663.114.252.159.526.159.823 0 .298-.045.572-.159.846-.113.252-.272.48-.454.663a1.852 1.852 0 01-.658.434c-.25.115-.523.16-.818.16-.295 0-.567-.045-.817-.16a2.21 2.21 0 01-.659-.434 2.307 2.307 0 01-.454-.663 2.406 2.406 0 01-.159-.823zm.341 0c0 .252.045.48.136.709.091.206.227.411.386.571.159.16.341.275.568.366.204.092.431.137.681.137.25 0 .477-.045.681-.137a1.94 1.94 0 00.568-.389 1.69 1.69 0 00.386-.571 1.87 1.87 0 00.136-.709c0-.251-.045-.48-.136-.708a1.69 1.69 0 00-.954-.938 1.646 1.646 0 00-.681-.137c-.25 0-.477.046-.681.137a2.413 2.413 0 00-.568.366 1.69 1.69 0 00-.386.572c-.091.228-.136.48-.136.731zm.976-1.211h.886c.295 0 .499.045.636.16.136.114.204.297.204.525 0 .229-.068.366-.182.48a.906.906 0 01-.454.183l.704 1.075h-.363l-.659-1.029h-.431v1.029h-.341V9.602zm.341 1.074h.658a.547.547 0 00.205-.046.339.339 0 00.136-.114c.045-.046.045-.137.045-.229a.456.456 0 00-.045-.205.234.234 0 00-.136-.115.43.43 0 00-.182-.045h-.704v.754h.023z" fill="#fff"/></svg>