<svg width="125" height="125" fill="none" xmlns="http://www.w3.org/2000/svg"><path fill-rule="evenodd" clip-rule="evenodd" d="M125 0H0v125h125V0zM25.744 105.983l-.179 1.474c.025-.27.042-.54.05-.811 0-.553-.185-.935-.532-1.188-.36-.264-.931-.413-1.75-.413h-2.491l-1.434 6.853-.038.183h-.187l-6.103-.01-.283-.001.058-.276 4.19-20.176.038-.183h10.423l-.023.19.023-.19a8.708 8.708 0 014.81 1.069l.013.007.011.009a4.95 4.95 0 011.998 4.432 5.746 5.746 0 01-1.34 3.84l-.002.003a5.813 5.813 0 01-2.932 1.81 2.751 2.751 0 011.269 1.528l.003.007c.248.827.357 1.69.323 2.553v3.689c.029.468.126.929.29 1.369l.115.31H25.63l-.051-.159a5.68 5.68 0 01-.266-2.044l.453-3.808a1.085 1.085 0 00-.011-.038l-.01-.029zm-.179 1.474l-.094.776c.04-.258.07-.516.094-.776zm.898-7.265l-.019.008.033-.267.018-.009-.032.268zm.392-3.291c.134.056.247.124.343.203.282.234.44.595.44 1.126v.005a1.734 1.734 0 01-.646 1.392 3.29 3.29 0 01-.497.297l.36-3.023zm-.01-.005l.028-.236.01.004-.028.237-.01-.005zm0 0c-.272-.111-.623-.173-1.068-.173h-3.18l-.755 3.524h3.001l.007.001a3.297 3.297 0 001.627-.315l.368-3.037zm21.835-5.471h-.188l-.038.183-2.316 11.069-.002.011a8.442 8.442 0 01-1.107 3.026 2.823 2.823 0 01-2.476 1.324l-.018-.001-.018.002a1.857 1.857 0 01-1.879-.964 3.692 3.692 0 01-.207-1.413 11.47 11.47 0 01.308-1.922l.002-.008 2.286-11.01.057-.278h-6.69l-.039.183-2.678 12.852a8.426 8.426 0 00-.23 1.681v.001a5.561 5.561 0 002.046 4.484c1.587 1.292 3.825 1.916 6.7 1.916 2.819 0 5.09-.617 6.79-1.875 1.703-1.261 2.807-3.145 3.326-5.628v-.001l2.768-13.336.057-.276h-.282l-6.172-.02zm20.388.375a6.118 6.118 0 00-2.47-.346H56.412l-.038.183-4.22 20.166-.058.278h.284l6.113-.01.187-.001.038-.182 1.237-5.911h4.018a9.295 9.295 0 006.514-2.314 7.1 7.1 0 002.464-5.476 6.862 6.862 0 00-1.737-5.066l-.006-.007-.007-.007a6.118 6.118 0 00-2.132-1.307zm-8.005 8.908l.774-3.612h1.934c.88 0 1.497.148 1.89.41.375.251.568.624.568 1.156 0 .696-.248 1.189-.729 1.519-.496.34-1.268.527-2.347.527h-2.09zm13.805-9.254h-.186l-.039.184-4.2 20.166-.057.277h17.357l.038-.184 1.08-5.191.057-.277H78.235l.44-2.042h9.716l.038-.183 1-4.819.058-.276h-9.693l.432-2.013h10.462l.037-.185 1.04-5.181.055-.276H74.868zm28.884 6.324h-1.644c.049-1.413-.785-2.11-2.522-2.11-1.737 0-2.414.55-2.414 1.64 0 .618.589 1.108 1.757 1.462l3.257.853c.309.11.603.225.881.349l.069-.221c1.171.515 2.093 1.158 2.753 1.939.821.969 1.227 2.136 1.227 3.495a6.46 6.46 0 01-.786 3.2 6.462 6.462 0 01-2.264 2.394 10.975 10.975 0 01-6.313 1.783 10.262 10.262 0 01-6.234-1.738l-.008-.005a6.345 6.345 0 01-2.545-5.774l.022-.205h6.486l-.026.253a2.712 2.712 0 00.674 2.083c.64.376 1.385.535 2.124.452l.014-.002.015.001a3.153 3.153 0 001.683-.449l.008-.004.009-.005a1.383 1.383 0 00.774-1.254v-.001c0-.483-.343-.915-1.233-1.286a198.912 198.912 0 00-3.468-1.094 9.068 9.068 0 01-3.42-1.822l-.01-.008a5.049 5.049 0 01-1.573-3.869 6.01 6.01 0 012.814-5.226 10.307 10.307 0 015.89-1.645 10.161 10.161 0 015.804 1.446l.006.004.006.004a5.9 5.9 0 012.512 5.381l-.229-.02v.23h-4.167l.071-.23zm-.071.23l-.545 1.743a12.502 12.502 0 00-.873-.345l-.009-.003-.009-.002-3.254-.853c-.568-.172-.972-.371-1.231-.587-.255-.212-.358-.429-.358-.654 0-.492.15-.82.459-1.04.327-.232.872-.368 1.725-.368.844 0 1.423.17 1.783.471.35.292.532.742.509 1.4l-.008.238h1.811zm6.414-4.754v-.736h.481l.129.05a1.232 1.232 0 00-.119-.005h-.446v.646h.387a.774.774 0 00.381-.083.29.29 0 00.153-.264.269.269 0 00-.04-.15.19.19 0 00-.022-.028l.074.03a.32.32 0 01.033.148c0 .284-.275.392-.579.392h-.432zm1.383-.382l.001.02a.65.65 0 01-.17.459.632.632 0 01-.449.198l.677 1.05h-.402l-.628-1.04h-.381l.014.044v1.041h-.453v-2.475l.045.143v-.098h.07l-.115-.045h.948c.288 0 .511.052.663.172.154.121.225.305.226.55l-.046-.019zm-.479-.188a.27.27 0 00-.082-.06.61.61 0 00-.212-.055l.294.115zm-1.359 2.655a2.103 2.103 0 01-1.258-1.888 2.116 2.116 0 112.145 2.115h-.026l-.013-.022-.014-.022a2.056 2.056 0 01-.834-.183zm.255-3.417a1.642 1.642 0 11.602 3.172 1.633 1.633 0 01-1.642-1.681l-.045-.002.045.001a1.639 1.639 0 011.04-1.49z" fill="#fff"/></svg>