<svg width="544" height="440" fill="none" xmlns="http://www.w3.org/2000/svg"><path d="M11 3v8H3v2h8v8h2v-8h8v-2h-8V3h-2zm0 104v8H3v2h8v8h2v-8h8v-2h-8v-8h-2zm0 104v8H3v2h8v8h2v-8h8v-2h-8v-8h-2zm0 104v8H3v2h8v8h2v-8h8v-2h-8v-8h-2zm0 104v8H3v2h8v8h2v-8h8v-2h-8v-8h-2zM115 3v8h-8v2h8v8h2v-8h8v-2h-8V3h-2zm0 104v8h-8v2h8v8h2v-8h8v-2h-8v-8h-2zm0 104v8h-8v2h8v8h2v-8h8v-2h-8v-8h-2zm0 104v8h-8v2h8v8h2v-8h8v-2h-8v-8h-2zm0 104v8h-8v2h8v8h2v-8h8v-2h-8v-8h-2zM219 3v8h-8v2h8v8h2v-8h8v-2h-8V3h-2zm0 104v8h-8v2h8v8h2v-8h8v-2h-8v-8h-2zm0 104v8h-8v2h8v8h2v-8h8v-2h-8v-8h-2zm0 104v8h-8v2h8v8h2v-8h8v-2h-8v-8h-2zm0 104v8h-8v2h8v8h2v-8h8v-2h-8v-8h-2zM323 3v8h-8v2h8v8h2v-8h8v-2h-8V3h-2zm0 104v8h-8v2h8v8h2v-8h8v-2h-8v-8h-2zm0 104v8h-8v2h8v8h2v-8h8v-2h-8v-8h-2zm0 104v8h-8v2h8v8h2v-8h8v-2h-8v-8h-2zm0 104v8h-8v2h8v8h2v-8h8v-2h-8v-8h-2zM427 3v8h-8v2h8v8h2v-8h8v-2h-8V3h-2zm0 104v8h-8v2h8v8h2v-8h8v-2h-8v-8h-2zm0 104v8h-8v2h8v8h2v-8h8v-2h-8v-8h-2zm0 104v8h-8v2h8v8h2v-8h8v-2h-8v-8h-2zm0 104v8h-8v2h8v8h2v-8h8v-2h-8v-8h-2zM531 3v8h-8v2h8v8h2v-8h8v-2h-8V3h-2zm0 104v8h-8v2h8v8h2v-8h8v-2h-8v-8h-2zm0 104v8h-8v2h8v8h2v-8h8v-2h-8v-8h-2zm0 104v8h-8v2h8v8h2v-8h8v-2h-8v-8h-2zm0 104v8h-8v2h8v8h2v-8h8v-2h-8v-8h-2z" opacity=".1" fill="#1B1B1E"/></svg>