<svg width="657" height="549" fill="none" xmlns="http://www.w3.org/2000/svg"><path d="M-8.28 3.741v9.978h-9.978v2.494h9.977v9.978h2.495v-9.978H4.19V13.72h-9.977V3.74h-2.495zm0 129.71v9.978h-9.978v2.494h9.977v9.978h2.495v-9.978H4.19v-2.494h-9.977v-9.978h-2.495zm0 129.71v9.978h-9.978v2.494h9.977v9.978h2.495v-9.978H4.19v-2.494h-9.977v-9.978h-2.495zm0 129.709v9.978h-9.978v2.494h9.977v9.978h2.495v-9.978H4.19v-2.494h-9.977v-9.978h-2.495zm0 129.71v9.978h-9.978v2.494h9.977v9.978h2.495v-9.978H4.19v-2.494h-9.977v-9.978h-2.495zM121.429 3.741v9.978h-9.977v2.494h9.977v9.978h2.495v-9.978h9.977V13.72h-9.977V3.74h-2.495zm0 129.71v9.978h-9.977v2.494h9.977v9.978h2.495v-9.978h9.977v-2.494h-9.977v-9.978h-2.495zm0 129.71v9.978h-9.977v2.494h9.977v9.978h2.495v-9.978h9.977v-2.494h-9.977v-9.978h-2.495zm0 129.709v9.978h-9.977v2.494h9.977v9.978h2.495v-9.978h9.977v-2.494h-9.977v-9.978h-2.495zm0 129.71v9.978h-9.977v2.494h9.977v9.978h2.495v-9.978h9.977v-2.494h-9.977v-9.978h-2.495zM251.139 3.741v9.978h-9.978v2.494h9.978v9.978h2.494v-9.978h9.978V13.72h-9.978V3.74h-2.494zm0 129.71v9.978h-9.978v2.494h9.978v9.978h2.494v-9.978h9.978v-2.494h-9.978v-9.978h-2.494zm0 129.71v9.978h-9.978v2.494h9.978v9.978h2.494v-9.978h9.978v-2.494h-9.978v-9.978h-2.494zm0 129.709v9.978h-9.978v2.494h9.978v9.978h2.494v-9.978h9.978v-2.494h-9.978v-9.978h-2.494zm0 129.71v9.978h-9.978v2.494h9.978v9.978h2.494v-9.978h9.978v-2.494h-9.978v-9.978h-2.494zM380.849 3.741v9.978h-9.978v2.494h9.978v9.978h2.494v-9.978h9.978V13.72h-9.978V3.74h-2.494zm0 129.71v9.978h-9.978v2.494h9.978v9.978h2.494v-9.978h9.978v-2.494h-9.978v-9.978h-2.494zm0 129.71v9.978h-9.978v2.494h9.978v9.978h2.494v-9.978h9.978v-2.494h-9.978v-9.978h-2.494zm0 129.709v9.978h-9.978v2.494h9.978v9.978h2.494v-9.978h9.978v-2.494h-9.978v-9.978h-2.494zm0 129.71v9.978h-9.978v2.494h9.978v9.978h2.494v-9.978h9.978v-2.494h-9.978v-9.978h-2.494zM510.558 3.741v9.978h-9.977v2.494h9.977v9.978h2.495v-9.978h9.977V13.72h-9.977V3.74h-2.495zm0 129.71v9.978h-9.977v2.494h9.977v9.978h2.495v-9.978h9.977v-2.494h-9.977v-9.978h-2.495zm0 129.71v9.978h-9.977v2.494h9.977v9.978h2.495v-9.978h9.977v-2.494h-9.977v-9.978h-2.495zm0 129.709v9.978h-9.977v2.494h9.977v9.978h2.495v-9.978h9.977v-2.494h-9.977v-9.978h-2.495zm0 129.71v9.978h-9.977v2.494h9.977v9.978h2.495v-9.978h9.977v-2.494h-9.977v-9.978h-2.495zM640.268 3.741v9.978h-9.977v2.494h9.977v9.978h2.495v-9.978h9.978V13.72h-9.978V3.74h-2.495zm0 129.71v9.978h-9.977v2.494h9.977v9.978h2.495v-9.978h9.978v-2.494h-9.978v-9.978h-2.495zm0 129.71v9.978h-9.977v2.494h9.977v9.978h2.495v-9.978h9.978v-2.494h-9.978v-9.978h-2.495zm0 129.709v9.978h-9.977v2.494h9.977v9.978h2.495v-9.978h9.978v-2.494h-9.978v-9.978h-2.495zm0 129.71v9.978h-9.977v2.494h9.977v9.978h2.495v-9.978h9.978v-2.494h-9.978v-9.978h-2.495z" opacity=".1" fill="#1B1B1E"/></svg>