<svg width="606" height="610" fill="none" xmlns="http://www.w3.org/2000/svg"><g opacity=".2" stroke="#1B1B1E"><path d="M191.759 609.051l64.545-135.006c-63.446-25.423-108.248-87.469-108.248-159.996 0-47.567 19.276-90.63 50.441-121.808 16.43-16.437 36.165-29.571 58.121-38.32L192.36 19.504 127.069 56.52l28.053 49.485a267.684 267.684 0 00-20.804 18.397 267.177 267.177 0 00-21.472 23.762l-48.74-28.512-40.182 68.694 49.04 28.681a264.222 264.222 0 00-15.505 58.606H1v79.579h56.839a263.619 263.619 0 0014.812 55.086l-49.067 27.818 39.24 69.23 49.486-28.054a266.368 266.368 0 0041.059 41.387l-28.773 48.582 67.163 39.79z"/><path d="M320.353 48.368c-24.337 0-47.902 3.297-70.303 9.434l41.308 86.384a173.68 173.68 0 0128.995-2.447c95.163 0 172.309 77.146 172.309 172.31 0 47.568-19.276 90.635-50.443 121.815-31.183 31.197-74.271 50.494-121.866 50.494-9.997 0-19.797-.864-29.336-2.499l-41.294 86.371c22.492 6.188 46.162 9.512 70.63 9.512 73.351 0 139.758-29.722 187.836-77.779 48.103-48.084 77.857-114.523 77.857-187.914 0-146.743-118.964-265.68-265.693-265.68z"/><path d="M338.857 29.864c146.729 0 265.693 118.938 265.693 265.681l-18.504 18.504c0-146.743-118.964-265.68-265.693-265.68l18.504-18.505zm-70.303 9.434c22.4-6.137 45.965-9.434 70.302-9.434l-18.504 18.504a265.734 265.734 0 00-70.303 9.434l18.505-18.504z" stroke-linejoin="round"/><path d="M511.166 295.545c0-95.164-77.146-172.31-172.309-172.31l-18.504 18.505c95.163 0 172.309 77.146 172.309 172.309l18.504-18.504zM309.861 125.682l-41.307-86.384-18.505 18.504 41.308 86.384 18.504-18.504z" stroke-linejoin="round"/><path d="M338.857 123.235c-9.879 0-19.561.851-28.995 2.447l-18.504 18.504a173.68 173.68 0 0128.995-2.446l18.504-18.505zm187.836 360.224c48.103-48.083 77.857-114.523 77.857-187.914l-18.504 18.504c0 73.391-29.754 139.831-77.858 187.915l18.505-18.505zM210.865 1l64.258 134.417-18.505 18.504-64.257-134.417L210.865 1z" stroke-linejoin="round"/><path d="M145.573 38.016L210.865 1l-18.504 18.504-65.292 37.016 18.504-18.504zM460.724 417.36c31.167-31.18 50.443-74.246 50.443-121.815l-18.505 18.504c0 47.569-19.276 90.636-50.443 121.816l18.505-18.505z" stroke-linejoin="round"/><path d="M173.626 87.502l-28.053-49.485-18.504 18.504 28.053 49.485 18.504-18.504zm43.375 86.236c16.43-16.438 36.165-29.572 58.121-38.321l-18.504 18.504c-21.957 8.75-41.691 21.884-58.122 38.321l18.505-18.504z" stroke-linejoin="round"/><path d="M158.5 100.487a267.356 267.356 0 0115.126-12.985l-18.504 18.504a267.332 267.332 0 00-15.126 12.985l18.504-18.504zm-5.678 5.411a268.709 268.709 0 015.679-5.412l-18.505 18.505a268.492 268.492 0 00-5.678 5.411l18.504-18.504z" stroke-linejoin="round"/><path d="M152.822 105.897a267.457 267.457 0 00-21.472 23.762l-18.504 18.504a267.304 267.304 0 0121.472-23.761l18.504-18.505z" stroke-linejoin="round"/><path d="M82.61 101.148l48.74 28.512-18.504 18.504-48.74-28.511 18.504-18.505zM460.724 417.36c-31.184 31.197-74.272 50.494-121.867 50.494l-18.504 18.505c47.595 0 90.682-19.297 121.866-50.494l18.505-18.505zM217.001 173.737c-31.165 31.178-50.44 74.24-50.44 121.808l-18.505 18.504c0-47.567 19.276-90.63 50.441-121.807l18.504-18.505z" stroke-linejoin="round"/><path d="M42.428 169.842l40.183-68.694-18.505 18.505-40.182 68.693 18.504-18.504zm484.265 313.617c-48.078 48.057-114.485 77.779-187.836 77.779l-18.504 18.504c73.351 0 139.758-29.721 187.835-77.779l18.505-18.504z" stroke-linejoin="round"/><path d="M91.469 198.523l-49.04-28.681-18.505 18.504 49.04 28.681 18.505-18.504zm218.053 266.832a173.42 173.42 0 0029.335 2.5l-18.504 18.504c-9.997 0-19.797-.864-29.335-2.499l18.504-18.505zM75.964 257.129a264.236 264.236 0 0115.505-58.606l-18.504 18.505a264.208 264.208 0 00-15.506 58.605l18.505-18.504zm90.597 38.416c0 72.527 44.801 134.574 108.248 159.997l-18.505 18.504c-63.446-25.423-108.248-87.47-108.248-159.997l18.505-18.504z" stroke-linejoin="round"/><path d="M19.504 257.129h56.46l-18.505 18.504H1l18.504-18.504zm248.723 294.597l41.295-86.371-18.505 18.505-41.294 86.37 18.504-18.504zm70.63 9.512c-24.468 0-48.138-3.323-70.63-9.512l-18.504 18.504c22.492 6.189 46.162 9.512 70.63 9.512l18.504-18.504z" stroke-linejoin="round"/><path d="M19.504 336.709v-79.58L1 275.633v79.58l18.504-18.504zm71.651 55.085a263.652 263.652 0 01-14.812-55.086L57.84 355.212a263.625 263.625 0 0014.812 55.086l18.504-18.504zm183.654 63.748l-64.546 135.006-18.504 18.504 64.546-135.006 18.504-18.504z" stroke-linejoin="round"/><path d="M76.343 336.708H19.504L1 355.212h56.839l18.504-18.504zm95.53 165.466a266.362 266.362 0 01-41.059-41.386l-18.504 18.504a266.412 266.412 0 0041.059 41.387l18.504-18.505zM42.088 419.612l49.067-27.818-18.505 18.504-49.066 27.818 18.504-18.504zm88.726 41.176l-49.486 28.053-18.504 18.504 49.485-28.053 18.505-18.504zm12.286 89.969l28.773-48.582-18.505 18.504-28.772 48.583 18.504-18.505z" stroke-linejoin="round"/><path d="M81.328 488.841l-39.24-69.23-18.504 18.505 39.24 69.23 18.504-18.505zm128.935 101.706l-67.163-39.79-18.504 18.504 67.162 39.79 18.505-18.504z" stroke-linejoin="round"/><path d="M210.262 590.547l64.546-135.005c-63.447-25.424-108.248-87.47-108.248-159.997 0-72.645 44.958-134.784 108.562-160.128L210.864 1l-65.292 37.016 28.053 49.485a267.268 267.268 0 00-42.275 42.159l-48.74-28.511-40.183 68.693 49.041 28.681a264.222 264.222 0 00-15.505 58.606h-56.46v79.579h56.84a263.625 263.625 0 0014.811 55.086l-49.067 27.818 39.24 69.23 49.486-28.054a266.368 266.368 0 0041.059 41.387l-28.773 48.582 67.163 39.79z"/><path d="M338.856 29.864c-24.337 0-47.902 3.297-70.303 9.434l41.308 86.384a173.68 173.68 0 0128.995-2.447c95.163 0 172.31 77.146 172.31 172.31 0 95.163-77.147 172.309-172.31 172.309-9.996 0-19.797-.864-29.335-2.499l-41.295 86.37c22.492 6.189 46.162 9.513 70.63 9.513 146.742 0 265.693-118.951 265.693-265.693 0-146.743-118.964-265.68-265.693-265.68z"/></g></svg>