<svg width="112" height="28" viewBox="0 0 112 28" fill="none" xmlns="http://www.w3.org/2000/svg">
<path d="M36 8.9446V3.13987H37.8144V8.9446C37.8144 9.63464 38.0284 10.2035 38.4564 10.651C38.8844 11.0986 39.4147 11.3224 40.0474 11.3224C40.6801 11.3224 41.2104 11.0986 41.6384 10.651C42.0665 10.2035 42.2805 9.63464 42.2805 8.9446V3.13987H44.0948V8.9446C44.0948 10.2035 43.7273 11.2059 42.9922 11.9519C42.2572 12.6979 41.2756 13.0708 40.0474 13.0708C38.8192 13.0708 37.8376 12.6979 37.1026 11.9519C36.3675 11.2059 36 10.2035 36 8.9446Z" fill="#1B1B1E"/>
<path d="M46.1147 12.931V3.13987H48.5571L52.116 9.92371H52.3951V3.13987H54.2095V12.931H51.7671L48.2082 6.14714H47.929V12.931H46.1147Z" fill="#1B1B1E"/>
<path d="M56.3095 12.931V3.13987H58.1239V12.931H56.3095Z" fill="#1B1B1E"/>
<path d="M62.5938 12.931L59.2442 3.13987H61.2679L63.7801 10.693H64.0592L66.5714 3.13987H68.5951L65.2455 12.931H62.5938Z" fill="#1B1B1E"/>
<path d="M69.7073 12.931V3.13987H76.2669V4.81835H71.5216V7.19619H75.9877V8.87466H71.5216V11.2525H76.2669V12.931H69.7073Z" fill="#1B1B1E"/>
<path d="M78.0758 12.931V3.13987H82.5418C83.4165 3.13987 84.1469 3.44759 84.733 4.06303C85.3192 4.66915 85.6123 5.4571 85.6123 6.42688C85.6123 7.34072 85.3332 8.08671 84.7749 8.66485C84.2259 9.23367 83.5514 9.53672 82.7512 9.57402L85.8914 12.931H83.5886L80.4484 9.57402H79.8901V12.931H78.0758ZM79.8901 7.89555H82.4721C82.8256 7.89555 83.1327 7.75568 83.3932 7.47593C83.663 7.18686 83.7979 6.83718 83.7979 6.42688C83.7979 5.97929 83.6677 5.61096 83.4072 5.32189C83.1466 5.03282 82.8349 4.88828 82.4721 4.88828H79.8901V7.89555Z" fill="#1B1B1E"/>
<path d="M86.7991 9.85377H88.6135C88.6135 10.292 88.8089 10.6604 89.1997 10.9588C89.5998 11.2478 90.1255 11.3924 90.7768 11.3924C91.4374 11.3924 91.9259 11.2805 92.2422 11.0567C92.5679 10.8236 92.7307 10.5158 92.7307 10.1335C92.7307 9.48077 92.1957 9.06116 91.1257 8.87466L89.4509 8.59491C87.8226 8.32449 87.0085 7.43863 87.0085 5.93733C87.0085 5.09809 87.3341 4.39873 87.9855 3.83924C88.6368 3.27975 89.5207 3 90.6372 3C91.8468 3 92.7772 3.2984 93.4285 3.89519C94.0798 4.49198 94.4055 5.26594 94.4055 6.21708H92.5911C92.5911 5.77881 92.419 5.41514 92.0747 5.12607C91.7305 4.82767 91.2513 4.67847 90.6372 4.67847C90.0324 4.67847 89.5765 4.79504 89.2695 5.02816C88.9717 5.25195 88.8228 5.55501 88.8228 5.93733C88.8228 6.23573 88.9205 6.47817 89.1159 6.66467C89.3113 6.84184 89.6556 6.97239 90.1487 7.05631L91.6839 7.33606C92.6795 7.51323 93.4053 7.82561 93.8612 8.27321C94.3171 8.71147 94.545 9.33158 94.545 10.1335C94.545 11.0101 94.2194 11.7187 93.5681 12.2596C92.9168 12.8004 91.9863 13.0708 90.7768 13.0708C89.5486 13.0708 88.5763 12.7724 87.8598 12.1757C87.1527 11.5695 86.7991 10.7956 86.7991 9.85377Z" fill="#1B1B1E"/>
<path d="M94.8972 12.931L98.3864 3.13987H101.038L104.527 12.931H102.504L101.764 10.8329H97.6606L96.9209 12.931H94.8972ZM98.2468 9.15441H101.178L99.8518 5.23797H99.5727L98.2468 9.15441Z" fill="#1B1B1E"/>
<path d="M105.58 12.931V3.13987H107.394V11.1826H112V12.931H105.58Z" fill="#1B1B1E"/>
<path d="M40.8449 24.9201L40.7652 24.2807H40.7253C40.6243 24.4139 40.4914 24.5338 40.3265 24.6403C39.965 24.8801 39.5529 25 39.0904 25C38.3248 25 37.6814 24.7282 37.1604 24.1847C36.6393 23.6412 36.3788 22.9539 36.3788 22.1226C36.3788 21.2914 36.6393 20.604 37.1604 20.0605C37.6814 19.517 38.3248 19.2452 39.0904 19.2452C39.4519 19.2452 39.7842 19.3065 40.0873 19.4291C40.3903 19.5516 40.6429 19.7141 40.8449 19.9166C41.047 20.1191 41.2091 20.3322 41.3314 20.556C41.459 20.7798 41.5494 21.009 41.6026 21.2434H40.5259C40.2175 20.5774 39.739 20.2443 39.0904 20.2443C38.6012 20.2443 38.1998 20.4175 37.8861 20.7639C37.5724 21.1049 37.4156 21.5578 37.4156 22.1226C37.4156 22.6874 37.5724 23.143 37.8861 23.4894C38.1998 23.8304 38.6012 24.0009 39.0904 24.0009C39.335 24.0009 39.5583 23.9556 39.7603 23.865C39.9623 23.7744 40.1218 23.6652 40.2388 23.5373C40.3558 23.4041 40.4462 23.2736 40.51 23.1457C40.5738 23.0125 40.6057 22.8979 40.6057 22.802V22.762H39.21V21.9628H41.6424V24.9201H40.8449Z" fill="#1B1B1E"/>
<path d="M42.7163 24.9201V19.3252H45.2683C45.7681 19.3252 46.1855 19.501 46.5204 19.8527C46.8554 20.199 47.0229 20.6493 47.0229 21.2035C47.0229 21.7256 46.8634 22.1519 46.5444 22.4823C46.2307 22.8073 45.8452 22.9805 45.388 23.0018L47.1824 24.9201H45.8665L44.0721 23.0018H43.7531V24.9201H42.7163ZM43.7531 22.0427H45.2285C45.4305 22.0427 45.606 21.9628 45.7548 21.8029C45.909 21.6377 45.9861 21.4379 45.9861 21.2035C45.9861 20.9477 45.9117 20.7372 45.7628 20.572C45.6139 20.4068 45.4358 20.3242 45.2285 20.3242H43.7531V22.0427Z" fill="#1B1B1E"/>
<path d="M49.2881 23.4894C49.6018 23.8304 50.0032 24.0009 50.4924 24.0009C50.9815 24.0009 51.383 23.8304 51.6966 23.4894C52.0103 23.143 52.1672 22.6874 52.1672 22.1226C52.1672 21.5578 52.0103 21.1049 51.6966 20.7639C51.383 20.4175 50.9815 20.2443 50.4924 20.2443C50.0032 20.2443 49.6018 20.4175 49.2881 20.7639C48.9744 21.1049 48.8176 21.5578 48.8176 22.1226C48.8176 22.6874 48.9744 23.143 49.2881 23.4894ZM48.5624 20.0605C49.0834 19.517 49.7268 19.2452 50.4924 19.2452C51.258 19.2452 51.9013 19.517 52.4224 20.0605C52.9434 20.604 53.2039 21.2914 53.2039 22.1226C53.2039 22.9539 52.9434 23.6412 52.4224 24.1847C51.9013 24.7282 51.258 25 50.4924 25C49.7268 25 49.0834 24.7282 48.5624 24.1847C48.0414 23.6412 47.7808 22.9539 47.7808 22.1226C47.7808 21.2914 48.0414 20.604 48.5624 20.0605Z" fill="#1B1B1E"/>
<path d="M54.1174 22.6421V19.3252H55.1541V22.6421C55.1541 23.0365 55.2764 23.3615 55.521 23.6173C55.7656 23.873 56.0686 24.0009 56.4302 24.0009C56.7917 24.0009 57.0948 23.873 57.3393 23.6173C57.5839 23.3615 57.7062 23.0365 57.7062 22.6421V19.3252H58.743V22.6421C58.743 23.3615 58.5329 23.9343 58.1129 24.3606C57.6929 24.7869 57.132 25 56.4302 25C55.7283 25 55.1674 24.7869 54.7474 24.3606C54.3274 23.9343 54.1174 23.3615 54.1174 22.6421Z" fill="#1B1B1E"/>
<path d="M59.8972 24.9201V19.3252H62.4094C62.9357 19.3252 63.3584 19.4957 63.6774 19.8367C64.0017 20.1777 64.1639 20.6333 64.1639 21.2035C64.1639 21.7736 64.0017 22.2292 63.6774 22.5702C63.3584 22.9112 62.9357 23.0817 62.4094 23.0817H60.934V24.9201H59.8972ZM60.934 22.0827H62.3695C62.5981 22.0827 62.7815 22.0054 62.9198 21.8509C63.058 21.6963 63.1271 21.4805 63.1271 21.2035C63.1271 20.9264 63.058 20.7106 62.9198 20.556C62.7815 20.4015 62.5981 20.3242 62.3695 20.3242H60.934V22.0827Z" fill="#1B1B1E"/>
<path d="M9.1296 28L12.2187 21.588C9.18221 20.3806 7.03804 17.4337 7.03804 13.9891C7.03804 10.5389 9.18972 7.58772 12.2338 6.384L9.15841 1.90735e-06L6.03359 1.75804L7.3762 4.10831C6.6285 4.69867 5.94968 5.37044 5.35289 6.11057L3.02024 4.75647L1.09713 8.019L3.44419 9.38119C3.09476 10.2649 2.84365 11.197 2.70212 12.1646H0V15.9442H2.72028C2.86243 16.8521 3.1029 17.7277 3.42916 18.5604L1.08085 19.8816L2.95887 23.1696L5.32722 21.8372C5.90772 22.5618 6.56713 23.2212 7.29229 23.8028L5.91524 26.1102L9.1296 28Z" fill="#FDDC48"/>
<path d="M15.2841 1.37089C14.1194 1.37089 12.9915 1.52749 11.9195 1.81894L13.8964 5.92165C14.3479 5.84584 14.8113 5.80545 15.2841 5.80545C19.8386 5.80545 23.5308 9.46943 23.5308 13.9891C23.5308 18.5088 19.8386 22.1728 15.2841 22.1728C14.8057 22.1728 14.3367 22.1318 13.8801 22.0541L11.9038 26.1562C12.9803 26.4501 14.1131 26.608 15.2841 26.608C22.3071 26.608 28.0001 20.9585 28.0001 13.9891C28.0001 7.01973 22.3065 1.37089 15.2841 1.37089Z" fill="#1B1B1E"/>
</svg>
