<svg width="19" height="18" fill="none" xmlns="http://www.w3.org/2000/svg"><path d="M18.01 0H0v17.919h18.01V0z" fill="#FFCB0A"/><path d="M12.713 3.766l.329-.127-.385-.946-2.012.708.254.62h-.017s.017.018.017.038l.073.2c.458 1.149 2.251 6.372-2.178 6.72h-.239c-4.723-.363-2.361-6.337-2.122-6.902l.33-.766-1.995-.748-.405.945.347.128C2.293 7.806 2.587 9.81 2.587 9.81c.44 4.645 5.418 4.973 5.93 4.99h.018l.018.02v-.02h.239v.02s5.508-.11 5.985-5.01c.005.003.28-1.965-2.064-6.044z" fill="#252525"/><path d="M4.862 6.864c0 .218-.202.4-.44.4a.408.408 0 01-.42-.4.41.41 0 01.42-.403c.238.002.44.185.44.403zm-.158 2.861c0 .22-.184.4-.423.4-.238 0-.44-.18-.44-.4 0-.238.202-.418.44-.418a.41.41 0 01.423.418zm1.024 2.787c0 .217-.2.4-.44.4a.408.408 0 01-.42-.4c0-.218.181-.4.42-.4.24 0 .44.182.44.4zm6.883-5.648c0 .218.201.4.44.4.254 0 .458-.182.458-.4 0-.22-.201-.403-.458-.403-.239.002-.44.185-.44.403zm.641 2.861c0 .22.2.4.457.4.24 0 .438-.18.438-.4a.427.427 0 00-.438-.418c-.259-.003-.457.18-.457.418zm-.9 2.787c0 .217.202.4.458.4.24 0 .44-.183.44-.4 0-.218-.2-.4-.44-.4-.256 0-.458.182-.458.4z" fill="#FFCB0A"/></svg>