<svg width="54" height="66" fill="none" xmlns="http://www.w3.org/2000/svg"><g filter="url(#filter0_ddddd_209_357)"><path fill="#1B1B1E" d="M7 1h40v40H7z"/></g><path d="M19 12c-1.093 0-2 .907-2 2v16h20V18c0-1.093-.907-2-2-2h-4v-2c0-1.093-.907-2-2-2H19zm0 2h10v14H19V14zm2 2v2h2v-2h-2zm4 0v2h2v-2h-2zm6 2h4v10h-4v-2h2v-2h-2v-2h2v-2h-2v-2zm-10 2v2h2v-2h-2zm4 0v2h2v-2h-2zm-4 4v2h2v-2h-2zm4 0v2h2v-2h-2z" fill="#fff"/><defs><filter id="filter0_ddddd_209_357" x="0" y="0" width="54" height="66" filterUnits="userSpaceOnUse" color-interpolation-filters="sRGB"><feFlood flood-opacity="0" result="BackgroundImageFix"/><feColorMatrix in="SourceAlpha" values="0 0 0 0 0 0 0 0 0 0 0 0 0 0 0 0 0 0 127 0" result="hardAlpha"/><feOffset/><feColorMatrix values="0 0 0 0 0 0 0 0 0 0 0 0 0 0 0 0 0 0 0.1 0"/><feBlend in2="BackgroundImageFix" result="effect1_dropShadow_209_357"/><feColorMatrix in="SourceAlpha" values="0 0 0 0 0 0 0 0 0 0 0 0 0 0 0 0 0 0 127 0" result="hardAlpha"/><feOffset dy="1"/><feGaussianBlur stdDeviation="1"/><feColorMatrix values="0 0 0 0 0 0 0 0 0 0 0 0 0 0 0 0 0 0 0.1 0"/><feBlend in2="effect1_dropShadow_209_357" result="effect2_dropShadow_209_357"/><feColorMatrix in="SourceAlpha" values="0 0 0 0 0 0 0 0 0 0 0 0 0 0 0 0 0 0 127 0" result="hardAlpha"/><feOffset dy="4"/><feGaussianBlur stdDeviation="2"/><feColorMatrix values="0 0 0 0 0 0 0 0 0 0 0 0 0 0 0 0 0 0 0.09 0"/><feBlend in2="effect2_dropShadow_209_357" result="effect3_dropShadow_209_357"/><feColorMatrix in="SourceAlpha" values="0 0 0 0 0 0 0 0 0 0 0 0 0 0 0 0 0 0 127 0" result="hardAlpha"/><feOffset dy="10"/><feGaussianBlur stdDeviation="3"/><feColorMatrix values="0 0 0 0 0 0 0 0 0 0 0 0 0 0 0 0 0 0 0.05 0"/><feBlend in2="effect3_dropShadow_209_357" result="effect4_dropShadow_209_357"/><feColorMatrix in="SourceAlpha" values="0 0 0 0 0 0 0 0 0 0 0 0 0 0 0 0 0 0 127 0" result="hardAlpha"/><feOffset dy="18"/><feGaussianBlur stdDeviation="3.5"/><feColorMatrix values="0 0 0 0 0 0 0 0 0 0 0 0 0 0 0 0 0 0 0.01 0"/><feBlend in2="effect4_dropShadow_209_357" result="effect5_dropShadow_209_357"/><feBlend in="SourceGraphic" in2="effect5_dropShadow_209_357" result="shape"/></filter></defs></svg>