<svg width="80" height="80" viewBox="0 0 80 80" fill="none" xmlns="http://www.w3.org/2000/svg">
<path d="M67.6432 31.9288L67.9968 31.5753L67.6432 31.2217L67.2897 31.5753L67.6432 31.9288ZM30 69.5721L29.6464 69.9256L30 70.2792L30.3536 69.9256L30 69.5721ZM15.6901 55.2622L16.0437 54.9086L15.6901 54.5551L15.3366 54.9086L15.6901 55.2622ZM10.9766 59.9757L10.623 59.6222L10.2695 59.9757L10.623 60.3293L10.9766 59.9757ZM30 78.9991L29.6464 79.3527L30 79.7063L30.3536 79.3527L30 78.9991ZM72.3568 36.6424L72.7103 36.9959L73.0639 36.6424L72.7103 36.2888L72.3568 36.6424ZM67.2897 31.5753L29.6464 69.2185L30.3536 69.9256L67.9968 32.2824L67.2897 31.5753ZM30.3536 69.2185L16.0437 54.9086L15.3366 55.6157L29.6464 69.9256L30.3536 69.2185ZM15.3366 54.9086L10.623 59.6222L11.3301 60.3293L16.0437 55.6157L15.3366 54.9086ZM10.623 60.3293L29.6464 79.3527L30.3536 78.6456L11.3301 59.6222L10.623 60.3293ZM30.3536 79.3527L72.7103 36.9959L72.0032 36.2888L29.6464 78.6456L30.3536 79.3527ZM72.7103 36.2888L67.9968 31.5753L67.2897 32.2824L72.0032 36.9959L72.7103 36.2888Z" fill="#1B1B1E"/>
<path d="M72.3561 22.3567H72.8561C72.8561 22.2241 72.8034 22.0969 72.7097 22.0032L72.3561 22.3567ZM67.6426 17.6432L67.9961 17.2896C67.8531 17.1466 67.6381 17.1039 67.4512 17.1812C67.2644 17.2586 67.1426 17.441 67.1426 17.6432H67.6426ZM67.6426 31.9289H67.1426C67.1426 32.0615 67.1953 32.1887 67.289 32.2825L67.6426 31.9289ZM72.3561 36.6424L72.0026 36.996C72.1456 37.139 72.3606 37.1818 72.5475 37.1044C72.7343 37.027 72.8561 36.8447 72.8561 36.6424H72.3561ZM72.7097 22.0032L67.9961 17.2896L67.289 17.9967L72.0026 22.7103L72.7097 22.0032ZM67.1426 17.6432V31.9289H68.1426V17.6432H67.1426ZM67.289 32.2825L72.0026 36.996L72.7097 36.2889L67.9961 31.5753L67.289 32.2825ZM72.8561 36.6424V22.3567H71.8561V36.6424H72.8561Z" fill="#1B1B1E"/>
<path d="M67.6432 17.6432H68.1432C68.1432 17.441 68.0214 17.2586 67.8346 17.1812C67.6477 17.1039 67.4327 17.1466 67.2897 17.2896L67.6432 17.6432ZM30 55.2864L29.6464 54.9329C29.5527 55.0266 29.5 55.1538 29.5 55.2864H30ZM30 69.5721H29.5C29.5 69.7744 29.6218 69.9567 29.8087 70.0341C29.9955 70.1115 30.2106 70.0687 30.3536 69.9257L30 69.5721ZM67.6432 31.9289L67.9968 32.2825C68.0905 32.1887 68.1432 32.0615 68.1432 31.9289H67.6432ZM67.2897 17.2896L29.6464 54.9329L30.3536 55.64L67.9968 17.9967L67.2897 17.2896ZM29.5 55.2864V69.5721H30.5V55.2864H29.5ZM30.3536 69.9257L67.9968 32.2825L67.2897 31.5753L29.6464 69.2186L30.3536 69.9257ZM68.1432 31.9289V17.6432H67.1432V31.9289H68.1432Z" fill="#1B1B1E"/>
<path d="M15.6901 40.9766H16.1901C16.1901 40.7743 16.0683 40.592 15.8814 40.5146C15.6946 40.4372 15.4795 40.48 15.3366 40.623L15.6901 40.9766ZM10.9766 45.6901L10.623 45.3366C10.5292 45.4303 10.4766 45.5575 10.4766 45.6901H10.9766ZM10.9766 59.9758H10.4766C10.4766 60.1781 10.5984 60.3604 10.7852 60.4378C10.9721 60.5152 11.1871 60.4724 11.3301 60.3294L10.9766 59.9758ZM15.6901 55.2623L16.0437 55.6158C16.1374 55.5221 16.1901 55.3949 16.1901 55.2623H15.6901ZM15.3366 40.623L10.623 45.3366L11.3301 46.0437L16.0437 41.3301L15.3366 40.623ZM10.4766 45.6901V59.9758H11.4766V45.6901H10.4766ZM11.3301 60.3294L16.0437 55.6158L15.3366 54.9087L10.623 59.6223L11.3301 60.3294ZM16.1901 55.2623V40.9766H15.1901V55.2623H16.1901Z" fill="#1B1B1E"/>
<path d="M30 64.7135L29.6464 64.3599C29.5527 64.4537 29.5 64.5809 29.5 64.7135H30ZM72.3568 22.3567H72.8568C72.8568 22.1545 72.7349 21.9721 72.5481 21.8947C72.3613 21.8174 72.1462 21.8601 72.0032 22.0031L72.3568 22.3567ZM72.3568 36.6424L72.7103 36.996C72.8041 36.9022 72.8568 36.775 72.8568 36.6424H72.3568ZM30 78.9992H29.5C29.5 79.2014 29.6218 79.3837 29.8087 79.4611C29.9955 79.5385 30.2106 79.4957 30.3536 79.3527L30 78.9992ZM30.3536 65.067L72.7103 22.7102L72.0032 22.0031L29.6464 64.3599L30.3536 65.067ZM71.8568 22.3567V36.6424H72.8568V22.3567H71.8568ZM72.0032 36.2889L29.6464 78.6456L30.3536 79.3527L72.7103 36.996L72.0032 36.2889ZM30.5 78.9992V64.7135H29.5V78.9992H30.5Z" fill="#1B1B1E"/>
<path d="M29.9993 55.2865H30.4993C30.4993 55.1539 30.4467 55.0267 30.3529 54.9329L29.9993 55.2865ZM15.6895 40.9766L16.043 40.623C15.9 40.48 15.6849 40.4372 15.4981 40.5146C15.3113 40.592 15.1895 40.7743 15.1895 40.9766H15.6895ZM15.6895 55.2623H15.1895C15.1895 55.3949 15.2421 55.5221 15.3359 55.6158L15.6895 55.2623ZM29.9993 69.5722L29.6458 69.9257C29.7888 70.0687 30.0039 70.1115 30.1907 70.0341C30.3775 69.9567 30.4993 69.7744 30.4993 69.5722H29.9993ZM30.3529 54.9329L16.043 40.623L15.3359 41.3301L29.6458 55.64L30.3529 54.9329ZM15.1895 40.9766V55.2623H16.1895V40.9766H15.1895ZM15.3359 55.6158L29.6458 69.9257L30.3529 69.2186L16.043 54.9087L15.3359 55.6158ZM30.4993 69.5722V55.2865H29.4993V69.5722H30.4993Z" fill="#1B1B1E"/>
<path d="M10.9766 45.6901L11.3301 45.3365C11.1871 45.1935 10.9721 45.1507 10.7852 45.2281C10.5984 45.3055 10.4766 45.4878 10.4766 45.6901H10.9766ZM30 64.7135H30.5C30.5 64.5809 30.4473 64.4537 30.3536 64.3599L30 64.7135ZM30 78.9992L29.6464 79.3528C29.7894 79.4958 30.0045 79.5385 30.1913 79.4612C30.3782 79.3838 30.5 79.2014 30.5 78.9992H30ZM10.9766 59.9758H10.4766C10.4766 60.1084 10.5292 60.2356 10.623 60.3293L10.9766 59.9758ZM10.623 46.0436L29.6464 65.0671L30.3536 64.3599L11.3301 45.3365L10.623 46.0436ZM29.5 64.7135V78.9992H30.5V64.7135H29.5ZM30.3536 78.6457L11.3301 59.6222L10.623 60.3293L29.6464 79.3528L30.3536 78.6457ZM11.4766 59.9758V45.6901H10.4766V59.9758H11.4766Z" fill="#1B1B1E"/>
<path d="M67.6432 17.6432L30 55.2864L15.6901 40.9765L10.9766 45.6901L30 64.7135L72.3568 22.3567L67.6432 17.6432Z" fill="#FDDC48" stroke="#1B1B1E"/>
</svg>
