<svg width="210" height="210" viewBox="0 0 210 210" fill="none" xmlns="http://www.w3.org/2000/svg">
<path d="M128.536 84.2694L122.687 109.112L116.821 84.2694H99.8783V93.4428C97.8196 85.4153 90.2671 83.4019 83.5186 83.2875C75.2901 83.1753 66.1729 86.8978 65.8567 98.2572H77.2372C77.2372 94.8282 80.2446 92.8645 83.0845 92.9141C86.5714 92.8839 88.1753 94.4376 88.256 96.8567C88.1361 98.9563 86.9497 100.417 83.1135 100.417H79.2855V108.661H82.76C84.7339 108.661 87.4809 109.783 87.5883 112.718C87.7206 116.216 85.3912 117.752 82.5244 117.782C77.4067 117.584 76.0859 113.479 76.0859 109.949H64.2734C64.323 112.327 64.2486 127.827 82.7621 127.713C91.6312 127.797 98.0862 123.904 99.9072 118.537V126.764H111.3V99.9619L117.6 126.764H127.78L134.102 99.9921V126.787H145.727V84.2694H128.536ZM99.9155 109.053C98.4645 105.92 96.4224 104.55 95.2732 104.116C97.6853 102.996 98.9482 101.477 99.9155 98.4492V109.053Z" fill="white"/>
</svg>
