<svg width="210" height="210" viewBox="0 0 210 210" fill="none" xmlns="http://www.w3.org/2000/svg">
<g clip-path="url(#clip0_770_904)">
<path d="M25.0264 86.1021H184.947V89.1341H25.0264V86.1021Z" fill="white"/>
<path d="M25.0264 121.744H184.941V124.774H25.0264V121.744Z" fill="white"/>
<path d="M160.686 90.6538H184.949V98.9991H178.372V120.16H167.238V98.9991H160.686V90.6538Z" fill="white"/>
<path d="M144.001 90.6538V120.16H164.219V111.366H155.118V90.6538H144.001Z" fill="white"/>
<path d="M121.233 90.6494H133.447L142.81 120.16H131.932L130.817 115.669H123.996L122.983 120.16H111.626L121.233 90.6494ZM125.513 109.104H129.302L127.451 100.511L125.513 109.104Z" fill="white"/>
<path d="M115.371 90.6494H104.505L101.473 105.057L98.1843 90.6494H88.5784L85.4801 105.057L82.5142 90.6494H71.6611L79.7737 120.16H89.8493L93.2378 105.761L96.7146 120.16H107.033L115.371 90.6479" fill="white"/>
<path d="M55.6626 96.9683H71.8495V103.041H64.0152V105.561H70.8363V111.635H64.0152V114.154H71.8495V120.16H55.6626V96.9683Z" fill="white"/>
<path d="M25.0337 120.16V90.6494H38.8571C47.0212 90.6494 53.5124 95.0952 53.5124 105.465C53.5124 115.557 47.2274 120.16 38.804 120.16H25.0337ZM36.4449 111.323C39.9468 111.323 42.2603 109.852 42.2603 105.368C42.2603 100.445 39.9674 99.1316 36.467 99.1316H35.5731V111.323H36.4449Z" fill="white"/>
<path d="M179.877 117.703C179.877 116.315 181.002 115.292 182.332 115.292C183.65 115.292 184.775 116.315 184.775 117.703C184.775 119.103 183.65 120.127 182.332 120.127C181.002 120.127 179.877 119.103 179.877 117.703ZM182.332 119.725C183.426 119.725 184.289 118.867 184.289 117.703C184.289 116.558 183.426 115.695 182.332 115.695C181.227 115.695 180.363 116.558 180.363 117.703C180.363 118.867 181.227 119.725 182.332 119.725ZM181.861 118.018H182.257L182.784 118.907H183.386L182.766 117.981C183.184 117.929 183.47 117.672 183.47 117.164C183.47 116.738 183.136 116.423 182.464 116.423H181.398V118.907H181.861V118.018ZM181.861 117.601V116.803H182.4C182.7 116.803 183.039 116.822 183.039 117.189C183.039 117.607 182.765 117.601 182.398 117.601H181.861Z" fill="white"/>
</g>
<defs>
<clipPath id="clip0_770_904">
<rect width="160" height="38.9136" fill="white" transform="translate(25 86)"/>
</clipPath>
</defs>
</svg>
