<svg width="210" height="210" viewBox="0 0 210 210" fill="none" xmlns="http://www.w3.org/2000/svg">
<path d="M133.909 120.284H124.131V139.379H133.992V130.764L145.632 139.379H155.488V120.284H145.625V128.976L133.909 120.284V120.284ZM104.701 70C70.0712 70 42 98.0722 42 132.7C42 134.958 42.1195 137.184 42.3515 139.38H48.9178C48.6556 137.163 48.5245 134.933 48.5252 132.7C48.5252 101.676 73.6764 76.5252 104.701 76.5252C135.726 76.5252 160.878 101.676 160.878 132.7C160.878 134.961 160.744 137.19 160.485 139.38H167.051C167.286 137.161 167.403 134.932 167.403 132.7C167.401 98.0722 139.33 70 104.701 70V70ZM109.963 120.284H99.4781L87.0513 139.379H97.2293L98.6105 137.243H110.831L112.214 139.379H122.391L109.963 120.284ZM107.581 132.167H101.862L104.721 127.749L107.581 132.167ZM62.9863 120.284H53.7357V139.379H63.599V131.828L69.4909 137.719L75.3814 131.828V139.379H85.2445V120.284H75.9936L69.4906 126.788L62.9863 120.284V120.284Z" fill="white"/>
</svg>
