<svg width="210" height="210" viewBox="0 0 210 210" fill="none" xmlns="http://www.w3.org/2000/svg">
<path d="M53.4358 96.7559H60.9286C61.7687 96.7559 62.6315 96.8473 63.4716 97.0073C64.3117 97.1902 65.061 97.4874 65.7195 97.9218C66.3779 98.3561 66.9229 98.9505 67.3316 99.6821C67.7403 100.414 67.9446 101.328 67.9446 102.448C67.9446 103.523 67.6722 104.46 67.1499 105.283C66.6277 106.106 65.8784 106.723 64.9021 107.18L69.307 114.267H62.5861L59.2711 107.981H59.0895V114.222H53.4131V96.7559H53.4358ZM59.0668 104.14H60.202C60.4064 104.14 60.6107 104.117 60.8378 104.094C61.0649 104.071 61.2919 104.003 61.4963 103.888C61.7006 103.774 61.8595 103.637 62.0185 103.454C62.1547 103.271 62.2228 103.02 62.2228 102.7C62.2228 102.38 62.1547 102.151 62.0412 101.968C61.9277 101.785 61.7914 101.648 61.6098 101.557C61.4281 101.465 61.2465 101.419 61.0194 101.374C60.8151 101.351 60.6107 101.328 60.4291 101.328H59.0441V104.14H59.0668Z" fill="white"/>
<path d="M68.5801 105.397C68.5801 104.003 68.8298 102.723 69.3067 101.602C69.7835 100.482 70.4646 99.522 71.3275 98.7219C72.1903 97.9218 73.212 97.3274 74.3927 96.893C75.5734 96.4587 76.8449 96.2529 78.2299 96.2529C79.615 96.2529 80.8865 96.4587 82.0672 96.893C83.2479 97.3274 84.2696 97.9218 85.1324 98.7219C85.9952 99.522 86.6764 100.482 87.1759 101.602C87.6754 102.723 87.9025 104.003 87.9025 105.397C87.9025 106.792 87.6527 108.072 87.1759 109.238C86.6764 110.381 85.9952 111.364 85.1324 112.187C84.2696 113.01 83.2479 113.627 82.0672 114.084C80.8865 114.519 79.615 114.747 78.2299 114.747C76.8449 114.747 75.5734 114.519 74.3927 114.084C73.212 113.65 72.1903 113.01 71.3275 112.187C70.4646 111.364 69.7835 110.381 69.3067 109.238C68.8298 108.072 68.5801 106.792 68.5801 105.397ZM74.8014 105.397C74.8014 105.969 74.8922 106.495 75.0512 106.975C75.2328 107.455 75.4599 107.866 75.755 108.209C76.0502 108.552 76.4135 108.826 76.8449 109.009C77.2763 109.192 77.7304 109.284 78.2299 109.284C78.7295 109.284 79.1836 109.192 79.5923 109.009C80.001 108.826 80.3643 108.552 80.6821 108.209C81 107.866 81.2271 107.455 81.4087 106.975C81.5904 106.495 81.6585 105.969 81.6585 105.397C81.6585 104.849 81.5677 104.323 81.4087 103.843C81.2271 103.363 81 102.974 80.6821 102.654C80.3643 102.334 80.001 102.082 79.5923 101.9C79.1836 101.717 78.7295 101.625 78.2299 101.625C77.7304 101.625 77.2763 101.717 76.8449 101.9C76.4135 102.082 76.0502 102.334 75.755 102.654C75.4599 102.974 75.2101 103.363 75.0512 103.843C74.8922 104.323 74.8014 104.826 74.8014 105.397Z" fill="white"/>
<path d="M88.561 105.489C88.561 104.094 88.8108 102.814 89.2876 101.694C89.7871 100.551 90.4456 99.5905 91.3084 98.7675C92.1485 97.9674 93.1703 97.3273 94.3055 96.8929C95.4635 96.4586 96.6896 96.23 98.0065 96.23C99.3462 96.23 100.618 96.4586 101.821 96.8929C103.024 97.3273 104.024 97.9217 104.818 98.6532L101.231 102.997C100.913 102.562 100.504 102.242 100.005 102.014C99.5051 101.785 98.9602 101.671 98.3698 101.671C97.8703 101.671 97.4162 101.762 96.9848 101.922C96.5534 102.105 96.1901 102.357 95.8722 102.677C95.5543 102.997 95.3046 103.408 95.1229 103.866C94.9413 104.346 94.8505 104.849 94.8505 105.443C94.8505 106.014 94.9413 106.54 95.1229 106.997C95.3046 107.455 95.5543 107.843 95.8949 108.163C96.2128 108.483 96.5761 108.735 97.0075 108.918C97.4389 109.101 97.893 109.169 98.3471 109.169C99.0283 109.169 99.5959 109.032 100.073 108.758C100.55 108.483 100.936 108.14 101.208 107.775L104.795 112.095C104.001 112.896 103.047 113.513 101.889 113.993C100.754 114.473 99.437 114.702 97.9838 114.702C96.6669 114.702 95.4408 114.473 94.2828 114.039C93.1249 113.604 92.1258 112.964 91.2857 112.141C90.4456 111.318 89.7644 110.358 89.2649 109.215C88.7881 108.14 88.561 106.883 88.561 105.489Z" fill="white"/>
<path d="M111.221 107.272H111.176V114.244H105.5V96.7559H111.153V103.203H111.199L115.831 96.7559H122.71L116.171 104.757L123.028 114.244H115.853L111.221 107.272Z" fill="white"/>
<path d="M133.155 114.244H127.274L122.529 96.7559H128.705L130.567 106.586H130.657L132.678 96.7559H138.786L140.966 106.586H141.057L142.941 96.7559H148.935L144.099 114.244H138.218L135.789 104.369H135.698L133.155 114.244Z" fill="white"/>
<path d="M148.05 105.397C148.05 104.003 148.3 102.723 148.776 101.602C149.276 100.482 149.934 99.522 150.797 98.7219C151.66 97.9218 152.682 97.3274 153.862 96.893C155.043 96.4587 156.315 96.2529 157.7 96.2529C159.085 96.2529 160.356 96.4587 161.537 96.893C162.718 97.3274 163.739 97.9218 164.602 98.7219C165.465 99.522 166.146 100.482 166.646 101.602C167.145 102.723 167.372 104.003 167.372 105.397C167.372 106.792 167.122 108.072 166.646 109.238C166.146 110.381 165.465 111.364 164.602 112.187C163.739 113.01 162.718 113.627 161.537 114.084C160.356 114.519 159.085 114.747 157.7 114.747C156.315 114.747 155.043 114.519 153.862 114.084C152.682 113.65 151.66 113.01 150.797 112.187C149.934 111.364 149.253 110.381 148.776 109.238C148.3 108.072 148.05 106.792 148.05 105.397ZM154.248 105.397C154.248 105.969 154.339 106.495 154.498 106.975C154.68 107.455 154.907 107.866 155.202 108.209C155.497 108.552 155.861 108.826 156.292 109.009C156.723 109.192 157.177 109.284 157.677 109.284C158.176 109.284 158.631 109.192 159.039 109.009C159.448 108.826 159.811 108.552 160.129 108.209C160.447 107.866 160.674 107.455 160.856 106.975C161.037 106.495 161.105 105.969 161.105 105.397C161.105 104.849 161.015 104.323 160.856 103.843C160.674 103.363 160.447 102.974 160.129 102.654C159.811 102.334 159.448 102.082 159.039 101.9C158.631 101.717 158.176 101.625 157.677 101.625C157.177 101.625 156.723 101.717 156.292 101.9C155.861 102.082 155.497 102.334 155.202 102.654C154.907 102.974 154.657 103.363 154.498 103.843C154.339 104.323 154.248 104.826 154.248 105.397Z" fill="white"/>
<path d="M168.008 105.397C168.008 104.003 168.258 102.723 168.734 101.602C169.211 100.482 169.892 99.522 170.755 98.7219C171.618 97.9218 172.64 97.3274 173.82 96.893C175.001 96.4587 176.273 96.2529 177.658 96.2529C179.043 96.2529 180.314 96.4587 181.495 96.893C182.676 97.3274 183.697 97.9218 184.56 98.7219C185.423 99.522 186.104 100.482 186.604 101.602C187.103 102.723 187.33 104.003 187.33 105.397C187.33 106.792 187.08 108.072 186.604 109.238C186.104 110.381 185.423 111.364 184.56 112.187C183.697 113.01 182.676 113.627 181.495 114.084C180.314 114.519 179.043 114.747 177.658 114.747C176.273 114.747 175.001 114.519 173.82 114.084C172.64 113.65 171.618 113.01 170.755 112.187C169.892 111.364 169.211 110.381 168.734 109.238C168.258 108.072 168.008 106.792 168.008 105.397ZM174.229 105.397C174.229 105.969 174.32 106.495 174.479 106.975C174.661 107.455 174.888 107.866 175.183 108.209C175.478 108.552 175.841 108.826 176.273 109.009C176.704 109.192 177.158 109.284 177.658 109.284C178.157 109.284 178.611 109.192 179.02 109.009C179.429 108.826 179.792 108.552 180.11 108.209C180.428 107.866 180.655 107.455 180.836 106.975C181.018 106.495 181.086 105.969 181.086 105.397C181.086 104.849 180.995 104.323 180.836 103.843C180.655 103.363 180.428 102.974 180.11 102.654C179.792 102.334 179.429 102.082 179.02 101.9C178.611 101.717 178.157 101.625 177.658 101.625C177.158 101.625 176.704 101.717 176.273 101.9C175.841 102.082 175.478 102.334 175.183 102.654C174.888 102.974 174.638 103.363 174.479 103.843C174.297 104.323 174.229 104.826 174.229 105.397Z" fill="white"/>
<path d="M188.33 96.7559H194.21V109.192H199.978V114.267H188.33V96.7559Z" fill="white"/>
<path fill-rule="evenodd" clip-rule="evenodd" d="M44.7622 88H10V123H44.7622V88ZM26.0755 107.683L22.1702 114.244H13.4739L23.8958 96.7558H26.0755V107.683ZM28.6867 107.683L32.592 114.244H41.2655L30.8664 96.7558H28.6867V107.683Z" fill="white"/>
<path d="M195.799 98.8132C195.799 98.516 195.845 98.2416 195.958 97.9673C196.072 97.7158 196.231 97.4872 196.412 97.3043C196.594 97.1215 196.821 96.9614 197.071 96.87C197.321 96.7557 197.593 96.71 197.888 96.71C198.161 96.71 198.433 96.7557 198.706 96.87C198.955 96.9843 199.182 97.1215 199.364 97.3043C199.546 97.4872 199.705 97.7158 199.818 97.9673C199.932 98.2188 199.977 98.4931 199.977 98.7903C199.977 99.0875 199.932 99.3618 199.818 99.6362C199.705 99.8876 199.546 100.116 199.364 100.299C199.182 100.482 198.955 100.642 198.706 100.733C198.456 100.848 198.183 100.894 197.888 100.894C197.593 100.894 197.321 100.848 197.071 100.733C196.821 100.619 196.594 100.482 196.412 100.299C196.231 100.116 196.072 99.8876 195.958 99.6362C195.867 99.3847 195.799 99.1104 195.799 98.8132ZM196.14 98.8132C196.14 99.0646 196.185 99.2932 196.276 99.5218C196.367 99.7276 196.503 99.9333 196.662 100.093C196.821 100.253 197.003 100.368 197.23 100.459C197.434 100.551 197.661 100.596 197.911 100.596C198.161 100.596 198.388 100.551 198.592 100.459C198.796 100.368 199.001 100.231 199.16 100.071C199.319 99.9105 199.455 99.7276 199.546 99.499C199.637 99.2704 199.682 99.0418 199.682 98.7903C199.682 98.5388 199.637 98.3102 199.546 98.0816C199.455 97.853 199.319 97.6701 199.16 97.5101C199.001 97.3501 198.819 97.2358 198.592 97.1443C198.388 97.0529 198.161 97.0072 197.911 97.0072C197.661 97.0072 197.434 97.0529 197.23 97.1443C197.025 97.2358 196.821 97.3729 196.662 97.5101C196.503 97.6701 196.367 97.853 196.276 98.0816C196.185 98.3102 196.14 98.5617 196.14 98.8132ZM197.116 97.6015H198.002C198.297 97.6015 198.501 97.6473 198.638 97.7616C198.774 97.8759 198.842 98.0588 198.842 98.2874C198.842 98.516 198.774 98.6531 198.66 98.7674C198.547 98.8589 198.388 98.9275 198.206 98.9503L198.91 100.025H198.547L197.888 98.996H197.457V100.025H197.116V97.6015ZM197.457 98.676H197.866C197.956 98.676 198.024 98.676 198.115 98.676C198.183 98.676 198.274 98.6531 198.32 98.6303C198.365 98.6074 198.433 98.5617 198.456 98.516C198.501 98.4702 198.501 98.3788 198.501 98.2874C198.501 98.1959 198.479 98.1273 198.456 98.0816C198.433 98.0359 198.388 97.9902 198.32 97.9673C198.274 97.9444 198.206 97.9216 198.138 97.9216C198.07 97.9216 198.002 97.9216 197.956 97.9216H197.434V98.676H197.457Z" fill="white"/>
</svg>
