<svg width="210" height="210" viewBox="0 0 210 210" fill="none" xmlns="http://www.w3.org/2000/svg">
<path fill-rule="evenodd" clip-rule="evenodd" d="M150.198 120.248V125.455L126.421 141.993H36.0239V136.786L59.8008 120.248H150.197H150.198ZM173.975 67.126V72.3328L150.198 88.8712H59.8011V83.6644L83.5776 67.126H173.975H173.975ZM79.519 91.249H59.8011V117.87H80.1551V113.16H65.2833V106.252H78.3529V101.557H65.2833V95.9591H79.519V91.249V91.249ZM81.0789 109.668C81.0789 112.979 82.7599 118.577 92.5432 118.577C94.9056 118.577 103.114 117.87 103.114 109.864C103.114 105.064 99.7521 103.604 96.087 102.716L89.5597 101.121C88.439 100.85 86.7279 100.414 86.7279 98.3368C86.7279 95.9139 89.257 95.1465 91.3923 95.1465C96.2839 95.1465 96.7231 97.9607 96.8746 99.1494H102.251C102.221 95.8839 100.009 90.5417 91.8011 90.5417C83.093 90.5417 81.4877 95.7786 81.4877 98.7433C81.4877 104.582 85.6828 105.56 90.0141 106.553L92.8764 107.216C95.7237 107.893 97.7377 108.45 97.7377 110.526C97.7377 113.34 94.7846 113.972 92.1342 113.972C87.2426 113.972 86.5005 111.158 86.4551 109.668H81.0789L81.0789 109.668ZM110.05 112.377L108.172 117.87H102.296L111.837 91.2489H118.289L127.739 117.87H121.651L119.939 112.377H110.05H110.05ZM114.972 97.2532L111.534 107.772H118.364L115.048 97.2532H114.972H114.972ZM128.345 117.87H139.688C145.185 117.87 146.639 116.937 148.169 115.462C149.592 114.093 150.486 112.076 150.486 109.97C150.486 107.336 149.622 104.732 146.336 103.529C147.457 102.972 149.622 101.889 149.622 98.0661C149.622 95.327 147.942 91.249 141.369 91.249H128.345V117.87L128.345 117.87ZM133.721 106.147H140.854C142.868 106.147 144.882 107.035 144.882 109.368C144.882 112.076 143.307 113.265 140.581 113.265H133.721V106.147L133.721 106.147ZM133.721 95.8539H140.142C142.686 95.8539 144.246 96.516 144.246 98.6981C144.246 100.82 142.489 101.678 140.293 101.678H133.721V95.8539H133.721ZM168.159 97.5394V92.9795H170.098C170.597 92.9795 170.946 93.0246 171.173 93.1C171.4 93.1903 171.567 93.3256 171.703 93.5362C171.839 93.7469 171.9 93.9877 171.9 94.2588C171.9 94.6049 171.809 94.8757 171.597 95.1013C171.4 95.327 171.097 95.4626 170.688 95.5226C170.9 95.6432 171.067 95.7634 171.188 95.8991C171.324 96.0493 171.491 96.2901 171.718 96.6514L172.279 97.5394H171.173L170.507 96.546C170.264 96.185 170.098 95.959 170.007 95.8688C169.931 95.7785 169.84 95.7183 169.734 95.6883C169.643 95.6431 169.477 95.628 169.265 95.628H169.083V97.5394H168.159L168.159 97.5394ZM169.083 94.9057H169.764C170.204 94.9057 170.492 94.8906 170.597 94.8454C170.703 94.8154 170.794 94.7552 170.855 94.6649C170.916 94.5595 170.946 94.4541 170.946 94.3187C170.946 94.1682 170.916 94.0328 170.825 93.9426C170.749 93.8523 170.628 93.7921 170.476 93.7621C170.4 93.7621 170.173 93.7469 169.81 93.7469H169.083V94.9057V94.9057ZM169.886 91.8207C167.947 91.8207 166.372 93.3859 166.372 95.3121C166.372 97.2383 167.947 98.8032 169.886 98.8032C171.809 98.8032 173.384 97.2383 173.384 95.3121C173.384 93.3859 171.809 91.8207 169.886 91.8207ZM169.886 91.2489C167.629 91.2489 165.781 93.0697 165.781 95.3121C165.781 97.5542 167.629 99.3753 169.886 99.3753C172.127 99.3753 173.975 97.5542 173.975 95.3121C173.975 93.0697 172.127 91.2489 169.886 91.2489Z" fill="white"/>
</svg>
