<svg width="210" height="210" viewBox="0 0 210 210" fill="none" xmlns="http://www.w3.org/2000/svg">
<g clip-path="url(#clip0_770_899)">
<path d="M181.741 73.1724H28.1724V98.8101H181.741V73.1724Z" fill="white"/>
<path d="M33.9175 132.251H28.6013V123.676H35.0321C35.0321 123.676 35.6324 126.935 37.6902 126.935C39.6624 126.935 40.7771 125.992 40.6056 124.534C40.4341 122.991 37.433 122.133 34.8607 121.018C32.2883 119.904 28.2583 118.189 28.2583 113.216C28.2583 108.242 31.3451 104.641 36.8328 104.641C40.3483 104.641 41.2915 106.27 41.2915 106.27V105.241H46.9507V113.816H40.8628C40.8628 113.816 40.2626 110.558 37.6902 110.558C35.2036 110.558 35.0321 113.216 35.7181 113.816C36.4041 114.502 37.8617 115.188 39.4909 115.616C41.0343 116.045 47.6366 117.932 47.6366 124.277C47.6366 130.536 41.8917 133.023 38.8049 133.023C35.8039 133.023 33.8317 131.565 33.8317 131.565V132.251H33.9175Z" fill="white"/>
<path d="M62.4705 104.641C54.5819 104.641 48.2368 110.986 48.2368 118.875C48.2368 126.763 54.5819 133.108 62.4705 133.108C70.359 133.108 76.7041 126.763 76.7041 118.875C76.7041 110.986 70.359 104.641 62.4705 104.641ZM62.4705 125.734C58.6977 125.734 55.6109 122.648 55.6109 118.875C55.6109 115.102 58.6977 112.015 62.4705 112.015C66.2432 112.015 69.3301 115.102 69.3301 118.875C69.3301 122.733 66.2432 125.734 62.4705 125.734Z" fill="white"/>
<path d="M88.8798 133.023C95.3107 133.023 99.5122 127.449 99.5122 123.505V110.901H101.742V105.156H90.0802V110.901H92.2239V122.133C92.2239 124.534 90.509 125.82 88.7941 125.82C87.0792 125.82 85.3643 124.534 85.3643 122.133V110.901H87.5936V105.156H76.0181V110.901H78.2474V123.505C78.2474 127.449 82.3632 133.023 88.8798 133.023Z" fill="white"/>
<path d="M118.548 105.241H103.542V110.986H106.029V126.506H103.542V132.594H118.462C123.264 132.594 130.724 128.993 130.724 118.789C130.724 108.671 123.35 105.241 118.548 105.241ZM118.462 126.163H113.575V111.672H118.462C120.348 111.672 123.864 114.416 123.864 118.789C123.864 123.248 121.034 126.163 118.462 126.163Z" fill="white"/>
<path d="M156.276 126.506L147.358 105.156H136.04V111.329H138.355L131.924 126.506H129.866V132.594H142.814V126.506H140.241L140.842 125.392H147.53L148.216 126.506H146.158V132.594H158.676V126.506H156.276ZM141.956 119.647L143.843 114.502L145.815 119.647H141.956Z" fill="white"/>
<path d="M160.22 126.506V132.594H181.827V122.219H174.625V125.734H170.252V110.9H172.738V105.241H160.134V110.9H162.62V126.506H160.22Z" fill="white"/>
</g>
<defs>
<clipPath id="clip0_770_899">
<rect width="160" height="69.1104" fill="white" transform="translate(25 70)"/>
</clipPath>
</defs>
</svg>
