<svg width="48" height="48" fill="none" xmlns="http://www.w3.org/2000/svg"><path d="M24 2a4 4 0 00-3.988 3.758l-9.809 4.906A4 4 0 106 17.461v13.082A4 4 0 004 34a4 4 0 006.203 3.336l9.809 4.902A4 4 0 0024 46a4 4 0 003.988-3.758l9.809-4.906A4 4 0 1042 30.539V17.457A4 4 0 0044 14a4 4 0 00-6.203-3.336l-9.809-4.902A4 4 0 0024 2zm-2.203 7.336A4 4 0 0024 10a4 4 0 002.203-.664l9.809 4.902A4 4 0 0038 17.461v13.082a4 4 0 00-1.988 3.215l-9.809 4.906A4 4 0 0024 38a4 4 0 00-2.203.664l-9.809-4.902A4 4 0 0010 30.539V17.457a3.998 3.998 0 001.988-3.215l9.809-4.906zM24 16a4 4 0 100 8 4 4 0 000-8zm0 10c-2.67 0-6 1.442-6 4.102V32h12v-1.898C30 27.442 26.67 26 24 26z" fill="#1B1B1E"/></svg>