<svg width="48" height="48" fill="none" xmlns="http://www.w3.org/2000/svg"><path d="M27.984 8.02a6.318 6.318 0 00-2.593.581l-3.07 1.418A1.998 1.998 0 0022 10H4v20h2l12.152 10.634a5.466 5.466 0 007.465-.25h.004L31.981 34H46V9.226l-7.902 2.633-7.508-3.305a6.321 6.321 0 00-2.606-.535zm.035 4c.327-.004.655.06.962.195l8.921 3.925L42 14.777V30h-6.035l.379-.38c2.263-2.268 2.127-6.052-.285-8.16l-7.645-6.675-6.457 2.355h-.004a1.871 1.871 0 01-2.328-.91l-.234-.449 7.675-3.547a2.33 2.33 0 01.954-.215zM8 14h5.957l2.117 4.074c1.358 2.614 4.483 3.833 7.25 2.824l4.238-1.547 5.868 5.121c.715.625.75 1.654.082 2.325h-.004L22.789 37.554a1.41 1.41 0 01-1.035.43c-.358 0-.697-.125-.965-.36L8 26.435V14z" fill="#1B1B1E"/></svg>