<svg width="450" height="355" fill="none" xmlns="http://www.w3.org/2000/svg"><g opacity=".2" fill="#1B1B1E"><path d="M16.233 287.645l-.457.205.164.364.391-.079-.098-.49zm107.978-21.801l.099.49.774-.157-.472-.633-.401.3zm27.483-83.846l-.25-.433.25.433zm145.479-15.808l-.121.485.357.089.192-.315-.428-.259zm37.602-62.062l.428.259.384-.635-.732-.118-.08.494zm-55.493-8.968l.08-.493-.371-.06-.161.34.452.213zm-11.451 24.229l-.034.499.34.023.146-.308-.452-.214zm-45.75-.138l-.455.209.143.311.342-.021-.03-.499zM210.96 95.062l.454-.208-.157-.341-.371.055.074.495zm-58.934 8.788l-.074-.494-.659.098.278.605.455-.209zm11.192 24.336l.122.485.585-.146-.252-.548-.455.209zm-40.066 13.393l-.25.434.217.125.231-.099-.198-.46zm-30.71-17.728l.25-.433-.25-.144-.25.144.25.433zM49.49 148.649l-.25-.433-.75.433.75.433.25-.433zm30.915 17.847l.31.392.578-.457-.638-.368-.25.433zm-21.677 21.816l-.08.494.297.047.182-.239-.399-.302zm-41.703-6.739l.08-.494-.371-.06-.16.34.451.214zM1 215.467l-.452-.214-.284.601.656.106.08-.493zm42.058 6.797l.491.094.097-.506-.508-.082-.08.494zm-.006 25.789l.072.494.517-.075-.098-.513-.491.094zm-41.873 6.104l-.072-.495-.656.095.272.605.456-.205zm387.634-100.845l.25-.433-.25.433zm-43.331-19.136l.157-.475-.378-.125-.207.341.428.259zm-24.159 39.888l-.427-.259-.303.5.54.222.19-.463zm17.092 8.342l-.25.434.25-.434zm.715 107.798l.25.434-.25-.434zm-186.728-.413l.25-.433-.25.433zm-14.607-9.99l.316-.387-.183-.15-.231.047.098.49zm-69.08 13.947l-.099-.49-.908.183.652.659.355-.352zm33.282 25.142l.25-.433-.25.433zm287.926.637l.25.433-.25-.433zM113.38 235.518h-.5.5zm-71.55-.453l.5.001-.5-.001zm335.616 1.613h.5-.5zm71.554.342h.5-.5zM16.331 288.135l107.979-21.801-.198-.98-107.978 21.8.197.981zm108.281-22.591c-7.162-9.592-10.73-19.826-10.732-30.026h-1c.002 10.444 3.658 20.883 10.93 30.625l.802-.599zm27.332-83.113c39.077-22.56 96.932-27.805 145.108-15.756l.242-.97c-48.374-12.099-106.506-6.854-145.85 15.86l.5.866zm145.657-15.982l37.602-62.062-.855-.518-37.603 62.062.856.518zm37.254-62.815l-55.493-8.967-.159.987 55.493 8.967.159-.987zm-56.025-8.687l-11.452 24.228.905.428 11.451-24.229-.904-.427zm-10.966 23.943a354.452 354.452 0 00-45.814-.138l.061.998c15.173-.939 30.5-.893 45.686.138l.067-.998zm-45.329.152l-11.121-24.188-.909.417 11.121 24.189.909-.418zm-11.649-24.474l-58.934 8.788.147.989 58.934-8.788-.147-.989zm-59.315 9.491l11.193 24.336.909-.418-11.193-24.336-.909.418zm11.526 23.642c-14.038 3.511-27.511 7.988-40.142 13.419l.395.919c12.578-5.408 25.999-9.868 39.99-13.368l-.243-.97zm-39.695 13.445l-30.71-17.728-.5.866 30.71 17.729.5-.867zm-31.21-17.728L49.24 148.216l.5.866 42.954-24.798-.5-.866zM49.24 149.082l30.915 17.847.5-.866-30.915-17.847-.5.866zm30.855 17.022c-8.732 6.913-15.981 14.265-21.765 21.906l.797.604c5.728-7.567 12.915-14.86 21.589-21.726l-.621-.784zm-21.287 21.714l-41.703-6.739-.16.988 41.704 6.739.16-.988zm-42.235-6.459L.548 215.253l.904.428 16.024-33.894-.904-.428zM.92 215.96l42.058 6.798.16-.988-42.058-6.797-.16.987zm41.647 6.21a69.093 69.093 0 00-1.238 12.895l1 .001a68.09 68.09 0 011.22-12.708l-.982-.188zm.413 25.388l-41.873 6.104.144.989 41.873-6.104-.144-.989zM.723 254.362l15.053 33.488.913-.41-15.054-33.488-.912.41zm388.34-101.483c-13.271-7.661-27.9-14.047-43.424-19.178l-.314.95c15.468 5.112 30.034 11.471 43.238 19.094l.5-.866zm-44.009-18.962l-24.158 39.888.855.518 24.159-39.888-.856-.518zm-23.921 40.61c5.975 2.457 11.68 5.223 17.032 8.313l.5-.867c-5.395-3.114-11.14-5.899-17.152-8.371l-.38.925zm17.032 8.313c25.917 14.961 38.778 34.477 38.781 53.838h1c-.003-19.846-13.184-39.639-39.281-54.705l-.5.867zm.715 106.931c-25.588 14.773-59.237 22.127-92.964 22.053-33.727-.075-67.476-7.579-93.264-22.466l-.5.866c25.974 14.995 59.906 22.525 93.761 22.6 33.856.074 67.69-7.305 93.467-22.186l-.5-.867zm-186.228-.413c-5.415-3.126-10.258-6.458-14.541-9.944l-.631.775c4.327 3.523 9.214 6.884 14.672 10.035l.5-.866zm-14.955-10.047l-69.08 13.947.197.98 69.08-13.947-.197-.98zM68.36 294.1c8.928 9.027 20.046 17.521 33.387 25.223l.5-.866c-13.275-7.663-24.319-16.105-33.177-25.06l-.71.703zm33.387 25.223c40.001 23.093 92.272 34.697 144.441 34.812 52.168.115 104.288-11.257 143.985-34.175l-.5-.866c-39.508 22.808-91.444 34.156-143.483 34.041-52.039-.115-104.128-11.693-143.943-34.678l-.5.866zm288.426.637c39.489-22.796 59.322-52.777 59.327-82.94h-1c-.005 29.681-19.522 59.384-58.827 82.074l.5.866zM113.88 235.518c-.003-19.168 12.599-38.386 38.064-53.087l-.5-.866c-25.649 14.807-38.567 34.303-38.564 53.953h1zm-72.55-.453a69.374 69.374 0 001.23 13.081l.983-.187a68.36 68.36 0 01-1.214-12.893l-1-.001zm335.616 1.613c.003 19.17-12.6 38.392-38.066 53.093l.5.867c25.649-14.808 38.569-34.308 38.566-53.96h-1zm72.554.342c.005-30.477-20.235-60.933-60.437-84.141l-.5.866c40.022 23.104 59.942 53.282 59.937 83.275h1z"/><path d="M210.959 1h.5a.5.5 0 00-.573-.495l.073.495zm-58.934 8.788l-.073-.495a.5.5 0 00-.427.495h.5zm0 94.062h-.5a.5.5 0 00.574.495l-.074-.495zm58.934-8.787l.074.494a.5.5 0 00.426-.495h-.5zM210.886.504l-58.934 8.788.147.99 58.934-8.788-.147-.99zm-59.361 9.283v94.062h1V9.788h-1zm.574 94.557l58.934-8.788-.147-.989-58.934 8.788.147.989zm59.36-9.282V1h-1v94.063h1zm123.317-84.997h.5a.5.5 0 00-.42-.493l-.08.493zm-55.493-8.967l.08-.494a.5.5 0 00-.58.494h.5zm0 94.062h-.5a.5.5 0 00.42.494l.08-.494zm55.493 8.968l-.08.493a.497.497 0 00.58-.493h-.5zm.08-94.556L279.363.604l-.16.987 55.493 8.968.16-.987zm-56.073-8.474V95.16h1V1.098h-1zm.42 94.556l55.493 8.967.16-.987-55.493-8.967-.16.987zm56.073 8.474V10.065h-1v94.063h1z"/><path d="M222.08 25.189h.5a.502.502 0 00-.046-.21l-.454.21zM210.959 1l.454-.209a.5.5 0 00-.954.209h.5zm0 94.063h-.5c0 .072.016.143.046.208l.454-.209zm11.121 24.188l-.454.209a.5.5 0 00.954-.209h-.5zm.454-94.271L211.413.79l-.908.418 11.121 24.188.908-.417zM210.459 1v94.063h1V1h-1zm.046 94.271l11.121 24.189.908-.418-11.121-24.188-.908.417zm12.075 23.98V25.189h-1v94.062h1zM279.282 1.098h.5a.5.5 0 00-.952-.214l.452.214zM267.83 25.327l-.452-.214a.494.494 0 00-.048.214h.5zm0 94.062h-.5a.5.5 0 00.952.214l-.452-.214zm11.452-24.229l.452.214a.494.494 0 00.048-.214h-.5zM278.83.884l-11.452 24.229.904.427 11.452-24.228-.904-.428zm-11.5 24.443v94.062h1V25.327h-1zm.952 94.276l11.452-24.229-.904-.427-11.452 24.228.904.428zm11.5-24.443V1.098h-1V95.16h1zM152.025 9.788l.455-.209a.501.501 0 00-.955.21h.5zm11.193 24.336h.5a.501.501 0 00-.045-.209l-.455.21zm0 94.063l-.454.209a.5.5 0 00.954-.209h-.5zm-11.193-24.336h-.5c0 .072.016.143.046.209l.454-.209zm-.454-93.854l11.193 24.336.909-.418L152.48 9.58l-.909.418zm11.147 24.127v94.063h1V34.124h-1zm.955 93.854l-11.193-24.336-.909.418 11.193 24.336.909-.418zm-11.148-24.127V9.788h-1v94.063h1z"/><path d="M267.83 25.326h.5a.5.5 0 00-.466-.498l-.034.498zm-45.75-.137l-.031-.5a.5.5 0 00-.469.5h.5zm0 94.062h-.5c0 .138.057.27.158.364.1.095.235.144.373.135l-.031-.499zm45.75.138l-.034.499a.5.5 0 00.534-.499h-.5zm.034-94.561a354.539 354.539 0 00-45.815-.139l.062.998a353.55 353.55 0 0145.685.138l.068-.997zm-46.284.36v94.063h1V25.188h-1zm.531 94.562c15.172-.939 30.5-.893 45.685.138l.068-.998a354.467 354.467 0 00-45.815-.138l.062.998zm46.219-.361V25.326h-1v94.063h1zM123.153 47.517h.5a.501.501 0 00-.25-.433l-.25.433zm-30.71-17.728l.25-.433a.5.5 0 00-.75.433h.5zm0 94.062h-.5a.5.5 0 00.25.433l.25-.433zm30.71 17.728l-.25.434a.502.502 0 00.75-.434h-.5zm.25-94.495l-30.71-17.728-.5.866 30.71 17.728.5-.866zm-31.46-17.295v94.062h1V29.789h-1zm.25 94.495l30.71 17.729.5-.867-30.71-17.728-.5.866zm31.46 17.295V47.517h-1v94.062h1z"/><path d="M163.219 34.124h.5a.499.499 0 00-.622-.485l.122.485zm-40.067 13.393l-.197-.46a.5.5 0 00-.303.46h.5zm0 94.063h-.5a.5.5 0 00.698.459l-.198-.459zm40.067-13.393l.121.485a.5.5 0 00.379-.485h-.5zm-.122-94.548c-14.037 3.511-27.511 7.988-40.142 13.419l.395.918c12.578-5.408 26-9.868 39.99-13.367l-.243-.97zm-40.445 13.878v94.063h1V47.517h-1zm.698 94.522c12.578-5.408 26-9.868 39.99-13.367l-.243-.971c-14.037 3.512-27.511 7.988-40.142 13.419l.395.919zm40.369-13.852V34.124h-1v94.063h1zm133.455-56.06l-.428-.259a.503.503 0 00-.072.26h.5zm37.602-62.062h.5a.5.5 0 00-.927-.259l.427.26zm0 94.063l.428.259a.503.503 0 00.072-.259h-.5zm-37.602 62.062h-.5a.501.501 0 00.927.259l-.427-.259zm.427-93.803l37.603-62.063-.855-.518-37.603 62.062.855.519zm36.675-62.322v94.063h1V10.065h-1zm.073 93.804l-37.603 62.062.855.518 37.603-62.062-.855-.518zm-36.675 62.321V72.127h-1v94.063h1zM92.442 29.789h.5a.5.5 0 00-.75-.433l.25.433zM49.488 54.586l-.25-.433a.5.5 0 00-.25.433h.5zm0 94.063h-.5a.502.502 0 00.75.433l-.25-.433zm42.954-24.798l.25.433a.5.5 0 00.25-.433h-.5zm-.25-94.495L49.238 54.153l.5.866 42.954-24.797-.5-.866zm-43.204 25.23v94.063h1V54.586h-1zm.75 94.496l42.954-24.798-.5-.866-42.954 24.798.5.866zm43.204-25.231V29.789h-1v94.062h1zM388.813 59.25h.5a.5.5 0 00-.25-.434l-.25.433zm-43.331-19.136l.157-.475a.498.498 0 00-.657.474h.5zm0 94.062h-.5a.5.5 0 00.344.475l.156-.475zm43.331 19.136l-.25.433a.502.502 0 00.75-.433h-.5zm.25-94.496c-13.27-7.661-27.899-14.046-43.424-19.177l-.313.95c15.468 5.112 30.033 11.47 43.237 19.093l.5-.866zm-44.081-18.703v94.063h1V40.114h-1zm.344 94.538c15.468 5.112 30.033 11.471 43.237 19.094l.5-.866c-13.27-7.661-27.899-14.047-43.424-19.178l-.313.95zm43.987 18.661V59.249h-1v94.063h1z"/><path d="M345.481 40.114h.5a.5.5 0 00-.928-.26l.428.26zm-24.159 39.888l-.427-.26a.494.494 0 00-.073.26h.5zm0 94.062h-.5a.5.5 0 00.928.259l-.428-.259zm24.159-39.888l.428.259a.503.503 0 00.072-.259h-.5zm-.428-94.321l-24.158 39.888.855.518 24.159-39.888-.856-.518zm-24.231 40.147v94.062h1V80.002h-1zm.928 94.321l24.159-39.888-.856-.518-24.158 39.888.855.518zm24.231-40.147V40.114h-1v94.062h1zM49.488 54.586l.25-.433a.5.5 0 00-.75.433h.5zm30.916 17.847h.5a.5.5 0 00-.25-.433l-.25.433zm0 94.063l-.25.433a.502.502 0 00.75-.433h-.5zm-30.916-17.848h-.5a.5.5 0 00.25.433l.25-.433zm-.25-93.629l30.916 17.848.5-.867-30.916-17.847-.5.866zm30.666 17.414v94.063h1V72.433h-1zm.75 93.63l-30.916-17.848-.5.866 30.916 17.848.5-.866zm-30.666-17.415V54.586h-1v94.062h1zm101.705-60.713l-.25-.433a.501.501 0 00-.25.433h.5zm145.48-15.808h.5a.5.5 0 00-.379-.485l-.121.485zm0 94.063l-.122.485a.503.503 0 00.622-.485h-.5zm-145.48 15.808h-.5a.502.502 0 00.75.433l-.25-.433zm.25-93.63c39.078-22.56 96.933-27.805 145.108-15.756l.243-.97c-48.374-12.099-106.506-6.854-145.851 15.86l.5.866zm144.73-16.24v94.062h1V72.127h-1zm.621 93.577c-48.374-12.099-106.506-6.854-145.851 15.86l.5.866c39.078-22.56 96.933-27.806 145.108-15.756l.243-.97zm-145.101 16.293V87.935h-1v94.063h1z"/><path d="M80.403 72.434h.5a.5.5 0 00-.81-.392l.31.392zM58.727 94.249l-.4-.301a.5.5 0 00-.1.301h.5zm0 94.063h-.5a.5.5 0 00.898.302l-.398-.302zm21.676-21.816l.31.392a.5.5 0 00.19-.392h-.5zm-.31-94.454c-8.732 6.912-15.981 14.264-21.765 21.906l.797.603c5.728-7.567 12.915-14.86 21.589-21.725l-.62-.784zM58.227 94.249v94.063h1V94.249h-1zm.898 94.365c5.728-7.567 12.915-14.86 21.589-21.726l-.62-.784c-8.733 6.913-15.982 14.265-21.766 21.906l.797.604zm21.778-22.118V72.434h-1v94.062h1zm240.419-86.494l.19-.462a.5.5 0 00-.69.462h.5zm17.092 8.342h.5a.5.5 0 00-.25-.433l-.25.433zm0 94.063l-.25.433a.502.502 0 00.75-.433h-.5zm-17.092-8.343h-.5c0 .203.123.386.31.463l.19-.463zm-.19-93.6c5.975 2.458 11.68 5.223 17.032 8.313l.5-.866c-5.395-3.114-11.14-5.9-17.152-8.371l-.38.924zm16.782 7.88v94.063h1V88.344h-1zm.75 93.63c-5.395-3.115-11.14-5.9-17.152-8.372l-.38.925c5.975 2.457 11.68 5.223 17.032 8.313l.5-.866zm-16.842-7.91V80.002h-1v94.062h1z"/><path d="M58.727 94.25h.5a.5.5 0 00-.42-.494l-.08.493zm-41.704-6.74l.08-.493a.5.5 0 00-.58.493h.5zm0 94.063h-.5a.5.5 0 00.42.493l.08-.493zm41.704 6.739l-.08.493a.498.498 0 00.58-.493h-.5zm.08-94.556l-41.704-6.74-.16.988 41.704 6.739.16-.987zM16.522 87.51v94.063h1V87.51h-1zm.42 94.556l41.704 6.739.16-.987-41.704-6.739-.16.987zm42.284 6.246V94.249h-1v94.063h1zM449 142.958h-.5.5zm-60.188-83.709l.25-.433a.5.5 0 00-.75.433h.5zm0 94.063h-.5c0 .178.096.343.251.433l.249-.433zM449 237.02h-.5a.5.5 0 101 0h-.5zm.5-94.062c.004-30.478-20.235-60.933-60.438-84.142l-.499.866c40.021 23.105 59.941 53.283 59.937 83.276h1zm-61.188-83.709v94.063h1V59.249h-1zm.251 94.496c40.021 23.104 59.941 53.282 59.937 83.275h1c.004-30.477-20.235-60.932-60.438-84.141l-.499.866zM449.5 237.02v-94.062h-1v94.062h1z"/><path d="M17.024 87.51h.5a.5.5 0 00-.952-.214l.452.214zM1 121.404l-.452-.214a.502.502 0 00-.048.214H1zm0 94.063H.5a.5.5 0 00.952.213L1 215.467zm16.024-33.894l.452.213a.494.494 0 00.048-.213h-.5zm-.452-94.277L.548 121.19l.904.428 16.024-33.894-.904-.428zM.5 121.404v94.063h1v-94.063h-1zm.952 94.276l16.024-33.894-.904-.427L.548 215.253l.904.427zm16.072-34.107V87.51h-1v94.063h1zm95.857-40.117h.5-.5zm38.313-53.52h.5a.5.5 0 00-.75-.434l.25.433zm0 94.062l.25.433a.5.5 0 00.25-.433h-.5zm-38.313 53.52h-.5a.5.5 0 101 0h-.5zm.5-94.062c-.004-19.169 12.598-38.387 38.063-53.088l-.5-.866c-25.648 14.807-38.567 34.303-38.563 53.954h1zm37.313-53.52v94.062h1V87.935h-1zm.25 93.629c-25.648 14.807-38.567 34.303-38.563 53.953h1c-.004-19.168 12.598-38.386 38.063-53.087l-.5-.866zm-37.563 53.953v-94.062h-1v94.062h1zM338.414 88.344l.25-.433a.5.5 0 00-.75.433h.5zm39.031 54.271h.5-.5zm0 94.063h-.5a.5.5 0 001 0h-.5zm-39.031-54.271h-.5a.5.5 0 00.25.433l.25-.433zm-.25-93.63c25.917 14.962 38.778 34.478 38.781 53.838h1c-.003-19.845-13.184-39.638-39.281-54.704l-.5.866zm38.781 53.838v94.063h1v-94.063h-1zm1 94.063c-.003-19.845-13.184-39.638-39.281-54.705l-.5.867c25.917 14.961 38.778 34.477 38.781 53.838h1zm-39.031-54.271V88.344h-1v94.063h1z"/><path d="M1 121.404l.08-.493a.498.498 0 00-.58.493H1zm42.058 6.797h.5a.5.5 0 00-.42-.493l-.08.493zm0 94.063l-.08.493a.497.497 0 00.58-.493h-.5zM1 215.467H.5a.5.5 0 00.42.493l.08-.493zm-.08-93.569l42.058 6.797.16-.987-42.058-6.797-.16.987zm41.638 6.303v94.063h1v-94.063h-1zm.58 93.569L1.08 214.973l-.16.987 42.058 6.797.16-.987zM1.5 215.467v-94.063h-1v94.063h1z"/><path d="M43.059 128.201h.5a.5.5 0 00-.991-.094l.49.094zm-1.229 12.802l-.5-.001v.001h.5zm0 94.062h-.5a.5.5 0 001 .001l-.5-.001zm1.229-12.801l.49.094a.507.507 0 00.01-.094h-.5zm-.491-94.157a69.101 69.101 0 00-1.238 12.895l1 .002a68.1 68.1 0 011.22-12.709l-.982-.188zm-1.238 12.896v94.062h1v-94.062h-1zm1 94.063a68.08 68.08 0 011.22-12.708l-.982-.188a69.093 69.093 0 00-1.238 12.895l1 .001zm1.229-12.802v-94.063h-1v94.063h1z"/><path d="M41.83 141.003h.5a.5.5 0 00-1-.001l.5.001zm1.223 12.987h.5a.505.505 0 00-.01-.093l-.49.093zm0 94.063l-.491.093a.5.5 0 00.99-.093h-.5zm-1.223-12.988l.5.001v-.001h-.5zm-.5-94.063a69.377 69.377 0 001.232 13.082l.982-.187a68.376 68.376 0 01-1.214-12.893l-1-.002zm1.223 12.988v94.063h1V153.99h-1zm.99 93.969a68.36 68.36 0 01-1.213-12.893l-1-.001a69.374 69.374 0 001.232 13.081l.982-.187zm-1.213-12.894v-94.062h-1v94.062h1zm81.881-63.284h.5a.501.501 0 00-.099-.299l-.401.299zm-10.83-30.325h.5a.5.5 0 00-1 0h.5zm0 94.062h-.5.5zm10.83 30.326l-.4.299a.5.5 0 00.9-.299h-.5zm.401-94.362c-7.161-9.592-10.729-19.826-10.731-30.026h-1c.002 10.444 3.657 20.883 10.93 30.624l.801-.598zm-11.731-30.026v94.062h1v-94.062h-1zm0 94.062c.002 10.444 3.657 20.884 10.93 30.625l.801-.598c-7.161-9.593-10.729-19.827-10.731-30.027h-1zm11.83 30.326v-94.063h-1v94.063h1z"/><path d="M43.053 153.99h.5a.5.5 0 00-.572-.495l.072.495zM1.18 160.094l-.072-.495a.5.5 0 00-.428.495h.5zm0 94.063h-.5a.5.5 0 00.572.494l-.072-.494zm41.873-6.104l.072.495a.5.5 0 00.428-.495h-.5zm-.072-94.558l-41.873 6.104.144.99 41.873-6.104-.144-.99zM.68 160.094v94.063h1v-94.063h-1zm.572 94.557l41.873-6.103-.144-.99-41.873 6.104.144.989zm42.3-6.598V153.99h-1v94.063h1zm333.894-105.438h.5a.5.5 0 10-1 0h.5zm-38.315 53.527l-.25-.433a.499.499 0 00-.25.433h.5zm0 94.063h-.5a.5.5 0 00.75.433l-.25-.433zm38.315-53.527h-.5.5zm-.5-94.063c.004 19.171-12.6 38.393-38.065 53.094l.5.866c25.649-14.807 38.569-34.307 38.565-53.96h-1zm-38.315 53.527v94.063h1v-94.063h-1zm.75 94.496c25.649-14.807 38.569-34.308 38.565-53.96h-1c.004 19.171-12.6 38.393-38.065 53.094l.5.866zm38.565-53.96v-94.063h-1v94.063h1z"/><path d="M1.18 160.094l.456-.205a.5.5 0 00-.956.205h.5zm15.053 33.488h.5a.497.497 0 00-.044-.205l-.456.205zm0 94.062l-.456.205a.5.5 0 00.956-.205h-.5zM1.18 254.157h-.5c0 .07.015.14.044.205l.456-.205zm-.456-93.858l15.053 33.488.912-.41-15.053-33.488-.912.41zm15.01 33.283v94.062h1v-94.062h-1zm.955 93.857L1.636 253.952l-.912.41 15.053 33.487.912-.41zM1.68 254.157v-94.063h-1v94.063h1z"/><path d="M16.232 193.582l-.098-.49a.5.5 0 00-.402.49h.5zm107.979-21.801h.5a.498.498 0 00-.599-.49l.099.49zm0 94.063l.099.49a.5.5 0 00.401-.49h-.5zM16.232 287.645h-.5a.5.5 0 00.6.49l-.1-.49zm.1-93.573l107.978-21.801-.198-.98-107.978 21.801.197.98zm107.379-22.291v94.063h1v-94.063h-1zm.401 93.573L16.134 287.155l.197.98 107.979-21.801-.198-.98zm-107.38 22.291v-94.063h-1v94.063h1zm373.192-62.18l-.25-.433a.499.499 0 00-.25.433h.5zm59.077-82.507h.5a.5.5 0 00-1 0h.5zm0 94.062h.5-.5zm-59.077 82.507h-.5a.499.499 0 00.75.433l-.25-.433zm.25-93.629c39.488-22.797 59.322-52.778 59.327-82.94h-1c-.005 29.68-19.522 59.383-58.827 82.074l.5.866zm58.327-82.94v94.062h1v-94.062h-1zm0 94.062c-.005 29.681-19.522 59.384-58.827 82.074l.5.866c39.488-22.796 59.322-52.777 59.327-82.94h-1zm-58.077 82.507v-94.062h-1v94.062h1zM152.402 195.729h.5a.499.499 0 00-.25-.433l-.25.433zm-14.607-9.99l.316-.388a.5.5 0 00-.816.388h.5zm0 94.062h-.5c0 .151.068.293.184.388l.316-.388zm14.607 9.99l-.25.433a.499.499 0 00.75-.433h-.5zm.25-94.495c-5.416-3.127-10.258-6.458-14.541-9.945l-.632.776c4.328 3.522 9.214 6.884 14.673 10.035l.5-.866zm-15.357-9.557v94.062h1v-94.062h-1zm.184 94.45c4.328 3.523 9.214 6.884 14.673 10.035l.5-.866c-5.416-3.126-10.258-6.458-14.541-9.944l-.632.775zm15.423 9.602v-94.062h-1v94.062h1z"/><path d="M137.795 185.739h.5a.5.5 0 00-.599-.49l.099.49zm-69.08 13.947l-.1-.49a.5.5 0 00-.4.49h.5zm0 94.062h-.5a.5.5 0 00.599.49l-.1-.49zm69.08-13.947l.099.49a.5.5 0 00.401-.49h-.5zm-.099-94.552l-69.08 13.947.198.98 69.08-13.947-.198-.98zm-69.481 14.437v94.062h1v-94.062h-1zm.599 94.552l69.08-13.947-.198-.98-69.08 13.947.198.98zm69.481-14.437v-94.062h-1v94.062h1zm200.835-83.659h.5a.499.499 0 00-.75-.433l.25.433zm-186.728-.413l.25-.433a.502.502 0 00-.75.433h.5zm0 94.063h-.5c0 .178.096.343.25.433l.25-.433zm186.728.413l.25.433a.5.5 0 00.25-.433h-.5zm-.25-94.496c-25.588 14.772-59.238 22.127-92.964 22.052-33.727-.074-67.476-7.578-93.264-22.465l-.5.866c25.974 14.995 59.906 22.524 93.761 22.599 33.856.075 67.69-7.305 93.467-22.186l-.5-.866zm-186.978.02v94.063h1v-94.063h-1zm.25 94.496c25.974 14.994 59.906 22.524 93.761 22.599 33.856.075 67.69-7.305 93.467-22.186l-.5-.866c-25.588 14.772-59.238 22.126-92.964 22.052-33.727-.075-67.476-7.579-93.264-22.466l-.5.867zm187.478-.02v-94.063h-1v94.063h1z"/><path d="M68.715 199.686l.355-.352a.5.5 0 00-.855.352h.5zm33.282 25.142h.5a.499.499 0 00-.25-.433l-.25.433zm0 94.062l-.25.433a.499.499 0 00.75-.433h-.5zm-33.282-25.142h-.5c0 .132.052.258.144.352l.356-.352zm-.356-93.711c8.93 9.027 20.046 17.522 33.388 25.224l.5-.866c-13.275-7.664-24.319-16.106-33.177-25.061l-.71.703zm33.138 24.791v94.062h1v-94.062h-1zm.75 93.629c-13.275-7.663-24.319-16.105-33.177-25.06l-.71.703c8.928 9.027 20.045 17.521 33.387 25.223l.5-.866zm-33.032-24.709v-94.062h-1v94.062h1z"/><path d="M101.998 224.828l.25-.433a.502.502 0 00-.75.433h.5zm287.926.637h.5a.499.499 0 00-.75-.433l.25.433zm0 94.062l.25.433a.499.499 0 00.25-.433h-.5zm-287.926-.637h-.5c0 .179.095.344.25.433l.25-.433zm-.25-93.629c40.001 23.092 92.272 34.696 144.44 34.812 52.169.115 104.288-11.258 143.986-34.175l-.5-.866c-39.508 22.808-91.444 34.156-143.483 34.041-52.04-.116-104.128-11.693-143.943-34.678l-.5.866zm287.676.204v94.062h1v-94.062h-1zm.25 93.629c-39.508 22.809-91.444 34.156-143.483 34.041-52.04-.115-104.128-11.693-143.943-34.678l-.5.866c40.001 23.093 92.272 34.697 144.44 34.812 52.169.115 104.288-11.257 143.986-34.175l-.5-.866zm-287.176-.204v-94.062h-1v94.062h1z"/></g></svg>